<?xml version="1.0" encoding="UTF-8" standalone="no"?>
<!-- Created with Inkscape (http://www.inkscape.org/) -->

<svg
   width="630"
   height="630"
   viewBox="0 0 166.68749 166.68749"
   version="1.1"
   id="svg5"
   xml:space="preserve"
   xmlns="http://www.w3.org/2000/svg"
   xmlns:svg="http://www.w3.org/2000/svg"><defs
     id="defs2"><style
       id="style299">.cls-1{fill:#5865f2;}</style></defs><g
     id="layer2"
     transform="translate(246.90826,-435.02339)"><rect
       style="opacity:1;fill:#5a6079;fill-opacity:1;stroke-width:0.264583;stroke-linecap:square;stroke-linejoin:round;stroke-miterlimit:60;paint-order:fill markers stroke"
       id="rect10530"
       width="166.68748"
       height="166.68748"
       x="-63.841591"
       y="469.99234"
       transform="translate(-183.06667,-34.968948)" /><path
       id="path55244"
       style="mix-blend-mode:normal;fill:#484e62;fill-opacity:1;stroke:none;stroke-width:1.5875;stroke-linecap:butt;stroke-linejoin:round;stroke-miterlimit:4;stroke-dasharray:none;stroke-opacity:1;paint-order:stroke markers fill"
       d="m -36.557003,557.15964 c 0.201925,0.20212 0.410143,0.40514 0.618604,0.60596 0.154998,0.15374 0.307358,0.30666 0.466818,0.46055 0.06744,0.0649 0.136685,0.12405 0.205376,0.18647 2.013996,1.92558 4.06254,3.66445 6.065533,5.23288 5.736346,4.8067 9.856677,6.85578 13.066593,8.98806 0.01073,0.008 0.02686,0.0142 0.03571,0.0231 0.0088,0.006 0.01861,0.0124 0.02907,0.0164 0.100075,0.0685 0.194081,0.13723 0.285657,0.20411 0.06863,0.0498 0.133914,0.10239 0.193694,0.15576 0.03252,0.0276 0.06522,0.0525 0.09761,0.0787 0.04547,0.0393 0.08948,0.0769 0.130429,0.11782 0.280477,0.26155 0.503046,0.52194 0.711177,0.76802 -6.89e-4,-0.004 -0.0026,-0.009 -0.0019,-0.0145 0.05807,0.0708 0.118125,0.13704 0.1736,0.20517 0.02308,0.0269 0.04894,0.0552 0.07042,0.0831 l 0.0016,10e-4 c 0.0052,0.006 0.0095,0.012 0.01455,0.0184 0.149149,0.17445 0.298872,0.33682 0.457579,0.48289 0.16452,0.15187 0.346489,0.28136 0.560052,0.38691 0.07171,0.0337 0.146816,0.0692 0.225143,0.0982 0.07911,0.0285 0.163738,0.0557 0.251498,0.0784 0.755024,0.19453 1.402533,0.35939 1.939679,0.4637 0.895176,0.17424 1.4789859,0.17904 1.7224918,-0.12897 0.2025182,-0.25625 0.00335,-0.70489 -0.2498235,-1.52987 l -0.00163,-10e-4 c -0.2530446,-0.82492 -0.5584063,-2.02613 -0.5681393,-3.78464 4.8599014,-5.9927 4.5067004,-7.12882 17.3100133,-20.21952 1.775922,1.91241 9.2297697,9.93289 10.8542527,11.50409 1.820747,1.76388 16.162003,16.54746 18.12479,18.77458 1.650329,1.87211 8.595867,9.29985 12.266562,13.1907 5.103436,5.40992 6.671077,8.87983 8.299096,11.43388 1.60856,2.52349 3.449581,6.28303 6.295071,6.35194 3.24491,0.0807 10.044932,-2.65011 11.136731,-6.98637 1.68e-4,-6.7e-4 0.0018,-8.9e-4 0.0018,-0.001 0.05552,-0.2206 0.09918,-0.43162 0.130613,-0.63676 0.01567,-0.1025 0.02798,-0.20262 0.03772,-0.30225 0.02879,-0.29856 0.03056,-0.58425 0.0018,-0.86368 -6.2e-5,-5.7e-4 -0.0018,-8.9e-4 -0.0018,-10e-4 -0.0097,-0.0925 -0.02144,-0.18446 -0.03764,-0.27586 -0.01621,-0.0927 -0.03729,-0.18387 -0.06048,-0.27591 -0.04623,-0.18268 -0.105377,-0.36256 -0.179524,-0.5454 -0.03622,-0.0931 -0.07802,-0.18297 -0.122404,-0.27595 -0.08847,-0.18449 -0.192028,-0.37151 -0.310182,-0.56169 -0.118138,-0.19015 -0.249847,-0.38444 -0.398562,-0.58433 -0.371419,-0.50032 -0.839171,-1.03695 -1.412215,-1.64097 -0.916163,-0.96675 -2.102897,-2.10413 -3.58788,-3.53728 -0.742219,-0.71692 -1.558429,-1.50782 -2.457321,-2.38531 -0.738335,-0.72568 -1.689304,-1.61541 -2.790185,-2.62715 -5.49e-4,-4.9e-4 -0.0011,-8.9e-4 -0.0016,-10e-4 -1.269898,-1.16695 -2.773295,-2.51736 -4.369106,-3.93814 -0.95246,-0.84752 -1.943924,-1.72338 -2.965134,-2.62202 -1.722154,-1.51614 -3.491111,-3.0652 -5.275313,-4.61566 -6.152375,-5.34746 -12.169706,-10.48614 -14.591555,-12.54414 -0.620905,-0.52735 -1.357425,-1.16281 -2.177961,-1.88098 -0.820791,-0.71783 -1.725965,-1.51744 -2.684096,-2.36751 -4.792176,-4.24937 -10.915845,-9.78058 -14.483833,-12.93271 -0.713698,-0.63029 -1.324493,-1.16652 -1.802646,-1.57707 -0.149073,-0.13017 -0.317956,-0.27999 -0.500423,-0.44981 -0.182465,-0.16983 -0.382342,-0.35706 -0.592135,-0.56058 -0.387612,-0.37496 -0.81361,-0.79471 -1.266774,-1.25413 -0.02103,-0.0214 -0.04425,-0.0467 -0.06503,-0.0687 0.168215,-0.16983 0.313291,-0.31956 0.506272,-0.51254 0.213204,-0.21269 0.448983,-0.43884 0.677651,-0.66121 0.0096,-0.01 0.02047,-0.0174 0.03005,-0.0268 0.0096,-0.01 0.01568,-0.0158 0.02531,-0.0253 0.510161,-0.48996 1.055335,-1.00225 1.598446,-1.51353 -0.0058,4.4e-4 -0.01483,0.004 -0.02087,0.004 2.729583,-2.56555 6.028661,-5.47057 9.24607,-8.22727 0.895531,-0.76725 1.777314,-1.51609 2.641719,-2.24658 l 0.0018,-10e-4 c 0.0025,-10e-4 0.0048,-10e-4 0.0079,-0.004 0.779921,-0.65923 1.355329,-1.13839 2.086595,-1.75023 0.01015,-0.009 0.01828,-0.0133 0.02843,-0.0221 0.02117,-0.0168 0.04239,-0.0335 0.06537,-0.0521 l -0.0016,-10e-4 c -6.5e-4,-10e-4 -8.75e-4,-0.003 -0.0012,-0.004 4.324556,-3.61808 7.678642,-6.33006 7.678642,-6.33006 l 3.765012,1.60986 -0.710224,-2.73803 3.445017,-0.11758 -4.672828,-2.14537 c -0.219899,-0.58578 -0.597493,-1.55101 -1.173911,-2.80337 -0.09707,-0.20954 -0.199804,-0.42542 -0.308457,-0.6516 -1.492671,-3.11355 -4.129902,-7.73835 -8.674586,-13.05679 -0.303415,-0.35402 -0.615279,-0.71259 -0.935555,-1.07268 -0.0029,-0.003 -0.0068,-0.006 -0.0098,-0.01 -2.955044,-3.32596 -6.644633,-6.88665 -11.239617,-10.48204 -0.240427,-0.18982 -0.489408,-0.37883 -0.738083,-0.5681 -0.0116,-0.01 -0.02367,-0.0174 -0.03725,-0.0247 -1.385122,-1.05337 -2.866703,-2.10759 -4.326703,-3.09562 -3.2174767,-2.33857 -6.6500398,-4.6837 -8.5129733,-5.75044 -0.033616,0.18375 0.023311,0.41573 0.1437863,0.67584 -0.1563294,-0.0736 -0.2946248,-0.13475 -0.4066262,-0.17788 -0.6463718,-0.99139 -1.44944449,-1.54612 -2.21557039,-1.82379 -0.1277433,-0.0463 -0.2556003,-0.0843 -0.3805206,-0.11576 -1.12276391,-0.28434 -2.09048721,-0.004 -2.24991031,0.30365 -0.4539856,0.87674 0.9829151,3.91854 0.9829151,3.91854 -2.6805139,4.20004 -7.5870493,11.57896 -19.5909116,23.21226 -0.305796,0.29579 -0.61592,0.59639 -0.930734,0.89793 -0.713532,0.68384 -1.438135,1.37413 -2.200922,2.08658 -2.227662,2.08068 -3.598256,3.66902 -5.164252,5.31123 -0.0018,6.2e-4 -0.0044,-6.2e-4 -0.0062,0 -0.328691,0.34509 -0.666831,0.69213 -1.020536,1.04646 -0.08009,0.0797 -0.157984,0.15923 -0.240122,0.24014 -0.123849,0.12257 -0.252419,0.24739 -0.382192,0.37216 -0.279567,0.2683 -0.563783,0.5366 -0.873538,0.81793 l -0.0018,10e-4 c -0.181028,0.16463 -0.359625,0.31979 -0.538698,0.47683 -0.0068,0.006 -0.01391,0.0111 -0.02086,0.0171 -0.184834,0.1583 -0.369054,0.3122 -0.553477,0.46857 l 0.01296,3.1e-4 c -0.178203,0.15103 -0.356538,0.30469 -0.532292,0.45064 -1.510204,1.25164 -2.932864,2.32667 -4.218904,3.54623 -0.08368,0.075 -0.167438,0.15042 -0.24831,0.22879 -0.06855,0.0673 -0.138366,0.13335 -0.207235,0.20097 -0.117522,0.11382 -0.237541,0.22626 -0.355966,0.33956 -0.290626,0.27935 -0.58247,0.55843 -0.876694,0.83436 -0.132347,0.12357 -0.264123,0.24772 -0.396652,0.37073 -0.417453,0.38714 -0.835658,0.7674 -1.252329,1.14124 -0.141859,0.12734 -0.281833,0.25529 -0.422801,0.38047 -0.207597,0.18418 -0.410052,0.35757 -0.615551,0.53715 -0.164897,0.1441 -0.331747,0.2888 -0.494764,0.4294 -0.209788,0.18073 -0.416289,0.35941 -0.622051,0.53388 -0.01703,0.0145 -0.03351,0.0298 -0.04897,0.0426 -0.327664,0.27707 -0.650479,0.54616 -0.964974,0.80492 -0.159869,0.13143 -0.319423,0.26381 -0.475114,0.39019 -0.212324,0.17187 -0.411962,0.32694 -0.61557,0.4882 -0.156687,0.12387 -0.322479,0.25822 -0.473441,0.3755 -0.193044,0.15008 -0.380897,0.29471 -0.563314,0.43268 -0.01071,0.009 -0.02086,0.0171 -0.02843,0.0221 -0.41858,0.31613 -0.807254,0.59822 -1.159221,0.84245 l -0.0018,0.001 c -0.160219,0.11098 -0.316316,0.21575 -0.46041,0.3102 l -0.0018,0.001 c -0.0038,0.002 -0.0088,0.003 -0.01258,0.006 -0.120689,0.0791 -0.234434,0.15227 -0.34293,0.21882 -0.03538,0.0215 -0.06982,0.0414 -0.104262,0.0619 -0.03156,0.0191 -0.06099,0.037 -0.08975,0.0536 -0.05373,0.0316 -0.10521,0.0622 -0.155277,0.0899 -0.108088,0.0593 -0.213007,0.11431 -0.301889,0.15496 l -3.061361,-1.77475 0.894735,2.76579 -3.476047,-0.3216 3.214791,1.36003 c 0,0 0.05404,0.13933 0.153324,0.37892 0.03538,0.086 0.05091,0.1248 0.103002,0.24644 0.05722,0.13376 0.123537,0.28846 0.200947,0.46192 7.13e-4,10e-4 0.0026,0.004 0.0031,0.007 0.103136,0.2314 0.225499,0.49973 0.365779,0.79672 0.01866,0.0376 0.04349,0.0878 0.06213,0.12725 0.127011,0.26667 0.269727,0.56105 0.426125,0.87352 0.0094,0.0221 0.02668,0.0456 0.03644,0.068 0.141734,0.28203 0.295696,0.5807 0.46217,0.89629 2.096355,3.98485 6.169542,10.57135 13.040459,17.44878 z"
       transform="translate(-183.06667,-34.968948)" /><path
       id="path10532"
       style="fill:#f3f3f3;fill-opacity:1;stroke-width:0.264583"
       class="cls-1"
       d="m 1.8262353,505.83925 c -8.9355898,1.5236 -17.6349403,4.20453 -25.8780003,7.97522 -16.36459,24.21173 -20.80042,47.82229 -18.58233,71.09747 9.58352,7.08072 20.31023,12.46577 31.71382,15.92099 2.5677505,-3.45352 4.8399505,-7.11716 6.7923505,-10.9523 -3.70831,-1.38501 -7.2878705,-3.09392 -10.6965005,-5.10666 0.89709,-0.65066 1.77478,-1.32136 2.62258,-1.97198 20.0810903,9.44366 43.3264,9.44366 63.40749,0 0.85767,0.69991 1.73536,1.37061 2.62258,1.97198 -3.41521,2.016 -7.00124,3.72815 -10.71614,5.11648 1.95001,3.83336 4.22234,7.49396 6.79235,10.94248 11.41333,-3.44136 22.14871,-8.82388 31.73398,-15.91117 2.60256,-26.99172 -4.4465,-50.3853 -18.63245,-71.12692 -8.23479,-3.77009 -16.92798,-6.44474 -25.85785,-7.95559 -1.22197,2.18445 -2.32773,4.43176 -3.31246,6.73292 -9.51204,-1.43336 -19.18492,-1.43336 -28.6969597,0 -0.98524,-2.30092 -2.091,-4.5482 -3.31246,-6.73292 z m 33.4697897,33.41812 a 9.2524099,17.99498 0 0 1 9.25267,17.99528 9.2524099,17.99498 0 0 1 -9.25267,17.99477 9.2524099,17.99498 0 0 1 -9.25215,-17.99477 9.2524099,17.99498 0 0 1 9.25215,-17.99528 z M 3.7082953,539.89144 A 9.2524099,17.99498 0 0 1 12.960445,557.8862 9.2524099,17.99498 0 0 1 3.7082953,575.88149 9.2524099,17.99498 0 0 1 -5.5443745,557.8862 9.2524099,17.99498 0 0 1 3.7082953,539.89144 Z"
       transform="translate(-183.06667,-34.968948)" /></g></svg>
