<?xml version="1.0" encoding="UTF-8" standalone="no"?>
<!-- Created with Inkscape (http://www.inkscape.org/) -->

<svg
   width="630"
   height="630"
   viewBox="0 0 166.68749 166.68749"
   version="1.1"
   id="svg5"
   xml:space="preserve"
   xmlns="http://www.w3.org/2000/svg"
   xmlns:svg="http://www.w3.org/2000/svg"><defs
     id="defs2"><style
       id="style299">.cls-1{fill:#5865f2;}</style></defs><g
     id="layer3"
     transform="translate(80.220784,-435.02339)"><rect
       style="opacity:1;fill:#a18b57;fill-opacity:1;stroke-width:0.264583;stroke-linecap:square;stroke-linejoin:round;stroke-miterlimit:60;paint-order:fill markers stroke"
       id="rect10534"
       width="166.68748"
       height="166.68748"
       x="102.84589"
       y="469.99234"
       transform="translate(-183.06667,-34.968948)" /><path
       id="path1343"
       style="fill:#897648;fill-opacity:1;stroke:none;stroke-width:1.5875;stroke-linecap:butt;stroke-linejoin:miter;stroke-miterlimit:4;stroke-dasharray:none;stroke-opacity:1;paint-order:stroke fill markers"
       d="m 165.90617,494.59219 -2.5112,3.64583 3.64584,2.51118 -0.74362,8.44699 7.16585,4.93573 0.29518,-3.38043 17.50756,12.05893 6.15702,-1.13464 57.11801,39.34202 -0.99831,11.85518 -7.37232,0.29755 -1.91783,-1.32096 -2.13115,25.40958 -11.65909,-8.03059 c 0.0102,0.25078 0.001,0.5223 0.0203,0.76293 l -0.002,0.004 c 0.20396,2.4572 0.58481,5.23172 0.96631,8.08832 l -0.002,0.004 c 0.0264,0.19765 0.0526,0.39856 0.0791,0.59697 0.13777,1.03717 0.27263,2.08102 0.39953,3.12395 0.0241,0.19884 0.0531,0.39685 0.0764,0.59506 l -0.002,0.004 c 0.0128,0.10834 0.0244,0.21449 0.0366,0.3225 0.1427,1.23107 0.26814,2.45312 0.36365,3.64858 0.008,0.0953 0.019,0.19259 0.0262,0.28755 l -0.002,0.004 c 0.003,0.0635 0.008,0.12878 0.0129,0.19451 0.046,0.62832 0.0842,1.24792 0.11014,1.85716 0.0285,0.67247 0.0454,1.33116 0.0444,1.97296 l -0.002,0.004 c -4.3e-4,0.32009 -0.003,0.63579 -0.0118,0.9473 l -0.002,0.004 c -0.0179,0.62288 -0.0526,1.22714 -0.10793,1.80835 -0.05,0.52492 -0.11843,1.0303 -0.20367,1.51507 -0.0158,0.0924 -0.0327,0.1853 -0.0504,0.27677 -6.9e-4,0.005 -0.005,0.011 -0.005,0.0169 -9.9e-4,0.004 -0.001,0.006 -0.005,0.011 -0.002,0.0123 -0.004,0.0246 -0.006,0.037 -0.0267,0.12722 -0.0513,0.25451 -0.0792,0.37952 -0.005,0.0169 -0.009,0.0416 -0.0137,0.0586 -0.005,0.011 -0.005,0.0169 -0.007,0.0293 -4.4e-4,0.007 -0.005,0.0169 -0.004,0.0246 -0.0204,0.0984 -0.0474,0.19156 -0.0715,0.28669 -0.0137,0.0585 -0.0302,0.11259 -0.0432,0.16998 -0.0187,0.0665 -0.0377,0.13327 -0.0564,0.19887 -0.036,0.13095 -0.0786,0.25668 -0.12,0.38261 -0.005,0.0108 -0.005,0.0169 -0.007,0.0293 -0.0218,0.0608 -0.0433,0.12186 -0.065,0.18277 -0.009,0.034 -0.0218,0.071 -0.0375,0.10362 -0.0441,0.11321 -0.085,0.22661 -0.13042,0.33682 -0.0144,0.0308 -0.0256,0.0569 -0.0337,0.0884 -0.0293,0.0719 -0.0634,0.14124 -0.0924,0.21273 -0.001,0.005 -0.005,0.0107 -0.007,0.0157 l -0.002,0.004 c -0.002,0.005 -10e-4,0.006 -0.005,0.011 -0.0206,0.0399 -0.0388,0.0857 -0.0601,0.12654 -10e-4,0.004 -10e-4,0.006 -0.005,0.011 -0.006,0.01 -0.008,0.0209 -0.0144,0.0308 l -0.002,0.004 c -0.002,0.005 -10e-4,0.006 -0.005,0.011 -0.0482,0.0995 -0.10035,0.19495 -0.15264,0.29034 -0.001,0.004 -0.004,0.005 -0.007,0.01 -0.0507,0.0931 -0.10099,0.18578 -0.15513,0.27443 -0.001,0.004 -0.004,0.005 -0.007,0.01 l -0.002,0.004 c -0.002,0.005 -0.007,0.01 -0.009,0.0138 -0.0123,0.019 -0.0234,0.038 -0.0333,0.0543 -0.001,0.004 -0.007,0.01 -0.007,0.01 -0.0673,0.1074 -0.13906,0.21168 -0.20961,0.3141 -0.026,0.0362 -0.0517,0.0673 -0.0764,0.10115 -0.0273,0.0355 -0.0559,0.0713 -0.0861,0.10534 -0.028,0.0348 -0.057,0.0751 -0.0893,0.10985 -0.0145,0.017 -0.0312,0.0394 -0.0454,0.0562 -0.0108,0.0125 -0.0249,0.0303 -0.0371,0.0442 -0.0634,0.0722 -0.12527,0.14261 -0.1922,0.21028 l -0.002,0.004 c -0.0108,0.0126 -0.0236,0.0244 -0.0345,0.0304 -0.11372,0.116 -0.2407,0.22159 -0.37412,0.31999 -0.0717,0.0549 -0.14979,0.10541 -0.22863,0.15405 -0.0802,0.0477 -0.15988,0.0965 -0.24362,0.14033 -0.0186,0.007 -0.0374,0.015 -0.056,0.0223 -0.15228,0.0767 -0.31037,0.1458 -0.47806,0.20639 -0.0937,0.0337 -0.18925,0.0633 -0.28777,0.0923 l -0.002,0.004 c -0.2724,0.0798 -0.56228,0.1389 -0.86781,0.1827 -0.0232,0.005 -0.0465,0.009 -0.0699,0.0128 l -0.004,-0.002 c -0.0232,0.005 -0.0511,0.005 -0.0744,0.01 -0.17608,0.0217 -0.35873,0.038 -0.54406,0.0485 -0.0232,0.005 -0.0465,0.009 -0.0712,0.006 l -0.004,-0.002 c -0.0279,0.002 -0.0558,0.002 -0.083,0.003 -0.0918,0.004 -0.18251,0.008 -0.27615,0.01 l -0.004,-0.002 c -0.12077,4e-4 -0.24922,10e-4 -0.37328,-0.002 -0.048,0.002 -0.0932,-0.004 -0.1398,-0.005 -0.0804,-10e-4 -0.15792,-0.005 -0.23811,-0.01 l -0.004,-0.002 c -0.0325,-0.002 -0.065,-0.004 -0.0973,-0.006 -0.0123,-0.002 -0.0324,-0.002 -0.0449,-0.004 -0.32241,-0.0213 -0.65317,-0.0565 -0.99302,-0.10296 -0.0201,-3.3e-4 -0.037,-0.006 -0.0618,-0.009 l -0.004,-0.002 c -0.0247,-0.004 -0.0416,-0.009 -0.0659,-0.0112 -0.253,-0.0368 -0.51491,-0.0784 -0.77608,-0.12827 -0.28523,-0.0549 -0.57174,-0.11678 -0.86551,-0.18641 -0.14742,-0.0338 -0.29411,-0.0705 -0.44281,-0.10926 -0.14696,-0.0403 -0.30109,-0.08 -0.45159,-0.12214 -0.30067,-0.0845 -0.60387,-0.17552 -0.91048,-0.27361 -0.30638,-0.0979 -0.6133,-0.20303 -0.92435,-0.31434 l -0.004,-0.002 c -0.62108,-0.22259 -1.25137,-0.47115 -1.8817,-0.74347 -0.31583,-0.13631 -0.63066,-0.27658 -0.94653,-0.42441 l -0.004,-0.002 c -0.31508,-0.14723 -0.63053,-0.29953 -0.94431,-0.4581 l -0.004,-0.002 c -0.31553,-0.15641 -0.62659,-0.32386 -0.93818,-0.49247 l -0.004,-0.002 c -0.26425,-0.1414 -0.52465,-0.29024 -0.7856,-0.43957 -0.10601,-0.0594 -0.21197,-0.11901 -0.31484,-0.18299 -0.49541,-0.29374 -0.9877,-0.59558 -1.46919,-0.91041 -0.0188,-0.0122 -0.0335,-0.0203 -0.0519,-0.0317 -0.11672,-0.0764 -0.23218,-0.15454 -0.34718,-0.23242 -0.0232,-0.0155 -0.049,-0.034 -0.0735,-0.0507 -0.0494,-0.0335 -0.0995,-0.0658 -0.14885,-0.0985 -0.14684,-0.10043 -0.29477,-0.20034 -0.43911,-0.30245 -0.43414,-0.30575 -0.85701,-0.62419 -1.2686,-0.94762 -0.41049,-0.32336 -0.81056,-0.65111 -1.19537,-0.98792 -0.12701,-0.11455 -0.25755,-0.22487 -0.38146,-0.33995 -0.87606,-0.79642 -1.67025,-1.62991 -2.35356,-2.48197 -0.19524,-0.24355 -0.38385,-0.48925 -0.56036,-0.7361 -0.0882,-0.12168 -0.17244,-0.24815 -0.2549,-0.37128 -0.0827,-0.12475 -0.165,-0.2491 -0.24296,-0.3739 -0.0574,-0.0937 -0.1121,-0.18628 -0.1597,-0.28135 -0.0209,-0.0482 -0.0429,-0.0973 -0.0658,-0.14346 -0.0209,-0.0482 -0.0441,-0.0982 -0.0642,-0.14575 -0.009,-0.0265 -0.0191,-0.0606 -0.0276,-0.0868 -0.007,-0.0186 -0.0149,-0.0374 -0.0191,-0.0606 -0.0132,-0.0496 -0.0339,-0.0991 -0.0479,-0.14876 -0.0284,-0.0995 -0.0502,-0.19847 -0.0698,-0.29995 l -0.004,-0.002 c -0.17543,-0.91134 0.001,-1.89545 0.33962,-2.89127 0.41375,-1.21621 1.07223,-2.45339 1.63507,-3.59835 0.28675,-0.58344 0.54587,-1.13861 0.73806,-1.66146 0.0278,-0.0797 0.0547,-0.15806 0.0811,-0.23468 0.0492,-0.14016 0.0936,-0.28429 0.12763,-0.41933 0.0261,-0.10678 0.0516,-0.21841 0.076,-0.32884 0.0505,-0.22667 0.0961,-0.46203 0.13684,-0.70711 0.002,-0.0123 0.004,-0.0247 0.009,-0.0416 0.0112,-0.0664 0.0209,-0.13459 0.0312,-0.20266 0.0535,-0.34914 0.0978,-0.7171 0.13552,-1.09651 0.0133,-0.13113 0.0246,-0.26373 0.0365,-0.39812 0.0183,-0.2103 0.0331,-0.42939 0.0468,-0.64685 0.16738,-2.64169 0.0731,-5.8012 0.0625,-8.87057 l -18.45463,-12.71127 1.01022,-11.84703 -8.5188,-5.86764 -0.48104,7.63395 -0.0533,0.95695 -32.81724,-22.604 1.77995,-20.27599 -14.15845,-9.75213 -0.004,-0.002 0.98399,-22.61605 15.10786,10.40606 0.74127,-8.44861 2.43054,1.67411 2.51117,-3.64583 z m 34.38281,73.85362 -6.60094,-4.5466 -0.71753,8.46496 6.64131,4.57443 z"
       transform="translate(-183.06667,-34.968948)" /><path
       id="path10536"
       style="fill:#f3f3f3;fill-opacity:1;stroke-width:0.264583"
       class="cls-1"
       d="m 168.51372,505.83925 c -8.93559,1.5236 -17.63494,4.20453 -25.878,7.97522 -16.36459,24.21173 -20.80042,47.82229 -18.58233,71.09747 9.58352,7.08072 20.31023,12.46577 31.71382,15.92099 2.56775,-3.45352 4.83995,-7.11716 6.79235,-10.9523 -3.70831,-1.38501 -7.28787,-3.09392 -10.6965,-5.10666 0.89709,-0.65066 1.77478,-1.32136 2.62258,-1.97198 20.08109,9.44366 43.3264,9.44366 63.40749,0 0.85767,0.69991 1.73536,1.37061 2.62258,1.97198 -3.41521,2.016 -7.00124,3.72815 -10.71614,5.11648 1.95001,3.83336 4.22234,7.49396 6.79235,10.94248 11.41333,-3.44136 22.14871,-8.82388 31.73398,-15.91117 2.60256,-26.99172 -4.4465,-50.3853 -18.63245,-71.12692 -8.23479,-3.77009 -16.92798,-6.44474 -25.85785,-7.95559 -1.22197,2.18445 -2.32773,4.43176 -3.31246,6.73292 -9.51204,-1.43336 -19.18492,-1.43336 -28.69696,0 -0.98524,-2.30092 -2.091,-4.5482 -3.31246,-6.73292 z m 33.46979,33.41812 a 9.2524099,17.99498 0 0 1 9.25267,17.99528 9.2524099,17.99498 0 0 1 -9.25267,17.99477 9.2524099,17.99498 0 0 1 -9.25215,-17.99477 9.2524099,17.99498 0 0 1 9.25215,-17.99528 z m -31.58773,0.63407 a 9.2524099,17.99498 0 0 1 9.25215,17.99476 9.2524099,17.99498 0 0 1 -9.25215,17.99529 9.2524099,17.99498 0 0 1 -9.25267,-17.99529 9.2524099,17.99498 0 0 1 9.25267,-17.99476 z"
       transform="translate(-183.06667,-34.968948)" /></g></svg>
