<?xml version="1.0" encoding="UTF-8" standalone="no"?>
<!-- Created with Inkscape (http://www.inkscape.org/) -->

<svg
   width="630"
   height="630"
   viewBox="0 0 166.68749 166.68749"
   version="1.1"
   id="svg5"
   inkscape:version="1.2.2 (732a01da63, 2022-12-09)"
   xml:space="preserve"
   sodipodi:docname="teecord_icons.svg"
   xmlns:inkscape="http://www.inkscape.org/namespaces/inkscape"
   xmlns:sodipodi="http://sodipodi.sourceforge.net/DTD/sodipodi-0.dtd"
   xmlns="http://www.w3.org/2000/svg"
   xmlns:svg="http://www.w3.org/2000/svg"><sodipodi:namedview
     id="namedview7"
     pagecolor="#505050"
     bordercolor="#eeeeee"
     borderopacity="1"
     inkscape:showpageshadow="0"
     inkscape:pageopacity="0"
     inkscape:pagecheckerboard="0"
     inkscape:deskcolor="#505050"
     inkscape:document-units="px"
     showgrid="false"
     inkscape:zoom="0.45225371"
     inkscape:cx="-56.38428"
     inkscape:cy="2264.2158"
     inkscape:window-width="2560"
     inkscape:window-height="1377"
     inkscape:window-x="-8"
     inkscape:window-y="-8"
     inkscape:window-maximized="1"
     inkscape:current-layer="layer7" /><defs
     id="defs2"><style
       id="style299">.cls-1{fill:#5865f2;}</style><filter
       id="IC5cG2LbvxCHO5J9Z5ZPmOlXgmXxiH41"
       x="-0.02989711"
       y="-0.029720128"
       width="1.0597942"
       height="1.0594403"
       filterUnits="objectBoundingBox"
       color-interpolation-filters="sRGB"><feGaussianBlur
         stdDeviation="1.803315806392392"
         id="feGaussianBlur11872" /></filter><filter
       id="qngBIy7hOfdPzpPSFnqzQVYTaXnogEtY"
       x="-0.080960215"
       y="-0.080956006"
       width="1.1619204"
       height="1.161912"
       filterUnits="objectBoundingBox"
       color-interpolation-filters="sRGB"><feGaussianBlur
         stdDeviation="1.9321240782775628"
         id="feGaussianBlur11886" /></filter><filter
       id="GUP3En5QdfTzmvfH2HEgautxooMhWD6p"
       x="-0.030983575"
       y="-0.031699978"
       width="1.0619672"
       height="1.0634"
       filterUnits="objectBoundingBox"
       color-interpolation-filters="sRGB"><feGaussianBlur
         stdDeviation="1.803315806392392"
         id="feGaussianBlur11916" /></filter><filter
       id="WStCwIrYcgmEJZlAcFuGsACSht9iE60D"
       x="-0.084167906"
       y="-0.086056022"
       width="1.1683358"
       height="1.172112"
       filterUnits="objectBoundingBox"
       color-interpolation-filters="sRGB"><feGaussianBlur
         stdDeviation="1.9321240782775628"
         id="feGaussianBlur11930" /></filter><filter
       id="yPyYe34PJGeUQdFPYfDzxG7Sb5O3mSWp"
       x="-0.030735019"
       y="-0.031111223"
       width="1.06147"
       height="1.0622224"
       filterUnits="objectBoundingBox"
       color-interpolation-filters="sRGB"><feGaussianBlur
         stdDeviation="1.803315806392392"
         id="feGaussianBlur11960" /></filter><filter
       id="NHIvv9W3vrH8vkKNdUG0cErTVymkEEBm"
       x="-0.083480589"
       y="-0.084701621"
       width="1.1669612"
       height="1.1694032"
       filterUnits="objectBoundingBox"
       color-interpolation-filters="sRGB"><feGaussianBlur
         stdDeviation="1.9321240782775628"
         id="feGaussianBlur11974" /></filter><clipPath
       id="_clipPath_5D8HbhIfLrvTF6ShZ6rZtCfWXll5SnNC"><rect
         x="1062"
         y="358.65201"
         width="178.875"
         height="50.32"
         fill="#ef5f52"
         vector-effect="non-scaling-stroke"
         stroke-width="11"
         stroke="#000000"
         stroke-linejoin="miter"
         stroke-linecap="square"
         stroke-miterlimit="2"
         id="rect11840" /></clipPath><mask
       id="_mask_f3LRO6N4yJVYdPTwoTOjSQ7BVRXEwk3s"
       x="-200%"
       y="-200%"
       width="400%"
       height="400%"><rect
         x="-200%"
         y="-200%"
         width="400%"
         height="400%"
         style="fill:#ffffff"
         id="rect11996" /><circle
         vector-effect="non-scaling-stroke"
         cx="1084.3594"
         cy="71.15625"
         r="47.671875"
         fill="#000000"
         stroke="none"
         id="circle11998" /></mask><mask
       id="_mask_5nP0MOp4SsgsdRag4I4UyU0xdvSr9ZDF"
       x="-200%"
       y="-200%"
       width="400%"
       height="400%"><rect
         x="-200%"
         y="-200%"
         width="400%"
         height="400%"
         style="fill:#ffffff"
         id="rect12001" /><path
         d="m 1586.935,133.2 c 2.992,34.33 -22.698,64.61 -57.333,67.575 -34.635,2.965 -65.183,-22.499 -68.174,-56.829 -2.992,-34.33 22.698,-64.61 57.333,-67.575 34.635,-2.965 65.183,22.499 68.174,56.829 z"
         fill="#000000"
         stroke="none"
         id="path12003" /></mask><mask
       id="_mask_m8VN5vlGmNxYsq2wDfEHUNfoX7YQajse"
       x="-200%"
       y="-200%"
       width="400%"
       height="400%"><rect
         x="-200%"
         y="-200%"
         width="400%"
         height="400%"
         style="fill:#ffffff"
         id="rect12006" /><path
         d="m 1829.464,40.437 c 47.776,18.363 71.467,72.374 52.871,120.54 -18.596,48.165 -72.481,72.361 -120.257,53.999 -47.776,-18.363 -71.466,-72.375 -52.87,-120.54 18.596,-48.165 72.481,-72.361 120.256,-53.999 z"
         fill="#000000"
         stroke="none"
         id="path12008" /></mask><clipPath
       clipPathUnits="userSpaceOnUse"
       id="clipPath16000"><g
         id="g16004"
         style="stroke-width:0.352777"
         transform="matrix(2.8346458,0,0,2.8346458,1693.1458,-2108.402)"><rect
           width="1444.9777"
           height="722.48883"
           id="rect16002"
           x="-597.3042"
           y="743.7973"
           style="stroke-width:0.352777" /></g></clipPath><clipPath
       clipPathUnits="userSpaceOnUse"
       id="clipPath16006"><g
         id="g16010"
         style="stroke-width:0.352777"
         transform="matrix(2.8346458,0,0,2.8346458,1693.1458,-2108.402)"><rect
           width="1444.9777"
           height="722.48883"
           id="rect16008"
           x="-597.3042"
           y="743.7973"
           style="stroke-width:0.352777" /></g></clipPath><clipPath
       clipPathUnits="userSpaceOnUse"
       id="clipPath16012"><g
         id="g16016"
         style="stroke-width:0.352777"
         transform="matrix(2.8346458,0,0,2.8346458,1693.1458,-2108.402)"><rect
           width="1444.9777"
           height="722.48883"
           id="rect16014"
           x="-597.3042"
           y="743.7973"
           style="stroke-width:0.352777" /></g></clipPath><clipPath
       clipPathUnits="userSpaceOnUse"
       id="clipPath16018"><g
         id="g16022"
         style="stroke-width:0.352777"
         transform="matrix(2.8346458,0,0,2.8346458,1693.1458,-2108.402)"><rect
           width="1444.9777"
           height="722.48883"
           id="rect16020"
           x="-597.3042"
           y="743.7973"
           style="stroke-width:0.352777" /></g></clipPath><clipPath
       clipPathUnits="userSpaceOnUse"
       id="clipPath16024"><g
         id="g16028"
         style="stroke-width:0.352777"
         transform="matrix(2.8346458,0,0,2.8346458,1693.1458,-2108.402)"><rect
           width="1444.9777"
           height="722.48883"
           id="rect16026"
           x="-597.3042"
           y="743.7973"
           style="stroke-width:0.352777" /></g></clipPath><clipPath
       clipPathUnits="userSpaceOnUse"
       id="clipPath16030"><g
         id="g16034"
         style="stroke-width:0.352777"
         transform="matrix(2.8346458,0,0,2.8346458,1693.1458,-2108.402)"><rect
           width="1444.9777"
           height="722.48883"
           id="rect16032"
           x="-597.3042"
           y="743.7973"
           style="stroke-width:0.352777" /></g></clipPath><clipPath
       clipPathUnits="userSpaceOnUse"
       id="clipPath16036"><g
         id="g16040"
         style="stroke-width:0.352777"
         transform="matrix(2.8346458,0,0,2.8346458,1693.1458,-2108.402)"><rect
           width="1444.9777"
           height="722.48883"
           id="rect16038"
           x="-597.3042"
           y="743.7973"
           style="stroke-width:0.352777" /></g></clipPath><clipPath
       clipPathUnits="userSpaceOnUse"
       id="clipPath16042"><g
         id="g16046"
         style="stroke-width:0.352777"
         transform="matrix(2.8346458,0,0,2.8346458,1693.1458,-2108.402)"><rect
           width="1444.9777"
           height="722.48883"
           id="rect16044"
           x="-597.3042"
           y="743.7973"
           style="stroke-width:0.352777" /></g></clipPath><clipPath
       clipPathUnits="userSpaceOnUse"
       id="clipPath16048"><g
         id="g16052"
         style="stroke-width:0.352777"
         transform="matrix(2.8346458,0,0,2.8346458,1693.1458,-2108.402)"><rect
           width="1444.9777"
           height="722.48883"
           id="rect16050"
           x="-597.3042"
           y="743.7973"
           style="stroke-width:0.352777" /></g></clipPath><clipPath
       clipPathUnits="userSpaceOnUse"
       id="clipPath16054"><g
         id="g16058"
         style="stroke-width:0.352777"
         transform="matrix(2.8346458,0,0,2.8346458,1693.1458,-2108.402)"><rect
           width="1444.9777"
           height="722.48883"
           id="rect16056"
           x="-597.3042"
           y="743.7973"
           style="stroke-width:0.352777" /></g></clipPath><clipPath
       clipPathUnits="userSpaceOnUse"
       id="clipPath16060"><g
         id="g16064"
         style="stroke-width:0.352777"
         transform="matrix(2.8346458,0,0,2.8346458,1693.1458,-2108.402)"><rect
           width="1444.9777"
           height="722.48883"
           id="rect16062"
           x="-597.3042"
           y="743.7973"
           style="stroke-width:0.352777" /></g></clipPath><clipPath
       clipPathUnits="userSpaceOnUse"
       id="clipPath16066"><g
         id="g16070"
         style="stroke-width:0.352777"
         transform="matrix(2.8346458,0,0,2.8346458,1693.1458,-2108.402)"><rect
           width="1444.9777"
           height="722.48883"
           id="rect16068"
           x="-597.3042"
           y="743.7973"
           style="stroke-width:0.352777" /></g></clipPath><clipPath
       clipPathUnits="userSpaceOnUse"
       id="clipPath16072"><g
         id="g16076"
         style="stroke-width:0.352777"
         transform="matrix(2.8346458,0,0,2.8346458,1693.1458,-2108.402)"><rect
           width="1444.9777"
           height="722.48883"
           id="rect16074"
           x="-597.3042"
           y="743.7973"
           style="stroke-width:0.352777" /></g></clipPath><clipPath
       clipPathUnits="userSpaceOnUse"
       id="clipPath16078"><g
         id="g16082"
         style="stroke-width:0.352777"
         transform="matrix(2.8346458,0,0,2.8346458,1693.1458,-2108.402)"><rect
           width="1444.9777"
           height="722.48883"
           id="rect16080"
           x="-597.3042"
           y="743.7973"
           style="stroke-width:0.352777" /></g></clipPath><clipPath
       clipPathUnits="userSpaceOnUse"
       id="clipPath16084"><g
         id="g16088"
         style="stroke-width:0.352777"
         transform="matrix(2.8346458,0,0,2.8346458,1693.1458,-2108.402)"><rect
           width="1444.9777"
           height="722.48883"
           id="rect16086"
           x="-597.3042"
           y="743.7973"
           style="stroke-width:0.352777" /></g></clipPath><clipPath
       clipPathUnits="userSpaceOnUse"
       id="clipPath16090"><g
         id="g16094"
         style="stroke-width:0.352777"
         transform="matrix(2.8346458,0,0,2.8346458,1693.1458,-2108.402)"><rect
           width="1444.9777"
           height="722.48883"
           id="rect16092"
           x="-597.3042"
           y="743.7973"
           style="stroke-width:0.352777" /></g></clipPath><clipPath
       clipPathUnits="userSpaceOnUse"
       id="clipPath16096"><g
         id="g16100"
         style="stroke-width:0.352777"
         transform="matrix(2.8346458,0,0,2.8346458,1693.1458,-2108.402)"><rect
           width="1444.9777"
           height="722.48883"
           id="rect16098"
           x="-597.3042"
           y="743.7973"
           style="stroke-width:0.352777" /></g></clipPath><clipPath
       clipPathUnits="userSpaceOnUse"
       id="clipPath16102"><g
         id="g16106"
         style="stroke-width:0.352777"
         transform="matrix(2.8346458,0,0,2.8346458,1693.1458,-2108.402)"><rect
           width="1444.9777"
           height="722.48883"
           id="rect16104"
           x="-597.3042"
           y="743.7973"
           style="stroke-width:0.352777" /></g></clipPath><clipPath
       clipPathUnits="userSpaceOnUse"
       id="clipPath16108"><g
         id="g16112"
         style="stroke-width:0.352777"
         transform="matrix(2.8346458,0,0,2.8346458,1693.1458,-2108.402)"><rect
           width="1444.9777"
           height="722.48883"
           id="rect16110"
           x="-597.3042"
           y="743.7973"
           style="stroke-width:0.352777" /></g></clipPath><clipPath
       clipPathUnits="userSpaceOnUse"
       id="clipPath16114"><g
         id="g16118"
         style="stroke-width:0.352777"
         transform="matrix(2.8346458,0,0,2.8346458,1693.1458,-2108.402)"><rect
           width="1444.9777"
           height="722.48883"
           id="rect16116"
           x="-597.3042"
           y="743.7973"
           style="stroke-width:0.352777" /></g></clipPath><clipPath
       clipPathUnits="userSpaceOnUse"
       id="clipPath16120"><g
         id="g16124"
         style="stroke-width:0.352777"
         transform="matrix(2.8346458,0,0,2.8346458,1693.1458,-2108.402)"><rect
           width="1444.9777"
           height="722.48883"
           id="rect16122"
           x="-597.3042"
           y="743.7973"
           style="stroke-width:0.352777" /></g></clipPath><clipPath
       clipPathUnits="userSpaceOnUse"
       id="clipPath16126"><g
         id="g16130"
         style="stroke-width:0.352777"
         transform="matrix(2.8346458,0,0,2.8346458,1693.1458,-2108.402)"><rect
           width="1444.9777"
           height="722.48883"
           id="rect16128"
           x="-597.3042"
           y="743.7973"
           style="stroke-width:0.352777" /></g></clipPath><clipPath
       clipPathUnits="userSpaceOnUse"
       id="clipPath16132"><g
         id="g16136"
         style="stroke-width:0.352777"
         transform="matrix(2.8346458,0,0,2.8346458,1693.1458,-2108.402)"><rect
           width="1444.9777"
           height="722.48883"
           id="rect16134"
           x="-597.3042"
           y="743.7973"
           style="stroke-width:0.352777" /></g></clipPath><clipPath
       clipPathUnits="userSpaceOnUse"
       id="clipPath16138"><g
         id="g16142"
         style="stroke-width:0.352777"
         transform="matrix(2.8346458,0,0,2.8346458,1693.1458,-2108.402)"><rect
           width="1444.9777"
           height="722.48883"
           id="rect16140"
           x="-597.3042"
           y="743.7973"
           style="stroke-width:0.352777" /></g></clipPath><clipPath
       clipPathUnits="userSpaceOnUse"
       id="clipPath16144"><g
         id="g16148"
         style="stroke-width:0.352777"
         transform="matrix(2.8346458,0,0,2.8346458,1693.1458,-2108.402)"><rect
           width="1444.9777"
           height="722.48883"
           id="rect16146"
           x="-597.3042"
           y="743.7973"
           style="stroke-width:0.352777" /></g></clipPath><clipPath
       clipPathUnits="userSpaceOnUse"
       id="clipPath16150"><g
         id="g16154"
         style="stroke-width:0.352777"
         transform="matrix(2.8346458,0,0,2.8346458,1693.1458,-2108.402)"><rect
           width="1444.9777"
           height="722.48883"
           id="rect16152"
           x="-597.3042"
           y="743.7973"
           style="stroke-width:0.352777" /></g></clipPath><clipPath
       clipPathUnits="userSpaceOnUse"
       id="clipPath16156"><g
         id="g16160"
         style="stroke-width:0.352777"
         transform="matrix(2.8346458,0,0,2.8346458,1693.1458,-2108.402)"><rect
           width="1444.9777"
           height="722.48883"
           id="rect16158"
           x="-597.3042"
           y="743.7973"
           style="stroke-width:0.352777" /></g></clipPath><clipPath
       clipPathUnits="userSpaceOnUse"
       id="clipPath16162"><g
         id="g16166"
         style="stroke-width:0.999999"><rect
           width="1444.9777"
           height="722.48883"
           id="rect16164"
           x="-597.3042"
           y="743.7973"
           style="stroke-width:0.999999" /></g></clipPath><clipPath
       clipPathUnits="userSpaceOnUse"
       id="clipPath16168"><g
         id="g16172"
         style="stroke-width:0.999999"><rect
           width="1444.9777"
           height="722.48883"
           id="rect16170"
           x="-597.3042"
           y="743.7973"
           style="stroke-width:0.999999" /></g></clipPath><clipPath
       clipPathUnits="userSpaceOnUse"
       id="clipPath16174"><g
         id="g16178"
         style="stroke-width:0.352777"
         transform="matrix(2.8346458,0,0,2.8346458,1693.1458,-2108.402)"><rect
           width="1444.9777"
           height="722.48883"
           id="rect16176"
           x="-597.3042"
           y="743.7973"
           style="stroke-width:0.352777" /></g></clipPath><clipPath
       clipPathUnits="userSpaceOnUse"
       id="clipPath16180"><g
         id="g16184"
         style="stroke-width:0.352777"
         transform="matrix(2.8346458,0,0,2.8346458,1693.1458,-2108.402)"><rect
           width="1444.9777"
           height="722.48883"
           id="rect16182"
           x="-597.3042"
           y="743.7973"
           style="stroke-width:0.352777" /></g></clipPath><clipPath
       clipPathUnits="userSpaceOnUse"
       id="clipPath16186"><g
         id="g16190"
         style="stroke-width:0.352777"
         transform="matrix(2.8346458,0,0,2.8346458,1693.1458,-2108.402)"><rect
           width="1444.9777"
           height="722.48883"
           id="rect16188"
           x="-597.3042"
           y="743.7973"
           style="stroke-width:0.352777" /></g></clipPath><clipPath
       clipPathUnits="userSpaceOnUse"
       id="clipPath16192"><g
         id="g16196"
         style="stroke-width:0.352777"
         transform="matrix(2.8346458,0,0,2.8346458,1693.1458,-2108.402)"><rect
           width="1444.9777"
           height="722.48883"
           id="rect16194"
           x="-597.3042"
           y="743.7973"
           style="stroke-width:0.352777" /></g></clipPath><clipPath
       clipPathUnits="userSpaceOnUse"
       id="clipPath16198"><g
         id="g16202"
         style="stroke-width:0.352777"
         transform="matrix(2.8346458,0,0,2.8346458,1693.1458,-2108.402)"><rect
           width="1444.9777"
           height="722.48883"
           id="rect16200"
           x="-597.3042"
           y="743.7973"
           style="stroke-width:0.352777" /></g></clipPath><clipPath
       clipPathUnits="userSpaceOnUse"
       id="clipPath16204"><g
         id="g16208"
         style="stroke-width:0.999999"><rect
           width="1444.9777"
           height="722.48883"
           id="rect16206"
           x="-597.3042"
           y="743.7973"
           style="stroke-width:0.999999" /></g></clipPath><inkscape:path-effect
       effect="bend_path"
       id="path-effect1687"
       is_visible="true"
       lpeversion="1"
       bendpath="m 209.94683,445.43125 c -2.51355,-36.24791 2.77812,-61.85107 2.77812,-61.85107"
       prop_scale="0.056451475"
       scale_y_rel="false"
       vertical="false"
       hide_knot="false"
       bendpath-nodetypes="cc" /><clipPath
       clipPathUnits="userSpaceOnUse"
       id="clipPath6601"><rect
         ry="0.94579768"
         rx="1.065567"
         y="-4.9622116"
         x="199.7142"
         height="1.9684895"
         width="8.2418966"
         id="rect6603"
         style="opacity:1;fill:#848688;fill-opacity:1;fill-rule:evenodd;stroke:none;stroke-width:0.30692714;stroke-linecap:round;stroke-linejoin:miter;stroke-miterlimit:4;stroke-dasharray:none;stroke-opacity:0.18823529;paint-order:fill markers stroke" /></clipPath><clipPath
       clipPathUnits="userSpaceOnUse"
       id="clipPath6707"><path
         id="path6709"
         d="m 196.94659,-7.1654895 c -0.96595,0 -1.74334,0.7254638 -1.74334,1.6269171 v 3.1396446 c 0,0.9014534 0.77739,1.62691682 1.74334,1.62691682 h 4.30401 c 0.96596,0 1.74336,-0.72546342 1.74336,-1.62691682 v -3.1396446 c 0,-0.9014533 -0.7774,-1.6269171 -1.74336,-1.6269171 z m 0.33961,1.6041902 h 3.60779 c 0.41144,0 0.74259,0.3305086 0.74259,0.7411202 v 1.7028581 c 0,0.4106115 -0.33115,0.7411201 -0.74259,0.7411201 h -3.60779 c -0.41144,0 -0.74311,-0.3305086 -0.74311,-0.7411201 v -1.7028581 c 0,-0.4106116 0.33167,-0.7411202 0.74311,-0.7411202 z"
         style="opacity:1;fill:#848688;fill-opacity:1;fill-rule:evenodd;stroke:none;stroke-width:0.32837591;stroke-linecap:round;stroke-linejoin:miter;stroke-miterlimit:4;stroke-dasharray:none;stroke-opacity:1;paint-order:fill markers stroke"
         inkscape:connector-curvature="0" /></clipPath><clipPath
       clipPathUnits="userSpaceOnUse"
       id="clipPath6448"><path
         inkscape:connector-curvature="0"
         style="opacity:1;fill:#848688;fill-opacity:1;fill-rule:evenodd;stroke:#000000;stroke-width:0.2575953;stroke-linecap:round;stroke-linejoin:miter;stroke-miterlimit:4;stroke-dasharray:none;stroke-opacity:1;paint-order:fill markers stroke"
         d="m 197.26844,-6.2936121 c -0.82266,0 -1.48472,0.5241932 -1.48472,1.1755503 v 2.2685917 c 0,0.6513571 0.66206,1.1755502 1.48472,1.1755502 h 3.66548 c 0.82264,0 1.48471,-0.5241931 1.48471,-1.1755502 v -2.2685917 c 0,-0.6513571 -0.66207,-1.1755503 -1.48471,-1.1755503 z m 0.28922,1.1591286 h 3.07255 c 0.35039,0 0.63242,0.2388134 0.63242,0.5355062 v 1.2304226 c 0,0.2966929 -0.28203,0.5355062 -0.63242,0.5355062 h -3.07255 c -0.35039,0 -0.63286,-0.2388133 -0.63286,-0.5355062 v -1.2304226 c 0,-0.2966928 0.28247,-0.5355062 0.63286,-0.5355062 z"
         id="path6450" /></clipPath><clipPath
       clipPathUnits="userSpaceOnUse"
       id="clipPath4941"><path
         inkscape:connector-curvature="0"
         id="path4943"
         d="m 33.866667,4.1713597 v 1.9683571 h 3.690731 c 0.590325,0 1.065567,-0.4217088 1.065567,-0.9456791 v -0.076999 c 0,-0.5239702 -0.475242,-0.945679 -1.065567,-0.945679 z"
         style="opacity:1;fill:#848688;fill-opacity:1;fill-rule:evenodd;stroke:none;stroke-width:0.30692708;stroke-linecap:round;stroke-linejoin:miter;stroke-miterlimit:4;stroke-dasharray:none;stroke-opacity:0.18823529;paint-order:fill markers stroke" /></clipPath><clipPath
       clipPathUnits="userSpaceOnUse"
       id="clipPath4947"><path
         inkscape:connector-curvature="0"
         id="path4949"
         d="M 203.20001,-4.9619733 H 200.78 c -0.59032,0 -1.06557,0.4217088 -1.06557,0.945679 v 0.076999 c 0,0.5239703 0.47525,0.9456791 1.06557,0.9456791 h 2.42001 z"
         style="opacity:1;fill:#848688;fill-opacity:1;fill-rule:evenodd;stroke:none;stroke-width:0.30692708;stroke-linecap:round;stroke-linejoin:miter;stroke-miterlimit:4;stroke-dasharray:none;stroke-opacity:0.18823529;paint-order:fill markers stroke" /></clipPath><clipPath
       clipPathUnits="userSpaceOnUse"
       id="clipPath4977"><path
         inkscape:connector-curvature="0"
         id="path4979"
         d="m 204.31251,-4.9619733 v 1.9683571 h 2.57814 c 0.59032,0 1.06556,-0.4217088 1.06556,-0.9456791 v -0.076999 c 0,-0.5239702 -0.47524,-0.945679 -1.06556,-0.945679 z"
         style="opacity:1;fill:#848688;fill-opacity:1;fill-rule:evenodd;stroke:none;stroke-width:0.30692708;stroke-linecap:round;stroke-linejoin:miter;stroke-miterlimit:4;stroke-dasharray:none;stroke-opacity:0.18823529;paint-order:fill markers stroke" /></clipPath></defs><g
     inkscape:label="Layer 1"
     inkscape:groupmode="layer"
     id="layer1"
     transform="translate(-183.06667,-34.968948)"><rect
       style="opacity:1;fill:#566fc3;fill-opacity:1;stroke-width:0.264583;stroke-linecap:square;stroke-linejoin:round;stroke-miterlimit:60;paint-order:fill markers stroke"
       id="rect1734"
       width="166.68748"
       height="166.68748"
       x="183.06667"
       y="34.968948" /><path
       id="path315"
       style="fill:#f3f3f3;fill-opacity:1;stroke-width:0.264583"
       class="cls-1"
       d="M 248.73449 70.815853 C 239.7989 72.339458 231.09955 75.020379 222.85649 78.791077 C 206.4919 103.0028 202.05607 126.61336 204.27416 149.88854 C 213.85768 156.96926 224.58439 162.35431 235.98798 165.80953 C 238.55573 162.35601 240.82793 158.69237 242.78033 154.85723 C 239.07202 153.47222 235.49246 151.76331 232.08383 149.75057 C 232.98092 149.09991 233.85861 148.42921 234.70641 147.77859 C 254.7875 157.22225 278.03281 157.22225 298.1139 147.77859 C 298.97157 148.4785 299.84926 149.1492 300.73648 149.75057 C 297.32127 151.76657 293.73524 153.47872 290.02034 154.86705 C 291.97035 158.70041 294.24268 162.36101 296.81269 165.80953 C 308.22602 162.36817 318.9614 156.98565 328.54667 149.89836 C 331.14923 122.90664 324.10017 99.513059 309.91422 78.77144 C 301.67943 75.001349 292.98624 72.326702 284.05637 70.815853 C 282.8344 73.000307 281.72864 75.247612 280.74391 77.548775 C 271.23187 76.115414 261.55899 76.115414 252.04695 77.548775 C 251.06171 75.247849 249.95595 73.000571 248.73449 70.815853 z M 282.20428 104.23397 A 9.2524099 17.99498 0 0 1 291.45695 122.22925 A 9.2524099 17.99498 0 0 1 282.20428 140.22402 A 9.2524099 17.99498 0 0 1 272.95213 122.22925 A 9.2524099 17.99498 0 0 1 282.20428 104.23397 z M 250.61655 104.86804 A 9.2524099 17.99498 0 0 1 259.8687 122.8628 A 9.2524099 17.99498 0 0 1 250.61655 140.85809 A 9.2524099 17.99498 0 0 1 241.36388 122.8628 A 9.2524099 17.99498 0 0 1 250.61655 104.86804 z " /></g><g
     inkscape:groupmode="layer"
     id="layer2"
     inkscape:label="hammer"><rect
       style="opacity:1;fill:#5a6079;fill-opacity:1;stroke-width:0.264583;stroke-linecap:square;stroke-linejoin:round;stroke-miterlimit:60;paint-order:fill markers stroke"
       id="rect10530"
       width="166.68748"
       height="166.68748"
       x="-63.841591"
       y="469.99234"
       transform="translate(-183.06667,-34.968948)" /><path
       id="path55244"
       style="mix-blend-mode:normal;fill:#484e62;fill-opacity:1;stroke:none;stroke-width:1.5875;stroke-linecap:butt;stroke-linejoin:round;stroke-miterlimit:4;stroke-dasharray:none;stroke-opacity:1;paint-order:stroke markers fill"
       d="m -36.557003,557.15964 c 0.201925,0.20212 0.410143,0.40514 0.618604,0.60596 0.154998,0.15374 0.307358,0.30666 0.466818,0.46055 0.06744,0.0649 0.136685,0.12405 0.205376,0.18647 2.013996,1.92558 4.06254,3.66445 6.065533,5.23288 5.736346,4.8067 9.856677,6.85578 13.066593,8.98806 0.01073,0.008 0.02686,0.0142 0.03571,0.0231 0.0088,0.006 0.01861,0.0124 0.02907,0.0164 0.100075,0.0685 0.194081,0.13723 0.285657,0.20411 0.06863,0.0498 0.133914,0.10239 0.193694,0.15576 0.03252,0.0276 0.06522,0.0525 0.09761,0.0787 0.04547,0.0393 0.08948,0.0769 0.130429,0.11782 0.280477,0.26155 0.503046,0.52194 0.711177,0.76802 -6.89e-4,-0.004 -0.0026,-0.009 -0.0019,-0.0145 0.05807,0.0708 0.118125,0.13704 0.1736,0.20517 0.02308,0.0269 0.04894,0.0552 0.07042,0.0831 l 0.0016,10e-4 c 0.0052,0.006 0.0095,0.012 0.01455,0.0184 0.149149,0.17445 0.298872,0.33682 0.457579,0.48289 0.16452,0.15187 0.346489,0.28136 0.560052,0.38691 0.07171,0.0337 0.146816,0.0692 0.225143,0.0982 0.07911,0.0285 0.163738,0.0557 0.251498,0.0784 0.755024,0.19453 1.402533,0.35939 1.939679,0.4637 0.895176,0.17424 1.4789859,0.17904 1.7224918,-0.12897 0.2025182,-0.25625 0.00335,-0.70489 -0.2498235,-1.52987 l -0.00163,-10e-4 c -0.2530446,-0.82492 -0.5584063,-2.02613 -0.5681393,-3.78464 4.8599014,-5.9927 4.5067004,-7.12882 17.3100133,-20.21952 1.775922,1.91241 9.2297697,9.93289 10.8542527,11.50409 1.820747,1.76388 16.162003,16.54746 18.12479,18.77458 1.650329,1.87211 8.595867,9.29985 12.266562,13.1907 5.103436,5.40992 6.671077,8.87983 8.299096,11.43388 1.60856,2.52349 3.449581,6.28303 6.295071,6.35194 3.24491,0.0807 10.044932,-2.65011 11.136731,-6.98637 1.68e-4,-6.7e-4 0.0018,-8.9e-4 0.0018,-0.001 0.05552,-0.2206 0.09918,-0.43162 0.130613,-0.63676 0.01567,-0.1025 0.02798,-0.20262 0.03772,-0.30225 0.02879,-0.29856 0.03056,-0.58425 0.0018,-0.86368 -6.2e-5,-5.7e-4 -0.0018,-8.9e-4 -0.0018,-10e-4 -0.0097,-0.0925 -0.02144,-0.18446 -0.03764,-0.27586 -0.01621,-0.0927 -0.03729,-0.18387 -0.06048,-0.27591 -0.04623,-0.18268 -0.105377,-0.36256 -0.179524,-0.5454 -0.03622,-0.0931 -0.07802,-0.18297 -0.122404,-0.27595 -0.08847,-0.18449 -0.192028,-0.37151 -0.310182,-0.56169 -0.118138,-0.19015 -0.249847,-0.38444 -0.398562,-0.58433 -0.371419,-0.50032 -0.839171,-1.03695 -1.412215,-1.64097 -0.916163,-0.96675 -2.102897,-2.10413 -3.58788,-3.53728 -0.742219,-0.71692 -1.558429,-1.50782 -2.457321,-2.38531 -0.738335,-0.72568 -1.689304,-1.61541 -2.790185,-2.62715 -5.49e-4,-4.9e-4 -0.0011,-8.9e-4 -0.0016,-10e-4 -1.269898,-1.16695 -2.773295,-2.51736 -4.369106,-3.93814 -0.95246,-0.84752 -1.943924,-1.72338 -2.965134,-2.62202 -1.722154,-1.51614 -3.491111,-3.0652 -5.275313,-4.61566 -6.152375,-5.34746 -12.169706,-10.48614 -14.591555,-12.54414 -0.620905,-0.52735 -1.357425,-1.16281 -2.177961,-1.88098 -0.820791,-0.71783 -1.725965,-1.51744 -2.684096,-2.36751 -4.792176,-4.24937 -10.915845,-9.78058 -14.483833,-12.93271 -0.713698,-0.63029 -1.324493,-1.16652 -1.802646,-1.57707 -0.149073,-0.13017 -0.317956,-0.27999 -0.500423,-0.44981 -0.182465,-0.16983 -0.382342,-0.35706 -0.592135,-0.56058 -0.387612,-0.37496 -0.81361,-0.79471 -1.266774,-1.25413 -0.02103,-0.0214 -0.04425,-0.0467 -0.06503,-0.0687 0.168215,-0.16983 0.313291,-0.31956 0.506272,-0.51254 0.213204,-0.21269 0.448983,-0.43884 0.677651,-0.66121 0.0096,-0.01 0.02047,-0.0174 0.03005,-0.0268 0.0096,-0.01 0.01568,-0.0158 0.02531,-0.0253 0.510161,-0.48996 1.055335,-1.00225 1.598446,-1.51353 -0.0058,4.4e-4 -0.01483,0.004 -0.02087,0.004 2.729583,-2.56555 6.028661,-5.47057 9.24607,-8.22727 0.895531,-0.76725 1.777314,-1.51609 2.641719,-2.24658 l 0.0018,-10e-4 c 0.0025,-10e-4 0.0048,-10e-4 0.0079,-0.004 0.779921,-0.65923 1.355329,-1.13839 2.086595,-1.75023 0.01015,-0.009 0.01828,-0.0133 0.02843,-0.0221 0.02117,-0.0168 0.04239,-0.0335 0.06537,-0.0521 l -0.0016,-10e-4 c -6.5e-4,-10e-4 -8.75e-4,-0.003 -0.0012,-0.004 4.324556,-3.61808 7.678642,-6.33006 7.678642,-6.33006 l 3.765012,1.60986 -0.710224,-2.73803 3.445017,-0.11758 -4.672828,-2.14537 c -0.219899,-0.58578 -0.597493,-1.55101 -1.173911,-2.80337 -0.09707,-0.20954 -0.199804,-0.42542 -0.308457,-0.6516 -1.492671,-3.11355 -4.129902,-7.73835 -8.674586,-13.05679 -0.303415,-0.35402 -0.615279,-0.71259 -0.935555,-1.07268 -0.0029,-0.003 -0.0068,-0.006 -0.0098,-0.01 -2.955044,-3.32596 -6.644633,-6.88665 -11.239617,-10.48204 -0.240427,-0.18982 -0.489408,-0.37883 -0.738083,-0.5681 -0.0116,-0.01 -0.02367,-0.0174 -0.03725,-0.0247 -1.385122,-1.05337 -2.866703,-2.10759 -4.326703,-3.09562 -3.2174767,-2.33857 -6.6500398,-4.6837 -8.5129733,-5.75044 -0.033616,0.18375 0.023311,0.41573 0.1437863,0.67584 -0.1563294,-0.0736 -0.2946248,-0.13475 -0.4066262,-0.17788 -0.6463718,-0.99139 -1.44944449,-1.54612 -2.21557039,-1.82379 -0.1277433,-0.0463 -0.2556003,-0.0843 -0.3805206,-0.11576 -1.12276391,-0.28434 -2.09048721,-0.004 -2.24991031,0.30365 -0.4539856,0.87674 0.9829151,3.91854 0.9829151,3.91854 -2.6805139,4.20004 -7.5870493,11.57896 -19.5909116,23.21226 -0.305796,0.29579 -0.61592,0.59639 -0.930734,0.89793 -0.713532,0.68384 -1.438135,1.37413 -2.200922,2.08658 -2.227662,2.08068 -3.598256,3.66902 -5.164252,5.31123 -0.0018,6.2e-4 -0.0044,-6.2e-4 -0.0062,0 -0.328691,0.34509 -0.666831,0.69213 -1.020536,1.04646 -0.08009,0.0797 -0.157984,0.15923 -0.240122,0.24014 -0.123849,0.12257 -0.252419,0.24739 -0.382192,0.37216 -0.279567,0.2683 -0.563783,0.5366 -0.873538,0.81793 l -0.0018,10e-4 c -0.181028,0.16463 -0.359625,0.31979 -0.538698,0.47683 -0.0068,0.006 -0.01391,0.0111 -0.02086,0.0171 -0.184834,0.1583 -0.369054,0.3122 -0.553477,0.46857 l 0.01296,3.1e-4 c -0.178203,0.15103 -0.356538,0.30469 -0.532292,0.45064 -1.510204,1.25164 -2.932864,2.32667 -4.218904,3.54623 -0.08368,0.075 -0.167438,0.15042 -0.24831,0.22879 -0.06855,0.0673 -0.138366,0.13335 -0.207235,0.20097 -0.117522,0.11382 -0.237541,0.22626 -0.355966,0.33956 -0.290626,0.27935 -0.58247,0.55843 -0.876694,0.83436 -0.132347,0.12357 -0.264123,0.24772 -0.396652,0.37073 -0.417453,0.38714 -0.835658,0.7674 -1.252329,1.14124 -0.141859,0.12734 -0.281833,0.25529 -0.422801,0.38047 -0.207597,0.18418 -0.410052,0.35757 -0.615551,0.53715 -0.164897,0.1441 -0.331747,0.2888 -0.494764,0.4294 -0.209788,0.18073 -0.416289,0.35941 -0.622051,0.53388 -0.01703,0.0145 -0.03351,0.0298 -0.04897,0.0426 -0.327664,0.27707 -0.650479,0.54616 -0.964974,0.80492 -0.159869,0.13143 -0.319423,0.26381 -0.475114,0.39019 -0.212324,0.17187 -0.411962,0.32694 -0.61557,0.4882 -0.156687,0.12387 -0.322479,0.25822 -0.473441,0.3755 -0.193044,0.15008 -0.380897,0.29471 -0.563314,0.43268 -0.01071,0.009 -0.02086,0.0171 -0.02843,0.0221 -0.41858,0.31613 -0.807254,0.59822 -1.159221,0.84245 l -0.0018,0.001 c -0.160219,0.11098 -0.316316,0.21575 -0.46041,0.3102 l -0.0018,0.001 c -0.0038,0.002 -0.0088,0.003 -0.01258,0.006 -0.120689,0.0791 -0.234434,0.15227 -0.34293,0.21882 -0.03538,0.0215 -0.06982,0.0414 -0.104262,0.0619 -0.03156,0.0191 -0.06099,0.037 -0.08975,0.0536 -0.05373,0.0316 -0.10521,0.0622 -0.155277,0.0899 -0.108088,0.0593 -0.213007,0.11431 -0.301889,0.15496 l -3.061361,-1.77475 0.894735,2.76579 -3.476047,-0.3216 3.214791,1.36003 c 0,0 0.05404,0.13933 0.153324,0.37892 0.03538,0.086 0.05091,0.1248 0.103002,0.24644 0.05722,0.13376 0.123537,0.28846 0.200947,0.46192 7.13e-4,10e-4 0.0026,0.004 0.0031,0.007 0.103136,0.2314 0.225499,0.49973 0.365779,0.79672 0.01866,0.0376 0.04349,0.0878 0.06213,0.12725 0.127011,0.26667 0.269727,0.56105 0.426125,0.87352 0.0094,0.0221 0.02668,0.0456 0.03644,0.068 0.141734,0.28203 0.295696,0.5807 0.46217,0.89629 2.096355,3.98485 6.169542,10.57135 13.040459,17.44878 z"
       transform="translate(-183.06667,-34.968948)" /><path
       id="path10532"
       style="fill:#f3f3f3;fill-opacity:1;stroke-width:0.264583"
       class="cls-1"
       d="m 1.8262353,505.83925 c -8.9355898,1.5236 -17.6349403,4.20453 -25.8780003,7.97522 -16.36459,24.21173 -20.80042,47.82229 -18.58233,71.09747 9.58352,7.08072 20.31023,12.46577 31.71382,15.92099 2.5677505,-3.45352 4.8399505,-7.11716 6.7923505,-10.9523 -3.70831,-1.38501 -7.2878705,-3.09392 -10.6965005,-5.10666 0.89709,-0.65066 1.77478,-1.32136 2.62258,-1.97198 20.0810903,9.44366 43.3264,9.44366 63.40749,0 0.85767,0.69991 1.73536,1.37061 2.62258,1.97198 -3.41521,2.016 -7.00124,3.72815 -10.71614,5.11648 1.95001,3.83336 4.22234,7.49396 6.79235,10.94248 11.41333,-3.44136 22.14871,-8.82388 31.73398,-15.91117 2.60256,-26.99172 -4.4465,-50.3853 -18.63245,-71.12692 -8.23479,-3.77009 -16.92798,-6.44474 -25.85785,-7.95559 -1.22197,2.18445 -2.32773,4.43176 -3.31246,6.73292 -9.51204,-1.43336 -19.18492,-1.43336 -28.6969597,0 -0.98524,-2.30092 -2.091,-4.5482 -3.31246,-6.73292 z m 33.4697897,33.41812 a 9.2524099,17.99498 0 0 1 9.25267,17.99528 9.2524099,17.99498 0 0 1 -9.25267,17.99477 9.2524099,17.99498 0 0 1 -9.25215,-17.99477 9.2524099,17.99498 0 0 1 9.25215,-17.99528 z M 3.7082953,539.89144 A 9.2524099,17.99498 0 0 1 12.960445,557.8862 9.2524099,17.99498 0 0 1 3.7082953,575.88149 9.2524099,17.99498 0 0 1 -5.5443745,557.8862 9.2524099,17.99498 0 0 1 3.7082953,539.89144 Z"
       transform="translate(-183.06667,-34.968948)" /></g><g
     inkscape:groupmode="layer"
     id="layer3"
     inkscape:label="pistol"><rect
       style="opacity:1;fill:#a18b57;fill-opacity:1;stroke-width:0.264583;stroke-linecap:square;stroke-linejoin:round;stroke-miterlimit:60;paint-order:fill markers stroke"
       id="rect10534"
       width="166.68748"
       height="166.68748"
       x="102.84589"
       y="469.99234"
       transform="translate(-183.06667,-34.968948)" /><path
       id="path1343"
       style="fill:#897648;fill-opacity:1;stroke:none;stroke-width:1.5875;stroke-linecap:butt;stroke-linejoin:miter;stroke-miterlimit:4;stroke-dasharray:none;stroke-opacity:1;paint-order:stroke fill markers"
       d="m 165.90617,494.59219 -2.5112,3.64583 3.64584,2.51118 -0.74362,8.44699 7.16585,4.93573 0.29518,-3.38043 17.50756,12.05893 6.15702,-1.13464 57.11801,39.34202 -0.99831,11.85518 -7.37232,0.29755 -1.91783,-1.32096 -2.13115,25.40958 -11.65909,-8.03059 c 0.0102,0.25078 0.001,0.5223 0.0203,0.76293 l -0.002,0.004 c 0.20396,2.4572 0.58481,5.23172 0.96631,8.08832 l -0.002,0.004 c 0.0264,0.19765 0.0526,0.39856 0.0791,0.59697 0.13777,1.03717 0.27263,2.08102 0.39953,3.12395 0.0241,0.19884 0.0531,0.39685 0.0764,0.59506 l -0.002,0.004 c 0.0128,0.10834 0.0244,0.21449 0.0366,0.3225 0.1427,1.23107 0.26814,2.45312 0.36365,3.64858 0.008,0.0953 0.019,0.19259 0.0262,0.28755 l -0.002,0.004 c 0.003,0.0635 0.008,0.12878 0.0129,0.19451 0.046,0.62832 0.0842,1.24792 0.11014,1.85716 0.0285,0.67247 0.0454,1.33116 0.0444,1.97296 l -0.002,0.004 c -4.3e-4,0.32009 -0.003,0.63579 -0.0118,0.9473 l -0.002,0.004 c -0.0179,0.62288 -0.0526,1.22714 -0.10793,1.80835 -0.05,0.52492 -0.11843,1.0303 -0.20367,1.51507 -0.0158,0.0924 -0.0327,0.1853 -0.0504,0.27677 -6.9e-4,0.005 -0.005,0.011 -0.005,0.0169 -9.9e-4,0.004 -0.001,0.006 -0.005,0.011 -0.002,0.0123 -0.004,0.0246 -0.006,0.037 -0.0267,0.12722 -0.0513,0.25451 -0.0792,0.37952 -0.005,0.0169 -0.009,0.0416 -0.0137,0.0586 -0.005,0.011 -0.005,0.0169 -0.007,0.0293 -4.4e-4,0.007 -0.005,0.0169 -0.004,0.0246 -0.0204,0.0984 -0.0474,0.19156 -0.0715,0.28669 -0.0137,0.0585 -0.0302,0.11259 -0.0432,0.16998 -0.0187,0.0665 -0.0377,0.13327 -0.0564,0.19887 -0.036,0.13095 -0.0786,0.25668 -0.12,0.38261 -0.005,0.0108 -0.005,0.0169 -0.007,0.0293 -0.0218,0.0608 -0.0433,0.12186 -0.065,0.18277 -0.009,0.034 -0.0218,0.071 -0.0375,0.10362 -0.0441,0.11321 -0.085,0.22661 -0.13042,0.33682 -0.0144,0.0308 -0.0256,0.0569 -0.0337,0.0884 -0.0293,0.0719 -0.0634,0.14124 -0.0924,0.21273 -0.001,0.005 -0.005,0.0107 -0.007,0.0157 l -0.002,0.004 c -0.002,0.005 -0.001,0.006 -0.005,0.011 -0.0206,0.0399 -0.0388,0.0857 -0.0601,0.12654 -0.001,0.004 -0.001,0.006 -0.005,0.011 -0.006,0.01 -0.008,0.0209 -0.0144,0.0308 l -0.002,0.004 c -0.002,0.005 -0.001,0.006 -0.005,0.011 -0.0482,0.0995 -0.10035,0.19495 -0.15264,0.29034 -0.001,0.004 -0.004,0.005 -0.007,0.01 -0.0507,0.0931 -0.10099,0.18578 -0.15513,0.27443 -0.001,0.004 -0.004,0.005 -0.007,0.01 l -0.002,0.004 c -0.002,0.005 -0.007,0.01 -0.009,0.0138 -0.0123,0.019 -0.0234,0.038 -0.0333,0.0543 -0.001,0.004 -0.007,0.01 -0.007,0.01 -0.0673,0.1074 -0.13906,0.21168 -0.20961,0.3141 -0.026,0.0362 -0.0517,0.0673 -0.0764,0.10115 -0.0273,0.0355 -0.0559,0.0713 -0.0861,0.10534 -0.028,0.0348 -0.057,0.0751 -0.0893,0.10985 -0.0145,0.017 -0.0312,0.0394 -0.0454,0.0562 -0.0108,0.0125 -0.0249,0.0303 -0.0371,0.0442 -0.0634,0.0722 -0.12527,0.14261 -0.1922,0.21028 l -0.002,0.004 c -0.0108,0.0126 -0.0236,0.0244 -0.0345,0.0304 -0.11372,0.116 -0.2407,0.22159 -0.37412,0.31999 -0.0717,0.0549 -0.14979,0.10541 -0.22863,0.15405 -0.0802,0.0477 -0.15988,0.0965 -0.24362,0.14033 -0.0186,0.007 -0.0374,0.015 -0.056,0.0223 -0.15228,0.0767 -0.31037,0.1458 -0.47806,0.20639 -0.0937,0.0337 -0.18925,0.0633 -0.28777,0.0923 l -0.002,0.004 c -0.2724,0.0798 -0.56228,0.1389 -0.86781,0.1827 -0.0232,0.005 -0.0465,0.009 -0.0699,0.0128 l -0.004,-0.002 c -0.0232,0.005 -0.0511,0.005 -0.0744,0.01 -0.17608,0.0217 -0.35873,0.038 -0.54406,0.0485 -0.0232,0.005 -0.0465,0.009 -0.0712,0.006 l -0.004,-0.002 c -0.0279,0.002 -0.0558,0.002 -0.083,0.003 -0.0918,0.004 -0.18251,0.008 -0.27615,0.01 l -0.004,-0.002 c -0.12077,4e-4 -0.24922,0.001 -0.37328,-0.002 -0.048,0.002 -0.0932,-0.004 -0.1398,-0.005 -0.0804,-0.001 -0.15792,-0.005 -0.23811,-0.01 l -0.004,-0.002 c -0.0325,-0.002 -0.065,-0.004 -0.0973,-0.006 -0.0123,-0.002 -0.0324,-0.002 -0.0449,-0.004 -0.32241,-0.0213 -0.65317,-0.0565 -0.99302,-0.10296 -0.0201,-3.3e-4 -0.037,-0.006 -0.0618,-0.009 l -0.004,-0.002 c -0.0247,-0.004 -0.0416,-0.009 -0.0659,-0.0112 -0.253,-0.0368 -0.51491,-0.0784 -0.77608,-0.12827 -0.28523,-0.0549 -0.57174,-0.11678 -0.86551,-0.18641 -0.14742,-0.0338 -0.29411,-0.0705 -0.44281,-0.10926 -0.14696,-0.0403 -0.30109,-0.08 -0.45159,-0.12214 -0.30067,-0.0845 -0.60387,-0.17552 -0.91048,-0.27361 -0.30638,-0.0979 -0.6133,-0.20303 -0.92435,-0.31434 l -0.004,-0.002 c -0.62108,-0.22259 -1.25137,-0.47115 -1.8817,-0.74347 -0.31583,-0.13631 -0.63066,-0.27658 -0.94653,-0.42441 l -0.004,-0.002 c -0.31508,-0.14723 -0.63053,-0.29953 -0.94431,-0.4581 l -0.004,-0.002 c -0.31553,-0.15641 -0.62659,-0.32386 -0.93818,-0.49247 l -0.004,-0.002 c -0.26425,-0.1414 -0.52465,-0.29024 -0.7856,-0.43957 -0.10601,-0.0594 -0.21197,-0.11901 -0.31484,-0.18299 -0.49541,-0.29374 -0.9877,-0.59558 -1.46919,-0.91041 -0.0188,-0.0122 -0.0335,-0.0203 -0.0519,-0.0317 -0.11672,-0.0764 -0.23218,-0.15454 -0.34718,-0.23242 -0.0232,-0.0155 -0.049,-0.034 -0.0735,-0.0507 -0.0494,-0.0335 -0.0995,-0.0658 -0.14885,-0.0985 -0.14684,-0.10043 -0.29477,-0.20034 -0.43911,-0.30245 -0.43414,-0.30575 -0.85701,-0.62419 -1.2686,-0.94762 -0.41049,-0.32336 -0.81056,-0.65111 -1.19537,-0.98792 -0.12701,-0.11455 -0.25755,-0.22487 -0.38146,-0.33995 -0.87606,-0.79642 -1.67025,-1.62991 -2.35356,-2.48197 -0.19524,-0.24355 -0.38385,-0.48925 -0.56036,-0.7361 -0.0882,-0.12168 -0.17244,-0.24815 -0.2549,-0.37128 -0.0827,-0.12475 -0.165,-0.2491 -0.24296,-0.3739 -0.0574,-0.0937 -0.1121,-0.18628 -0.1597,-0.28135 -0.0209,-0.0482 -0.0429,-0.0973 -0.0658,-0.14346 -0.0209,-0.0482 -0.0441,-0.0982 -0.0642,-0.14575 -0.009,-0.0265 -0.0191,-0.0606 -0.0276,-0.0868 -0.007,-0.0186 -0.0149,-0.0374 -0.0191,-0.0606 -0.0132,-0.0496 -0.0339,-0.0991 -0.0479,-0.14876 -0.0284,-0.0995 -0.0502,-0.19847 -0.0698,-0.29995 l -0.004,-0.002 c -0.17543,-0.91134 0.001,-1.89545 0.33962,-2.89127 0.41375,-1.21621 1.07223,-2.45339 1.63507,-3.59835 0.28675,-0.58344 0.54587,-1.13861 0.73806,-1.66146 0.0278,-0.0797 0.0547,-0.15806 0.0811,-0.23468 0.0492,-0.14016 0.0936,-0.28429 0.12763,-0.41933 0.0261,-0.10678 0.0516,-0.21841 0.076,-0.32884 0.0505,-0.22667 0.0961,-0.46203 0.13684,-0.70711 0.002,-0.0123 0.004,-0.0247 0.009,-0.0416 0.0112,-0.0664 0.0209,-0.13459 0.0312,-0.20266 0.0535,-0.34914 0.0978,-0.7171 0.13552,-1.09651 0.0133,-0.13113 0.0246,-0.26373 0.0365,-0.39812 0.0183,-0.2103 0.0331,-0.42939 0.0468,-0.64685 0.16738,-2.64169 0.0731,-5.8012 0.0625,-8.87057 l -18.45463,-12.71127 1.01022,-11.84703 -8.5188,-5.86764 -0.48104,7.63395 -0.0533,0.95695 -32.81724,-22.604 1.77995,-20.27599 -14.15845,-9.75213 -0.004,-0.002 0.98399,-22.61605 15.10786,10.40606 0.74127,-8.44861 2.43054,1.67411 2.51117,-3.64583 z m 34.38281,73.85362 -6.60094,-4.5466 -0.71753,8.46496 6.64131,4.57443 z"
       transform="translate(-183.06667,-34.968948)" /><path
       id="path10536"
       style="fill:#f3f3f3;fill-opacity:1;stroke-width:0.264583"
       class="cls-1"
       d="m 168.51372,505.83925 c -8.93559,1.5236 -17.63494,4.20453 -25.878,7.97522 -16.36459,24.21173 -20.80042,47.82229 -18.58233,71.09747 9.58352,7.08072 20.31023,12.46577 31.71382,15.92099 2.56775,-3.45352 4.83995,-7.11716 6.79235,-10.9523 -3.70831,-1.38501 -7.28787,-3.09392 -10.6965,-5.10666 0.89709,-0.65066 1.77478,-1.32136 2.62258,-1.97198 20.08109,9.44366 43.3264,9.44366 63.40749,0 0.85767,0.69991 1.73536,1.37061 2.62258,1.97198 -3.41521,2.016 -7.00124,3.72815 -10.71614,5.11648 1.95001,3.83336 4.22234,7.49396 6.79235,10.94248 11.41333,-3.44136 22.14871,-8.82388 31.73398,-15.91117 2.60256,-26.99172 -4.4465,-50.3853 -18.63245,-71.12692 -8.23479,-3.77009 -16.92798,-6.44474 -25.85785,-7.95559 -1.22197,2.18445 -2.32773,4.43176 -3.31246,6.73292 -9.51204,-1.43336 -19.18492,-1.43336 -28.69696,0 -0.98524,-2.30092 -2.091,-4.5482 -3.31246,-6.73292 z m 33.46979,33.41812 a 9.2524099,17.99498 0 0 1 9.25267,17.99528 9.2524099,17.99498 0 0 1 -9.25267,17.99477 9.2524099,17.99498 0 0 1 -9.25215,-17.99477 9.2524099,17.99498 0 0 1 9.25215,-17.99528 z m -31.58773,0.63407 a 9.2524099,17.99498 0 0 1 9.25215,17.99476 9.2524099,17.99498 0 0 1 -9.25215,17.99529 9.2524099,17.99498 0 0 1 -9.25267,-17.99529 9.2524099,17.99498 0 0 1 9.25267,-17.99476 z"
       transform="translate(-183.06667,-34.968948)" /></g><g
     inkscape:groupmode="layer"
     id="layer4"
     inkscape:label="shotgun"><rect
       style="opacity:1;fill:#5f4534;fill-opacity:1;stroke-width:0.264583;stroke-linecap:square;stroke-linejoin:round;stroke-miterlimit:60;paint-order:fill markers stroke"
       id="rect10538"
       width="166.68748"
       height="166.68748"
       x="269.53336"
       y="469.99234"
       transform="translate(-183.06667,-34.968948)" /><path
       id="path3142"
       style="fill:#463226;fill-opacity:1;stroke:none;stroke-width:1.5875;stroke-linecap:butt;stroke-linejoin:miter;stroke-miterlimit:4;stroke-dasharray:none;stroke-opacity:1;paint-order:stroke fill markers"
       d="m 392.70172,568.36978 -4.10616,4.11429 -0.009,5.13476 -0.002,0.85795 c 0.75979,-0.0451 1.67296,-0.0769 2.66914,-0.0668 0.05,5.7e-4 0.0991,0.002 0.14974,0.002 0.74204,0.01 1.51448,0.0419 2.295,0.1154 0.0247,0.002 0.0514,0.006 0.0773,0.009 0.20537,0.0178 0.41155,0.0412 0.61621,0.0678 0.0691,0.009 0.13831,0.0171 0.20799,0.0262 0.16202,0.0212 0.32296,0.0461 0.48372,0.0717 0.1556,0.0238 0.3092,0.0521 0.46271,0.0809 0.13737,0.0257 0.27522,0.0519 0.41039,0.081 0.0932,0.0181 0.18477,0.0405 0.27695,0.0617 0.13683,0.0311 0.27156,0.0665 0.40548,0.10211 0.097,0.0238 0.19394,0.0503 0.28921,0.0781 0.18551,0.0543 0.36632,0.11217 0.54411,0.17404 0.0854,0.0285 0.16753,0.0625 0.25101,0.0942 0.12044,0.046 0.23892,0.0941 0.35543,0.14411 0.0758,0.0329 0.15234,0.0645 0.22578,0.099 0.17813,0.0831 0.34923,0.17049 0.51409,0.26449 0.0461,0.0269 0.0878,0.0566 0.1336,0.0832 0.13152,0.0799 0.25911,0.16217 0.3806,0.24948 0.0599,0.0443 0.12246,0.0867 0.17965,0.13317 0.0533,0.0418 0.10694,0.0833 0.15822,0.12669 0.002,0.002 0.003,0.003 0.008,0.009 0.0794,0.0678 0.15695,0.13705 0.22967,0.21002 l 13.11428,13.08835 c 0.15029,0.14994 0.28946,0.29664 0.41828,0.44072 0.0622,0.0701 0.11707,0.13632 0.17442,0.20494 0.0702,0.082 0.1416,0.16468 0.20524,0.24461 0.0486,0.06 0.0882,0.11901 0.13247,0.17852 0.0581,0.0772 0.11675,0.15582 0.16767,0.23159 1.14705,1.69441 0.71709,2.93481 -0.51753,4.27732 0.0469,0.0817 0.089,0.16168 0.12675,0.2407 0.005,0.0112 0.01,0.0225 0.0148,0.034 0.0784,0.16889 0.13683,0.33161 0.17709,0.48947 0.002,0.006 0.002,0.0169 0.005,0.0222 0.0387,0.15934 0.0599,0.31433 0.0627,0.46555 2e-4,0.003 -0.003,0.0112 -0.002,0.0138 0.004,0.38871 -0.10614,0.7559 -0.31388,1.12621 -0.003,0.006 -0.007,0.0107 -0.0118,0.016 -0.15868,0.27875 -0.37558,0.55983 -0.63435,0.85258 -0.036,0.0398 -0.0704,0.0824 -0.10744,0.12312 -0.12543,0.13742 -0.25645,0.27636 -0.40031,0.42051 -0.26194,0.2586 -0.53726,0.51109 -0.81811,0.76141 -7e-4,8e-4 -0.003,0.003 -0.003,0.003 -0.2609,0.23033 -0.53062,0.45627 -0.8062,0.67912 -0.0354,0.0274 -0.0687,0.057 -0.10401,0.0848 -0.27156,0.2172 -0.55052,0.43067 -0.8352,0.64014 -0.0318,0.0261 -0.0627,0.0471 -0.0959,0.0687 -0.27605,0.20126 -0.55817,0.39838 -0.84524,0.59198 -0.0514,0.0358 -0.10226,0.0714 -0.15527,0.10549 -0.2854,0.18959 -0.57641,0.37421 -0.87138,0.55588 -0.0495,0.0302 -0.0971,0.0622 -0.14749,0.0912 -0.30263,0.18386 -0.60919,0.36354 -0.92064,0.53875 -0.043,0.0255 -0.0857,0.0469 -0.12756,0.0713 -0.31849,0.17707 -0.64113,0.35007 -0.96783,0.51772 -0.0376,0.0202 -0.0722,0.0373 -0.10924,0.0558 -9.15558,4.66068 -21.23841,5.52601 -24.82049,-1.6764 -0.0215,-0.012 -0.0466,-0.0269 -0.0707,-0.0397 -0.06,-0.0328 -0.12064,-0.0653 -0.18072,-0.098 -0.13136,-0.0718 -0.26184,-0.14526 -0.39155,-0.22056 -0.0811,-0.0462 -0.16032,-0.0938 -0.24,-0.1415 -0.1321,-0.079 -0.26335,-0.16016 -0.3937,-0.24238 -0.0612,-0.0381 -0.12236,-0.0769 -0.18263,-0.11627 -0.38802,-0.25174 -0.76655,-0.51827 -1.13577,-0.80061 -0.047,-0.0355 -0.092,-0.0728 -0.13906,-0.10791 -0.0238,-0.0231 -0.0528,-0.0409 -0.0779,-0.0625 -0.0324,-0.0235 -0.0646,-0.0489 -0.0952,-0.0753 -0.0848,-0.0689 -0.16952,-0.13792 -0.25425,-0.2073 -0.0371,-0.0292 -0.072,-0.0602 -0.10905,-0.0898 -0.094,-0.0784 -0.18616,-0.1585 -0.27854,-0.23923 -0.0576,-0.05 -0.11378,-0.10173 -0.17162,-0.15176 -0.0364,-0.0327 -0.0734,-0.0655 -0.11066,-0.0986 -0.013,-0.0144 -0.0275,-0.0287 -0.0413,-0.0394 -0.0308,-0.029 -0.0617,-0.0576 -0.0931,-0.0852 -0.12855,-0.12063 -0.25508,-0.24309 -0.38049,-0.3681 -0.1936,-0.19321 -0.39325,-0.40411 -0.5942,-0.62409 -0.006,-0.006 -0.013,-0.0144 -0.0183,-0.0201 -0.0563,-0.0601 -0.11143,-0.12284 -0.16875,-0.18408 -0.18933,-0.20841 -0.38111,-0.42622 -0.57656,-0.6558 -0.074,-0.0856 -0.14757,-0.17868 -0.22291,-0.26659 -0.0694,-0.0849 -0.1385,-0.16537 -0.20986,-0.2517 -0.0782,-0.0933 -0.15543,-0.19361 -0.23393,-0.28985 -0.0806,-0.0999 -0.16145,-0.19968 -0.24296,-0.30277 -0.16646,-0.21007 -0.33433,-0.42796 -0.5044,-0.64971 -1.26691,-1.6512 -2.63415,-3.63293 -4.04775,-5.80811 -0.0545,-0.0814 -0.10532,-0.15967 -0.15856,-0.24271 -0.13135,-0.2024 -0.26429,-0.41585 -0.39598,-0.62178 -0.55882,-0.87275 -1.12143,-1.76924 -1.69051,-2.69365 -0.0791,-0.12879 -0.15802,-0.2556 -0.23744,-0.38502 -2.2596,-3.68827 -4.56168,-7.69166 -6.74481,-11.62758 -0.003,-0.006 -0.008,-0.0116 -0.01,-0.0171 -0.73346,-1.32251 -1.45075,-2.62838 -2.14831,-3.9144 -0.0299,-0.0538 -0.058,-0.10717 -0.0876,-0.16135 -0.32024,-0.59128 -0.6355,-1.17402 -0.94598,-1.75213 -0.005,-0.0113 -0.01,-0.0172 -0.0124,-0.0288 -0.0387,-0.0732 -0.0766,-0.14323 -0.11586,-0.21572 -0.023,-0.0418 -0.0439,-0.0787 -0.0655,-0.12152 -0.45796,-0.85424 -0.88915,-1.66595 -1.32103,-2.48127 -1.90838,-3.59837 -3.53858,-6.75648 -4.72531,-9.08678 -0.0172,0.0131 -0.0325,0.0301 -0.048,0.0442 -6.9e-4,6.4e-4 -9.5e-4,0.002 -0.002,0.002 -7.1e-4,7.9e-4 -0.002,0.002 -0.003,0.003 -0.002,0.002 -0.003,0.003 -0.006,0.006 -0.0824,0.0748 -0.16323,0.14061 -0.24512,0.21045 -0.0539,0.0461 -0.10823,0.0929 -0.16118,0.13794 -0.006,0.006 -0.0116,0.008 -0.0172,0.0131 -0.91946,0.76263 -1.76803,1.26597 -2.61564,1.42951 -9.5e-4,1.8e-4 -0.002,7.4e-4 -0.003,7.6e-4 -0.0138,0.003 -0.0275,0.002 -0.0415,0.007 -0.0594,0.011 -0.11923,0.022 -0.17862,0.0283 -0.0734,0.008 -0.14737,0.0179 -0.22084,0.0194 -9.5e-4,2e-5 -0.003,2e-4 -0.003,2e-4 -0.13163,0.005 -0.26454,0.002 -0.39742,-0.008 -0.002,-6e-5 -0.003,1.9e-4 -0.009,1.6e-4 -0.0109,2.1e-4 -0.0221,-5.6e-4 -0.0328,-0.002 -0.003,2e-4 -0.009,1.8e-4 -0.0137,-0.002 -6.8e-4,-5e-5 -9.5e-4,9e-5 -0.002,8e-5 -0.12483,-0.0114 -0.25024,-0.0337 -0.37629,-0.061 -0.003,-9.4e-4 -0.006,-9.4e-4 -0.0112,-0.003 -0.42999,-0.0959 -0.87038,-0.28327 -1.32819,-0.57165 -0.009,-0.006 -0.0108,-0.009 -0.0187,-0.0119 -0.13375,-0.0849 -0.26929,-0.17916 -0.40658,-0.28176 -0.006,-0.006 -0.013,-0.0118 -0.0213,-0.0147 -0.0239,-0.0177 -0.0491,-0.0372 -0.0732,-0.0573 -0.14035,-0.10881 -0.28222,-0.22454 -0.42681,-0.35182 -0.0185,-0.0174 -0.0369,-0.0327 -0.0562,-0.0483 -0.15302,-0.13744 -0.30984,-0.2819 -0.46858,-0.44054 -0.24118,-0.24051 -0.47598,-0.48275 -0.70556,-0.72741 -0.68962,-0.73326 -1.33206,-1.48385 -1.94994,-2.24486 -0.41195,-0.50732 -0.81221,-1.01933 -1.20882,-1.53503 -0.79818,-1.0387 -1.57862,-2.09156 -2.39337,-3.14654 -0.39922,-0.51675 -0.80644,-1.03493 -1.22883,-1.55111 -0.64197,-0.78506 -1.31856,-1.56778 -2.05032,-2.3431 -0.24361,-0.25878 -0.49364,-0.51594 -0.75078,-0.77255 l -11.82929,-11.80612 c -0.24798,-0.24742 -0.49165,-0.48292 -0.73482,-0.71011 -0.0437,-0.0413 -0.0868,-0.0836 -0.13144,-0.1235 -0.23292,-0.21676 -0.45985,-0.42793 -0.68706,-0.62947 -0.053,-0.0491 -0.10891,-0.093 -0.16139,-0.14139 -0.20201,-0.17821 -0.40359,-0.35278 -0.60164,-0.52015 -0.0185,-0.0175 -0.0392,-0.0351 -0.0592,-0.0515 -0.21617,-0.18106 -0.4282,-0.35561 -0.63966,-0.52624 -0.0525,-0.041 -0.10202,-0.0825 -0.15428,-0.12292 -0.42018,-0.33597 -0.83046,-0.64956 -1.23629,-0.95299 -0.0815,-0.0621 -0.16629,-0.12485 -0.24787,-0.18528 -0.43707,-0.32365 -0.86862,-0.63723 -1.2934,-0.94202 -0.45796,-0.32862 -0.90921,-0.65094 -1.35773,-0.97795 -4e-4,-3.1e-4 -6.6e-4,-7.3e-4 -7.8e-4,-7e-4 -0.29401,-0.21466 -0.58694,-0.43292 -0.87874,-0.65433 -0.12616,-0.095 -0.25226,-0.19127 -0.37755,-0.28865 -0.0276,-0.0205 -0.0533,-0.0415 -0.081,-0.0616 -0.0129,-0.0118 -0.0275,-0.0232 -0.0408,-0.0332 -0.20821,-0.16309 -0.41641,-0.32785 -0.62459,-0.49917 -0.19806,-0.1629 -0.39694,-0.33214 -0.59564,-0.50408 -0.0562,-0.0486 -0.11164,-0.0995 -0.16821,-0.14859 -0.15115,-0.13129 -0.30039,-0.26882 -0.45203,-0.4069 -0.0704,-0.0665 -0.1424,-0.13063 -0.21349,-0.19771 -0.0513,-0.0483 -0.10209,-0.0982 -0.15455,-0.14659 -0.14089,-0.13274 -0.28086,-0.26846 -0.42166,-0.40918 -0.25666,-0.25634 -0.49738,-0.50417 -0.72866,-0.75049 -0.0691,-0.073 -0.13454,-0.14589 -0.20213,-0.21724 -0.0519,-0.0558 -0.10583,-0.11349 -0.15711,-0.16815 -0.0635,-0.0712 -0.12467,-0.13966 -0.18631,-0.20907 -0.10144,-0.11301 -0.19975,-0.22673 -0.29335,-0.33892 -0.002,-0.002 -0.006,-0.006 -0.005,-0.009 -0.10501,-0.1242 -0.20947,-0.24838 -0.30645,-0.3699 -5.9e-4,-7.4e-4 -0.002,-9.4e-4 -0.002,-0.002 -0.11423,-0.14498 -0.22227,-0.28645 -0.32561,-0.42704 -7.6e-4,-0.002 -7.5e-4,-0.003 -0.003,-0.006 -0.0153,-0.0228 -0.0336,-0.045 -0.0505,-0.0658 -0.002,-0.002 -0.005,-0.009 -0.005,-0.0112 -0.0968,-0.13566 -0.18879,-0.26721 -0.27541,-0.39903 -7.1e-4,-7.4e-4 -7.4e-4,-0.003 -0.003,-0.006 -0.0131,-0.0224 -0.0292,-0.0448 -0.0434,-0.0666 -0.0918,-0.14308 -0.1778,-0.28458 -0.25632,-0.4242 -7.7e-4,-0.002 -0.003,-0.006 -0.002,-0.009 -0.0825,-0.14706 -0.15929,-0.29269 -0.22625,-0.43638 -4.1e-4,-8.6e-4 -5.3e-4,-0.002 -7.5e-4,-0.003 -0.0591,-0.12614 -0.10918,-0.25036 -0.15602,-0.37409 -3.2e-4,-8.9e-4 -5.7e-4,-0.002 -7.6e-4,-0.003 -0.009,-0.0281 -0.0223,-0.0541 -0.0322,-0.0823 -0.0381,-0.10725 -0.0703,-0.21384 -0.0987,-0.31892 -0.002,-0.006 -0.002,-0.0169 -0.005,-0.0222 -0.009,-0.031 -0.0137,-0.0617 -0.0232,-0.0926 -7e-5,-3.9e-4 -8.8e-4,-6.3e-4 -7.8e-4,-7e-4 -0.0248,-0.10589 -0.0465,-0.21162 -0.0615,-0.31588 -0.003,-0.0138 -0.002,-0.0248 -0.004,-0.0386 -0.002,-0.0169 -0.005,-0.031 -0.007,-0.0471 -0.0135,-0.12542 -0.0221,-0.25011 -0.0223,-0.37316 l -9e-5,-0.002 -5e-5,-0.002 c -3.1e-4,-0.12043 0.0106,-0.23895 0.0273,-0.35717 7.2e-4,-0.004 -1.9e-4,-0.003 -1.6e-4,-0.009 0.002,-0.0138 0.002,-0.0309 0.005,-0.0455 9e-5,-6.5e-4 -1.5e-4,-9.5e-4 -5e-5,-0.002 0.0191,-0.11512 0.0439,-0.22917 0.0769,-0.34224 2.6e-4,-9.3e-4 1.5e-4,-0.002 9.5e-4,-0.003 0.003,-0.0163 0.007,-0.031 0.0131,-0.0448 0.0365,-0.11788 0.0802,-0.23434 0.13317,-0.35033 9.4e-4,-0.002 7.2e-4,-0.004 9.4e-4,-0.006 9.5e-4,-0.006 0.009,-0.0108 0.0118,-0.016 0.0559,-0.1195 0.1203,-0.23963 0.19424,-0.35754 l -6.75502,-6.74165 1.02654,-1.02858 -10.8,-10.77864 9.50361,-1.29382 6.68568,6.67247 0.5133,-0.51428 -6.68572,-6.67251 2.82299,-2.82857 4.10614,-4.11424 6.68567,6.67247 2.0531,-2.05713 6.68572,6.67249 -2.05308,2.05716 5.14285,5.13266 2.05312,-2.05715 2.05711,2.05308 3.08266,-0.003 5.14286,5.13271 -1.53978,1.54283 10.79997,10.77864 2.56635,-2.57139 3.59997,3.59287 0.003,3.08266 27.25712,27.20323 0.0817,1.54125 4.5437,-0.005 z m -4.78326,17.50326 -4.44745,-0.0259 -2.00789,-2.00395 -8e-4,-7e-4 c -0.15958,0.0634 -0.338,0.13124 -0.53667,0.20207 -0.0429,0.0173 -0.0845,0.03 -0.12974,0.0453 -0.16073,0.0557 -0.32967,0.11253 -0.50769,0.16685 -0.12189,0.0383 -0.24564,0.0735 -0.37416,0.10962 -0.1295,0.0361 -0.26009,0.0708 -0.39422,0.104 -0.13099,0.0323 -0.26098,0.0604 -0.39532,0.0886 -0.15047,0.0314 -0.30112,0.0602 -0.45348,0.0847 -0.55498,0.0894 -1.11164,0.12722 -1.62658,0.0689 -0.0435,-0.005 -0.0859,-0.0125 -0.1281,-0.0174 -0.0606,-0.009 -0.12033,-0.0194 -0.17974,-0.0303 -0.0752,-0.0146 -0.1492,-0.0317 -0.22196,-0.0509 -0.0319,-0.007 -0.0635,-0.0167 -0.0946,-0.0237 -0.10006,-0.0295 -0.1967,-0.0677 -0.29007,-0.10895 -0.0136,-0.007 -0.0275,-0.0122 -0.0411,-0.0156 -0.0993,-0.0461 -0.19223,-0.0993 -0.28208,-0.15939 -0.0129,-0.0118 -0.0239,-0.0177 -0.038,-0.0266 -0.0931,-0.0659 -0.18244,-0.13797 -0.26414,-0.21931 -0.0438,-0.0438 -0.11362,-0.12899 -0.19178,-0.23378 -0.14778,-0.19189 -0.37329,-0.51917 -0.62308,-0.88839 -0.01,-0.0172 -0.0258,-0.0361 -0.0343,-0.0539 -0.0854,-0.12687 -0.19091,-0.28641 -0.28646,-0.43019 -0.0274,-0.0422 -0.0585,-0.0895 -0.0862,-0.13211 -1.04251,-1.58027 -2.54285,-3.96777 -4.12371,-6.51954 -0.88944,-1.4328 -1.77886,-2.87822 -2.62929,-4.26215 -0.0275,-0.0417 -0.038,-0.0612 -0.0636,-0.1033 -0.96815,-1.57575 -1.76213,-2.87237 -2.45846,-4.01349 l -3.58192,-3.57482 c -1.03373,0.72752 -1.84904,1.87217 -2.072,3.23124 -0.002,0.0219 -0.005,0.0416 -0.009,0.0631 -0.003,0.0113 -0.003,0.0191 -0.004,0.0292 -0.0135,0.0992 -0.0259,0.20003 -0.0305,0.30108 -0.003,0.0383 -0.009,0.0779 -0.009,0.11755 1.9e-4,0.003 2.3e-4,0.008 2e-4,0.0109 -0.006,0.0959 -0.007,0.19432 -0.003,0.29206 8e-4,0.044 0.002,0.0879 0.002,0.13235 0.005,0.089 0.0138,0.17878 0.0224,0.26883 0.006,0.0583 0.0111,0.11598 0.0194,0.17463 0.01,0.0857 0.0297,0.17182 0.0466,0.25894 0.0109,0.0616 0.022,0.1228 0.0361,0.18452 0.0232,0.0921 0.0493,0.18595 0.0766,0.279 0.0169,0.0572 0.0294,0.11299 0.0482,0.17048 5.3e-4,0.003 0.002,0.009 0.002,0.0111 0.0485,0.14661 0.1035,0.2931 0.16719,0.44137 0,0 12.29537,22.3761 16.15072,26.22379 0.15189,0.1514 0.30922,0.28932 0.46995,0.41705 0.0213,0.0175 0.0404,0.0365 0.0635,0.0513 0.15943,0.12425 0.32289,0.23495 0.49008,0.33662 0.016,0.0118 0.0314,0.0179 0.048,0.0269 l 7.8e-4,7e-4 c 0.16506,0.0981 0.33479,0.18467 0.50595,0.26274 0.0274,0.0122 0.0514,0.0244 0.0773,0.0347 0.16681,0.0724 0.33543,0.1352 0.50684,0.18935 0.0293,0.01 0.0575,0.0165 0.0862,0.0261 0.17139,0.0507 0.34481,0.0928 0.51992,0.12592 0.0349,0.008 0.0715,0.0144 0.10748,0.0188 0.17178,0.03 0.34501,0.0507 0.51985,0.0638 0.0247,0.002 0.0499,0.003 0.0753,0.006 0.18617,0.0108 0.37446,0.0161 0.56296,0.01 0.0194,3.8e-4 0.0407,-9.4e-4 0.0611,-0.003 0.20361,-0.01 0.40726,-0.0249 0.61203,-0.0529 0.003,-4.6e-4 0.006,-0.002 0.0111,-0.002 0.202,-0.0277 0.40387,-0.0607 0.60602,-0.10484 l 0.002,-8e-5 c 0.003,-5.6e-4 0.006,-0.002 0.0111,-0.002 0.003,-3.6e-4 0.009,-0.002 0.0111,-0.002 0.18831,-0.0415 0.37739,-0.0921 0.56485,-0.14797 0.0168,-0.005 0.0349,-0.009 0.0511,-0.0145 0.4142,-0.127 0.82466,-0.28787 1.22776,-0.4789 0.0111,-0.002 0.0225,-0.01 0.0358,-0.0176 4.09528,-1.96094 7.35515,-7.01554 4.82794,-10.9105 z"
       transform="translate(-183.06667,-34.968948)" /><path
       id="path10540"
       style="fill:#f3f3f3;fill-opacity:1;stroke-width:0.264583"
       class="cls-1"
       d="m 335.2012,505.83925 c -8.93559,1.5236 -17.63494,4.20453 -25.878,7.97522 -16.36459,24.21173 -20.80042,47.82229 -18.58233,71.09747 9.58352,7.08072 20.31023,12.46577 31.71382,15.92099 2.56775,-3.45352 4.83995,-7.11716 6.79235,-10.9523 -3.70831,-1.38501 -7.28787,-3.09392 -10.6965,-5.10666 0.89709,-0.65066 1.77478,-1.32136 2.62258,-1.97198 20.08109,9.44366 43.3264,9.44366 63.40749,0 0.85767,0.69991 1.73536,1.37061 2.62258,1.97198 -3.41521,2.016 -7.00124,3.72815 -10.71614,5.11648 1.95001,3.83336 4.22234,7.49396 6.79235,10.94248 11.41333,-3.44136 22.14871,-8.82388 31.73398,-15.91117 2.60256,-26.99172 -4.4465,-50.3853 -18.63245,-71.12692 -8.23479,-3.77009 -16.92798,-6.44474 -25.85785,-7.95559 -1.22197,2.18445 -2.32773,4.43176 -3.31246,6.73292 -9.51204,-1.43336 -19.18492,-1.43336 -28.69696,0 -0.98524,-2.30092 -2.091,-4.5482 -3.31246,-6.73292 z m 33.46979,33.41812 a 9.2524099,17.99498 0 0 1 9.25267,17.99528 9.2524099,17.99498 0 0 1 -9.25267,17.99477 9.2524099,17.99498 0 0 1 -9.25215,-17.99477 9.2524099,17.99498 0 0 1 9.25215,-17.99528 z m -31.58773,0.63407 a 9.2524099,17.99498 0 0 1 9.25215,17.99476 9.2524099,17.99498 0 0 1 -9.25215,17.99529 9.2524099,17.99498 0 0 1 -9.25267,-17.99529 9.2524099,17.99498 0 0 1 9.25267,-17.99476 z"
       transform="translate(-183.06667,-34.968948)" /></g><g
     inkscape:groupmode="layer"
     id="layer5"
     inkscape:label="grenade"><rect
       style="opacity:1;fill:#923541;fill-opacity:1;stroke-width:0.264583;stroke-linecap:square;stroke-linejoin:round;stroke-miterlimit:60;paint-order:fill markers stroke"
       id="rect10542"
       width="166.68748"
       height="166.68748"
       x="-63.841591"
       y="636.67981"
       transform="translate(-183.06667,-34.968948)" /><path
       id="path1606"
       style="fill:#772a34;fill-opacity:1;stroke:none;stroke-width:1.5875;stroke-linecap:butt;stroke-linejoin:miter;stroke-miterlimit:4;stroke-dasharray:none;stroke-opacity:1;paint-order:stroke fill markers"
       d="m -11.252163,663.24803 0.451531,5.5598 -0.510819,0.60114 6.0113099,5.10825 -1.53248,1.80338 15.0282911,12.77066 1.532477,-1.80339 4.207939,3.5758 2.043298,-2.40453 8.415831,7.15156 0.180624,2.22389 18.635083,15.83563 0.180625,2.22393 3.005671,2.55414 -4.597438,5.41018 -0.0013,0.17044 c 1.783789,-0.8084 4.037914,-1.38478 6.36952,-0.83103 0.0171,0.002 0.0349,0.0105 0.0529,0.0127 0.402875,0.0987 0.807923,0.23094 1.213167,0.40208 0.02194,0.011 0.04554,0.019 0.0676,0.03 0.194878,0.0842 0.389943,0.17558 0.584422,0.27832 0.01348,0.008 0.02653,0.0138 0.03878,0.0222 0.208291,0.11142 0.416957,0.23296 0.624493,0.36673 0.0027,0.002 0.0074,0.006 0.01004,0.006 0.209858,0.13583 0.418892,0.28203 0.627342,0.44196 l 29.87599,23.31739 c 0.216735,0.18417 0.423957,0.37199 0.624439,0.56194 0.02302,0.023 0.04684,0.0434 0.06885,0.0664 0.196419,0.18651 0.382473,0.37665 0.562215,0.56853 0.02362,0.023 0.04511,0.0501 0.06861,0.0739 0.17467,0.18948 0.341585,0.38105 0.500382,0.57467 0.01986,0.026 0.03909,0.0488 0.05884,0.0734 0.163195,0.20218 0.320799,0.4064 0.466185,0.61251 9.17e-4,9.6e-4 0.0015,0.003 0.0035,0.006 1.869782,2.6531 2.246925,5.6069 0.670825,8.31399 l 0.405052,0.34418 c 1.202271,1.02166 1.337708,2.68961 0.316059,3.89186 L 72.747894,777.5893 c -1.795861,2.11333 -4.245947,2.98962 -6.682497,3.03376 -0.16239,0.004 -0.324579,0.001 -0.486697,-0.004 -0.648424,-0.0172 -1.292775,-0.0908 -1.920529,-0.21455 l -0.0011,-9.5e-4 c -1.254659,-0.24804 -2.442769,-0.69269 -3.462382,-1.27429 l -0.0011,-9.6e-4 c -0.235555,-0.13447 -0.460888,-0.27771 -0.677238,-0.42603 -0.03169,-0.0226 -0.06533,-0.0439 -0.09701,-0.0668 -0.215832,-0.15198 -0.422357,-0.31038 -0.615681,-0.47466 -2.002537,-1.70172 -3.375136,-4.1448 -4.290183,-6.50073 -0.02836,-0.0731 -0.05584,-0.14573 -0.08332,-0.2183 -0.682917,-1.80967 -1.097943,-3.5529 -1.323001,-4.85074 -0.04091,-0.23555 -0.07682,-0.46594 -0.108898,-0.69508 -7.05e-4,-0.009 -0.0036,-0.0178 -0.0044,-0.0266 -0.03017,-0.21899 -0.05635,-0.43602 -0.07898,-0.64943 -0.002,-0.0238 -0.0046,-0.0481 -0.0072,-0.0725 -0.02007,-0.19822 -0.03734,-0.39378 -0.05094,-0.5872 -0.002,-0.0238 -0.0013,-0.0528 -0.0033,-0.0795 -0.01023,-0.15415 -0.0192,-0.30705 -0.0251,-0.45816 -0.002,-0.0557 -0.0042,-0.11143 -0.0059,-0.16657 -0.01162,-0.40048 -0.0091,-0.78961 0.0077,-1.17017 -9.94e-4,-0.0119 0.0022,-0.0269 0.0033,-0.0363 0.01816,-0.38742 0.05049,-0.76461 0.0971,-1.13263 2.11e-4,-0.003 0.0017,-0.006 0.0031,-0.012 0.193313,-1.51523 0.621396,-2.87157 1.243713,-4.10706 l -3.73143,-13.25417 c -0.111969,-0.37492 -0.226145,-0.72279 -0.34177,-1.05874 -0.01714,-0.0539 -0.03701,-0.10412 -0.05541,-0.15618 -0.01244,-0.0341 -0.02466,-0.07 -0.0368,-0.10412 -0.231471,-0.64673 -0.470976,-1.21954 -0.719481,-1.72544 -0.03418,-0.0693 -0.06849,-0.13774 -0.102936,-0.20495 -0.330461,-0.64234 -0.675908,-1.17669 -1.042171,-1.60742 -0.01944,-0.0231 -0.04146,-0.0469 -0.06078,-0.0712 -3.28e-4,-3.7e-4 -0.002,-0.002 -0.0023,-0.002 -0.137044,-0.15611 -0.276953,-0.29913 -0.419627,-0.42938 -0.0087,-0.009 -0.0195,-0.0171 -0.0294,-0.0256 l -0.0011,-9.5e-4 c -0.01109,-0.009 -0.02201,-0.02 -0.03193,-0.0291 -0.0023,-0.002 -0.0068,-0.006 -0.009,-0.009 -0.153025,-0.13397 -0.30911,-0.25499 -0.468229,-0.36269 -0.0025,-0.002 -0.0052,-0.003 -0.008,-0.006 l -0.0011,-9.5e-4 c -0.0017,-9.3e-4 -0.003,-8.8e-4 -0.0055,-0.003 -0.08247,-0.0545 -0.16358,-0.10757 -0.248611,-0.15452 l -0.0011,-9.5e-4 c -0.07622,-0.0452 -0.156388,-0.0843 -0.235061,-0.12315 -0.02653,-0.0138 -0.05367,-0.0246 -0.07916,-0.04 -0.0055,-0.003 -0.01097,-0.006 -0.01765,-0.008 -0.01097,-0.006 -0.01973,-0.008 -0.03055,-0.0137 -0.06065,-0.0279 -0.122359,-0.0534 -0.18462,-0.0778 l -0.0011,-9.6e-4 c -0.186385,-0.0735 -0.377552,-0.13371 -0.573256,-0.18209 l -0.0022,1.8e-4 c -0.0064,-0.002 -0.01711,-0.002 -0.02378,-0.005 -0.171056,-0.041 -0.347572,-0.0711 -0.525796,-0.0951 -0.03737,-0.004 -0.07416,-0.009 -0.111524,-0.0133 -0.18747,-0.0221 -0.376977,-0.0371 -0.572881,-0.0419 l -0.0022,1.8e-4 c -0.0033,-8e-5 -0.0064,-0.002 -0.0108,-0.002 -0.0083,7e-4 -0.0191,-2.2e-4 -0.02745,1.3e-4 -0.182863,-0.004 -0.369491,2.5e-4 -0.560008,0.008 -0.02112,0.002 -0.04291,0.003 -0.06414,0.005 -0.0022,1.5e-4 -0.0042,3.5e-4 -0.0083,7e-4 -0.02328,-4e-5 -0.04566,0.003 -0.06837,0.005 -0.175341,0.0102 -0.354465,0.0236 -0.536475,0.0429 l -0.0011,-9.5e-4 c -0.02945,0.002 -0.05648,0.005 -0.08579,0.01 -0.03365,0.002 -0.06884,0.009 -0.102765,0.0132 -0.0083,6.7e-4 -0.01249,0.001 -0.02112,0.002 -0.0015,1.8e-4 -0.0029,1.8e-4 -0.0042,3.5e-4 -0.184952,0.0225 -0.373443,0.0482 -0.565355,0.0775 l -0.0022,1.8e-4 c -0.01249,0.001 -0.02282,0.004 -0.03557,0.004 -0.0083,6.7e-4 -0.01447,0.004 -0.02282,0.004 -0.0025,4e-4 -0.0042,3.5e-4 -0.0083,6.7e-4 -0.0062,0.002 -0.01249,0.001 -0.01864,0.004 -0.234542,0.0364 -0.472972,0.0767 -0.718105,0.12163 l -0.105784,9.12795 -0.01129,0.92459 -7.227716,0.58711 -7.093824,-6.02814 -7.212079,2.15322 -21.5612334,-26.60404 -8.6166286,-7.32218 1.0216585,-1.20228 1.5324764,-1.80338 -15.0282869,-12.77066 -1.5235,1.79285 -1.030636,1.21284 -13.224894,-11.23817 1.532478,-1.80342 -10.820374,-9.19486 25.273096,-12.6858 2.404542,2.04331 1.53248,-1.80338 1.803395,1.53247 3.064957,-3.6068 z"
       transform="translate(-183.06667,-34.968948)" /><path
       id="path10544"
       style="fill:#f3f3f3;fill-opacity:1;stroke-width:0.264583"
       class="cls-1"
       d="m 1.8262353,672.52675 c -8.9355898,1.5236 -17.6349403,4.20453 -25.8780003,7.97522 -16.36459,24.21173 -20.80042,47.82229 -18.58233,71.09747 9.58352,7.08072 20.31023,12.46577 31.71382,15.92099 2.5677505,-3.45352 4.8399505,-7.11716 6.7923505,-10.9523 -3.70831,-1.38501 -7.2878705,-3.09392 -10.6965005,-5.10666 0.89709,-0.65066 1.77478,-1.32136 2.62258,-1.97198 20.0810903,9.44366 43.3264,9.44366 63.40749,0 0.85767,0.69991 1.73536,1.37061 2.62258,1.97198 -3.41521,2.016 -7.00124,3.72815 -10.71614,5.11648 1.95001,3.83336 4.22234,7.49396 6.79235,10.94248 11.41333,-3.44136 22.14871,-8.82388 31.73398,-15.91117 2.60256,-26.99172 -4.4465,-50.3853 -18.63245,-71.12692 -8.23479,-3.77009 -16.92798,-6.44474 -25.85785,-7.95559 -1.22197,2.18445 -2.32773,4.43176 -3.31246,6.73292 -9.51204,-1.43336 -19.18492,-1.43336 -28.6969597,0 -0.98524,-2.30092 -2.091,-4.5482 -3.31246,-6.73292 z m 33.4697897,33.41812 a 9.2524099,17.99498 0 0 1 9.25267,17.99528 9.2524099,17.99498 0 0 1 -9.25267,17.99477 9.2524099,17.99498 0 0 1 -9.25215,-17.99477 9.2524099,17.99498 0 0 1 9.25215,-17.99528 z M 3.7082953,706.57894 A 9.2524099,17.99498 0 0 1 12.960445,724.5737 9.2524099,17.99498 0 0 1 3.7082953,742.56899 9.2524099,17.99498 0 0 1 -5.5443745,724.5737 9.2524099,17.99498 0 0 1 3.7082953,706.57894 Z"
       transform="translate(-183.06667,-34.968948)" /></g><g
     inkscape:groupmode="layer"
     id="layer6"
     inkscape:label="rifle"><rect
       style="opacity:1;fill:#566fc3;fill-opacity:1;stroke-width:0.264583;stroke-linecap:square;stroke-linejoin:round;stroke-miterlimit:60;paint-order:fill markers stroke"
       id="rect10546"
       width="166.68748"
       height="166.68748"
       x="102.84589"
       y="636.67981"
       transform="translate(-183.06667,-34.968948)" /><path
       id="path1583"
       style="fill:#3b54a6;fill-opacity:1;stroke:none;stroke-width:1.5875;stroke-linecap:butt;stroke-linejoin:miter;stroke-miterlimit:4;stroke-dasharray:none;stroke-opacity:1;paint-order:stroke fill markers"
       d="m 218.3947,707.23869 -2.00439,8.61217 4.5997,4.30458 -8.24838,8.81389 -1.81903,1.94376 c 1e-4,0.004 0.003,0.0102 0.003,0.0144 0.004,0.0118 0.007,0.0264 0.009,0.0405 0.0645,0.25936 0.12623,0.54389 0.18569,0.84568 0.0111,0.056 0.0223,0.10881 0.0329,0.16601 2.8e-4,0.009 0.004,0.0164 0.004,0.0244 0.0522,0.27758 0.0998,0.57659 0.14685,0.88502 0.0157,0.10352 0.0331,0.20263 0.0485,0.30943 0.0476,0.33549 0.0913,0.68838 0.13211,1.05397 0.0113,0.10013 0.0215,0.20017 0.0324,0.3026 0.0375,0.35936 0.0714,0.73121 0.1016,1.11502 0.011,0.14073 0.0208,0.28272 0.0309,0.42657 0.0268,0.38428 0.0502,0.77834 0.0689,1.18276 0.006,0.11738 0.0101,0.23535 0.0149,0.35397 0.0177,0.45024 0.0303,0.90833 0.0372,1.37863 9.5e-4,0.0946 0.002,0.19037 0.003,0.28555 0.005,0.48213 0.006,0.97005 -0.002,1.46896 2.9e-4,0.009 6.9e-4,0.0205 0.001,0.0287 -0.001,0.0797 -0.004,0.16047 -0.005,0.24041 -0.0101,0.50154 -0.0264,1.01035 -0.0501,1.52446 -8.1e-4,0.0437 -0.001,0.0841 -0.004,0.12689 1.1e-4,0.004 -0.002,0.0108 -0.001,0.0145 -10e-4,0.0308 -0.003,0.0602 -0.004,0.0902 -0.0259,0.51314 -0.0612,1.03158 -0.10173,1.5534 -0.007,0.0961 -0.0132,0.1913 -0.0215,0.2876 -0.0451,0.54526 -0.0999,1.09447 -0.16249,1.64447 -0.009,0.0814 -0.0185,0.16254 -0.028,0.24418 -0.0625,0.52779 -0.13451,1.05581 -0.21416,1.58378 -0.0198,0.13131 -0.04,0.2622 -0.0611,0.39354 -0.0918,0.57642 -0.19187,1.15193 -0.30575,1.72322 -5.8e-4,0.002 1e-4,0.004 2.7e-4,0.009 -0.062,0.31063 -0.12789,0.62002 -0.19674,0.92818 -0.0686,0.30758 -0.1414,0.6129 -0.21726,0.91731 -0.002,0.006 -0.003,0.01 -0.004,0.0166 -0.0701,0.28121 -0.14357,0.56132 -0.2199,0.83911 -0.0114,0.0376 -0.0212,0.0769 -0.032,0.11509 -0.0758,0.27199 -0.15385,0.54181 -0.23573,0.81005 -0.007,0.029 -0.0183,0.0577 -0.0266,0.0877 -0.086,0.27907 -0.17592,0.55563 -0.26869,0.82993 -0.004,0.0127 -0.01,0.0269 -0.014,0.0404 -0.0951,0.28 -0.19368,0.55684 -0.29632,0.83104 -0.005,0.012 -0.009,0.0229 -0.0139,0.0361 -0.0972,0.25939 -0.19824,0.51808 -0.30237,0.77184 -0.005,0.012 -0.009,0.0229 -0.013,0.035 -0.009,0.0229 -0.0208,0.0476 -0.0309,0.0713 -0.10888,0.2616 -0.22093,0.51944 -0.33719,0.77414 l 10.07085,9.42468 c 0.12155,-0.16374 0.24487,-0.32898 0.37112,-0.49266 5.3e-4,-6.9e-4 9.5e-4,-8.3e-4 0.002,-0.002 0.12976,-0.16834 0.2618,-0.33611 0.39592,-0.50392 5.8e-4,-6.9e-4 9.5e-4,-8.3e-4 0.002,-0.002 0.13407,-0.16866 0.26958,-0.33598 0.40757,-0.50335 l 0.001,-0.002 c 0.13714,-0.16777 0.278,-0.33522 0.41958,-0.50082 5.6e-4,-6.8e-4 0.001,-0.002 0.002,-0.002 0.14007,-0.1666 0.28262,-0.33168 0.42544,-0.49692 5.9e-4,-6.8e-4 0.001,-0.002 0.002,-0.002 0.14283,-0.16563 0.28784,-0.32881 0.43293,-0.4923 5.8e-4,-6.5e-4 0.001,-0.002 0.002,-0.002 0.14497,-0.16401 0.28999,-0.32678 0.43716,-0.48834 l 10e-4,-0.002 c 0.13333,-0.14637 0.26541,-0.29271 0.39814,-0.43845 -0.007,-0.009 -0.0178,-0.0192 -0.0254,-0.0275 -0.0605,-0.0688 -0.11844,-0.1386 -0.17751,-0.20889 -0.0513,-0.0601 -0.10049,-0.12181 -0.14982,-0.18345 -0.18004,-0.22357 -0.35354,-0.4522 -0.51486,-0.68438 -0.0504,-0.0749 -0.10114,-0.14778 -0.15007,-0.22257 -0.28299,-0.43131 -0.52418,-0.87584 -0.70847,-1.3246 -0.006,-0.0144 -0.0135,-0.0325 -0.021,-0.0474 -6.8e-4,-0.002 -7e-4,-0.003 -0.004,-0.006 -0.0574,-0.14327 -0.10844,-0.2878 -0.15307,-0.43184 -0.004,-0.006 -0.004,-0.0125 -0.007,-0.0184 -0.004,-0.006 -0.004,-0.0125 -0.005,-0.0202 -0.0927,-0.30756 -0.15551,-0.61643 -0.18111,-0.92502 2e-5,-7.8e-4 -6e-5,-8.9e-4 -5e-5,-0.003 -0.013,-0.15642 -0.0159,-0.31339 -0.009,-0.46936 -6e-5,-9e-4 -5e-5,-0.003 -1.1e-4,-0.004 -1.1e-4,-0.004 -2.8e-4,-0.009 0.001,-0.0145 0.007,-0.15302 0.0246,-0.30452 0.0524,-0.45674 5.8e-4,-0.004 0.002,-0.006 0.002,-0.0108 0.0281,-0.15244 0.0673,-0.30489 0.11713,-0.45561 0.051,-0.15361 0.11292,-0.30578 0.18798,-0.45713 7.8e-4,-0.002 0.001,-0.003 0.003,-0.006 8.3e-4,-0.002 0.001,-0.003 0.002,-0.005 0.0726,-0.1449 0.15792,-0.28904 0.25435,-0.43148 0.005,-0.007 0.008,-0.0124 0.0114,-0.0211 0.002,-0.003 0.003,-0.004 0.005,-0.008 0.1,-0.14503 0.2114,-0.28814 0.33711,-0.43015 5.8e-4,-6.6e-4 0.001,-0.002 0.002,-0.002 5.9e-4,-6.6e-4 0.001,-0.002 0.002,-0.002 0.12874,-0.14669 0.27349,-0.2911 0.43269,-0.43267 0.92311,-0.82756 1.81284,-1.63046 2.67301,-2.39444 0.43002,-0.38204 0.85287,-0.75336 1.26765,-1.11398 0.41522,-0.36062 0.82378,-0.71041 1.22466,-1.046 0.40065,-0.33542 0.79381,-0.65721 1.1807,-0.96388 0.38689,-0.30666 0.7669,-0.59836 1.1403,-0.87284 0.37363,-0.27427 0.74065,-0.53135 1.10133,-0.76978 0.36089,-0.23823 0.71547,-0.457 1.06395,-0.65533 0.17424,-0.0994 0.3474,-0.19417 0.51872,-0.28277 0.17136,-0.0886 0.3408,-0.17102 0.50922,-0.24847 0.16859,-0.0777 0.33537,-0.14954 0.50067,-0.21564 0.1657,-0.0661 0.32979,-0.12662 0.49242,-0.18054 0.16267,-0.0539 0.32407,-0.10145 0.48426,-0.14301 0.16003,-0.0413 0.31937,-0.0761 0.47692,-0.10468 0.15735,-0.0283 0.31262,-0.0511 0.46759,-0.0663 0.15492,-0.0152 0.30902,-0.0236 0.46153,-0.0248 0.1523,-10e-4 0.3024,0.005 0.45259,0.0176 0.14988,0.0136 0.29983,0.0325 0.44742,0.0604 0.1475,0.0279 0.29311,0.0642 0.43849,0.10711 0.14517,0.0431 0.28939,0.094 0.43245,0.15298 0.14322,0.0588 0.28593,0.12568 0.4269,0.20051 0.14068,0.075 0.28001,0.15702 0.41865,0.2487 0.13937,0.0909 0.27655,0.19178 0.41314,0.30061 0.13691,0.10829 0.27413,0.22486 0.40893,0.35101 l 1.06584,0.99744 c 0.25704,0.0697 0.5165,0.16308 0.77962,0.27891 0.13136,0.0578 0.26387,0.12128 0.39685,0.19101 0.13086,0.069 0.2629,0.14223 0.39571,0.22287 0.003,0.002 0.005,0.004 0.008,0.005 0.005,0.004 0.01,0.007 0.0145,0.01 0.2633,0.16124 0.53127,0.34654 0.80256,0.55643 0.002,0.001 0.002,0.002 0.004,0.004 6.5e-4,6.1e-4 0.002,10e-4 0.002,0.002 0.13929,0.10654 0.27799,0.22005 0.41865,0.34061 0.14176,0.12047 0.28447,0.24635 0.42817,0.38084 l 5.01687,4.69498 c 0.18533,0.17344 0.35632,0.34199 0.51953,0.50203 6.6e-4,6.1e-4 0.002,10e-4 0.002,0.002 0.002,0.002 0.005,0.004 0.007,0.005 0.15896,0.16095 0.31004,0.31391 0.44623,0.46439 0.13696,0.14804 0.26038,0.29205 0.37504,0.43103 0.006,0.006 0.0115,0.0132 0.0172,0.0197 0.1091,0.13377 0.20889,0.2625 0.29859,0.38798 0.004,0.004 0.007,0.01 0.009,0.0119 0.004,0.004 0.005,0.007 0.009,0.0119 0.0902,0.12767 0.17069,0.25245 0.24094,0.37295 0.0729,0.12494 0.13575,0.24632 0.18781,0.36405 0.0521,0.11805 0.0937,0.23319 0.12564,0.34512 0.0321,0.11195 0.0534,0.22081 0.0659,0.32809 0.0124,0.1071 0.0151,0.21186 0.008,0.31507 -0.007,0.1032 -0.0212,0.20488 -0.0458,0.3052 -0.025,0.10033 -0.0587,0.19833 -0.1014,0.29637 -0.0381,0.088 -0.0845,0.17666 -0.13622,0.26378 -0.0152,0.0254 -0.0303,0.0494 -0.0456,0.0742 -0.0533,0.0824 -0.10896,0.16601 -0.17378,0.24922 -0.0756,0.0977 -0.15899,0.19529 -0.25095,0.29355 -0.0917,0.0985 -0.19002,0.19914 -0.29873,0.29799 -0.10658,0.10086 -0.22118,0.20249 -0.34353,0.30563 -0.24273,0.20729 -0.5139,0.42245 -0.81132,0.64795 -0.28445,0.21581 -0.59454,0.44173 -0.92447,0.68119 -0.0138,0.0108 -0.0281,0.0208 -0.0442,0.0303 -4.6e-4,3.6e-4 -5.3e-4,7.3e-4 -0.001,0.002 -0.34672,0.2515 -0.71588,0.51846 -1.10675,0.80395 -4.6e-4,3.6e-4 -5e-4,7.2e-4 -0.001,0.002 -0.33708,0.24626 -0.69807,0.51253 -1.06484,0.78966 -0.0971,0.0741 -0.19495,0.14856 -0.29421,0.22454 -0.39444,0.30157 -0.79866,0.61581 -1.22099,0.95906 -0.43306,0.35183 -0.88345,0.73266 -1.34233,1.13449 -0.0757,0.0679 -0.15284,0.13363 -0.2302,0.20236 -0.20593,0.18189 -0.41069,0.36684 -0.62055,0.5601 -0.25436,0.23368 -0.51109,0.47623 -0.77056,0.72732 -0.25869,0.25103 -0.52223,0.51103 -0.78692,0.77942 -4e-4,4.1e-4 -5.7e-4,6.4e-4 -10e-4,0.002 -0.26439,0.26948 -0.53111,0.54629 -0.80067,0.83433 -0.16532,0.17666 -0.3267,0.35821 -0.48813,0.53853 -0.0825,0.0921 -0.1626,0.18677 -0.2451,0.27882 -0.15844,0.18233 -0.3172,0.36434 -0.47181,0.54986 -0.24031,0.28646 -0.46622,0.58124 -0.69696,0.87389 3.7e-4,3.4e-4 8.4e-4,4.1e-4 0.002,10e-4 -3.51009,4.45642 -6.01445,9.42632 -8.75981,11.00424 -0.0707,0.0418 -0.14276,0.0788 -0.21426,0.11503 -0.003,0.002 -0.004,0.003 -0.009,0.006 -0.21531,0.10848 -0.4325,0.1966 -0.65161,0.26069 -0.003,7e-4 -0.008,0.004 -0.0125,0.004 -0.0164,0.004 -0.0325,0.009 -0.0474,0.0126 -0.0485,0.0137 -0.0979,0.0258 -0.14703,0.0368 -0.0244,0.004 -0.0509,0.0111 -0.0766,0.0163 -0.0543,0.0106 -0.10849,0.0199 -0.1631,0.0277 -0.006,0.004 -0.0107,0.002 -0.0183,0.003 -0.009,2.8e-4 -0.0184,0.003 -0.0265,0.002 -0.0509,0.007 -0.10247,0.0117 -0.15388,0.0157 -0.0306,0.003 -0.0617,0.004 -0.0928,0.005 -0.0408,0.001 -0.081,0.003 -0.12176,0.003 -0.0205,6.9e-4 -0.0421,0.002 -0.0633,0.002 -0.0101,-0.003 -0.0226,-10e-4 -0.0329,-0.003 -0.0391,-5.1e-4 -0.0784,-0.003 -0.11772,-0.006 -0.0405,-0.002 -0.0812,-0.005 -0.12198,-0.01 -0.0247,-0.004 -0.0509,-0.007 -0.0765,-0.01 -0.0399,-0.006 -0.0798,-0.009 -0.12016,-0.0157 -0.006,-0.002 -0.01,-0.003 -0.0166,-0.004 -0.0166,-0.004 -0.0354,-0.009 -0.0546,-0.0115 -0.12553,-0.0243 -0.25225,-0.0549 -0.38003,-0.0951 -0.002,-8.1e-4 -0.003,-10e-4 -0.006,-0.003 -0.009,-0.005 -0.0166,-0.004 -0.0227,-0.005 -4.9e-4,-7e-5 -4.5e-4,-8.2e-4 -0.002,-10e-4 -0.006,-0.002 -0.0103,-0.006 -0.0148,-0.005 -0.15609,-0.0517 -0.31405,-0.11475 -0.47394,-0.19182 -0.0331,-0.0151 -0.0656,-0.0337 -0.0981,-0.0506 -0.034,-0.0161 -0.0667,-0.0346 -0.10004,-0.0528 -0.0379,-0.0197 -0.0747,-0.0422 -0.11206,-0.064 -0.0371,-0.0225 -0.076,-0.0434 -0.11359,-0.0667 -0.0259,-0.0159 -0.0522,-0.0289 -0.0782,-0.0455 -0.10752,-0.0689 -0.21635,-0.14496 -0.32588,-0.22528 -0.01,-0.007 -0.0188,-0.0138 -0.0297,-0.0207 -0.0522,-0.0366 -0.10206,-0.0756 -0.15355,-0.11592 -0.003,-0.002 -0.004,-0.004 -0.007,-0.005 -3.5e-4,-3.4e-4 -6.4e-4,-6.2e-4 -0.002,-10e-4 -0.17467,-0.13569 -0.34906,-0.28706 -0.52756,-0.45412 l -5.62074,-5.26011 c -0.13589,-0.12716 -0.26151,-0.25691 -0.37953,-0.38684 -0.002,-0.002 -0.004,-0.005 -0.005,-0.007 -0.009,-0.0112 -0.0192,-0.0218 -0.0264,-0.0333 -0.10965,-0.12639 -0.21156,-0.25393 -0.30476,-0.38353 -0.006,-0.009 -0.0126,-0.0204 -0.019,-0.03 -0.19537,-0.27642 -0.35342,-0.56067 -0.47696,-0.85188 -0.20258,-0.47817 -0.31342,-0.9763 -0.34233,-1.48817 -0.004,-0.0762 -0.008,-0.15227 -0.009,-0.22926 l 0.001,-0.002 c -8.1e-4,-0.0498 4.3e-4,-0.10034 0.002,-0.15012 L 202.0481,760.11184 c -0.61376,0.22873 -1.20605,0.16955 -1.76661,-0.0494 -0.003,-0.001 -0.006,-0.002 -0.0108,-0.002 -0.29785,-0.11742 -0.58757,-0.27992 -0.86523,-0.46762 l -0.002,-10e-4 c -0.15692,-0.10638 -0.31014,-0.22129 -0.45985,-0.34043 -0.0493,-0.0388 -0.0969,-0.0785 -0.14641,-0.11716 -0.007,-0.005 -0.0154,-0.0132 -0.023,-0.019 -0.002,-0.002 -0.005,-0.004 -0.008,-0.005 -0.002,-10e-4 -0.002,-0.002 -0.004,-0.004 -0.0448,-0.0381 -0.0894,-0.0752 -0.13394,-0.11315 -0.0586,-0.0513 -0.1171,-0.10101 -0.17534,-0.15192 -0.0108,-0.01 -0.0196,-0.0171 -0.0308,-0.0264 -0.04,-0.0361 -0.0789,-0.0715 -0.11868,-0.10743 -0.0171,-0.0156 -0.0331,-0.0313 -0.0503,-0.0471 -0.007,-0.005 -0.0106,-0.01 -0.0169,-0.0158 -0.12441,-0.114 -0.24644,-0.22698 -0.36329,-0.33633 l -3.91387,-3.66276 c -0.24463,-0.22893 -0.48096,-0.44891 -0.70767,-0.66226 -0.22688,-0.21312 -0.44425,-0.4194 -0.65206,-0.61874 -0.41618,-0.398 -0.79517,-0.76792 -1.13214,-1.11703 -0.16899,-0.17396 -0.32824,-0.34287 -0.47608,-0.50693 -0.14876,-0.16296 -0.28417,-0.32346 -0.41051,-0.47848 -0.12694,-0.1545 -0.24228,-0.30556 -0.34635,-0.45296 -0.10379,-0.14746 -0.19591,-0.2919 -0.27663,-0.43329 -0.0808,-0.14108 -0.15054,-0.27882 -0.20744,-0.41533 -0.0571,-0.13631 -0.10174,-0.27121 -0.13417,-0.40383 -0.0322,-0.13287 -0.0525,-0.26324 -0.0596,-0.39385 -0.007,-0.13063 -0.001,-0.26125 0.0181,-0.39104 0.0191,-0.12961 0.0503,-0.25927 0.0962,-0.3896 0.0456,-0.13012 0.10605,-0.2611 0.17965,-0.39316 0.0732,-0.13204 0.15997,-0.26494 0.26175,-0.4 0.10245,-0.13484 0.21908,-0.27224 0.35,-0.41214 l 1.56967,-1.67728 c 0.11469,-0.12256 0.21954,-0.24762 0.3257,-0.37343 l -4.13879,-8.43936 c 0.14241,-0.23696 0.27605,-0.475 0.40467,-0.71496 0.0266,-0.0496 0.0526,-0.0998 0.0787,-0.14961 0.005,-0.009 0.009,-0.0191 0.0133,-0.0272 0.0784,-0.15026 0.15281,-0.30097 0.22623,-0.45186 1e-4,-3.1e-4 7e-4,-5.3e-4 0.001,-0.002 0.0726,-0.15047 0.14362,-0.30045 0.21152,-0.45135 1.22638,-2.72395 1.68914,-5.49775 1.86422,-7.13157 0.0113,-0.11411 0.0241,-0.2201 0.0337,-0.32281 0.001,-0.0226 0.003,-0.0455 0.005,-0.0667 0.0191,-0.23549 0.0319,-0.43426 0.0379,-0.57709 l -6.94213,-6.49672 -1.56987,1.6775 -2.61623,2.7956 -5.59129,-5.23254 -1.56985,1.67748 -1.04638,1.11812 -12.85992,-12.03482 -3.81707,4.07877 -4.03182,4.30826 -13.93182,-19.85521 4.14615,-4.43039 0.56323,-0.60187 -5.59127,-5.23251 -0.78492,0.83874 -0.002,0.002 -4.4712,-4.18799 3.72806,-3.98367 -0.32864,-1.32985 -3.84784,-8.21624 1.61854,-0.81018 -1.27464,-5.16085 17.29271,-9.51263 5.31172,4.9709 1.56967,-1.67727 0.52327,-0.55917 4.47304,4.18604 -0.52329,0.55917 -3.92544,4.19455 -13.34181,14.25655 -2.87787,3.07517 0.55912,0.52325 1.30802,-1.3977 3.13951,-3.35476 2.09315,-2.23665 6.00394,-6.41557 8.12378,-8.68076 1.67738,1.56975 1.56988,-1.67748 1.67738,1.56975 -1.56988,1.6775 2.23654,2.09302 1.56985,-1.67749 1.67456,1.5671 -1.56986,1.6775 12.30079,11.51156 7.5767,-0.25117 22.92423,21.45338 3.24704,-0.10752 z"
       transform="translate(-183.06667,-34.968948)" /><path
       id="path10548"
       style="fill:#f3f3f3;fill-opacity:1;stroke-width:0.264583"
       class="cls-1"
       d="m 168.51372,672.52675 c -8.93559,1.5236 -17.63494,4.20453 -25.878,7.97522 -16.36459,24.21173 -20.80042,47.82229 -18.58233,71.09747 9.58352,7.08072 20.31023,12.46577 31.71382,15.92099 2.56775,-3.45352 4.83995,-7.11716 6.79235,-10.9523 -3.70831,-1.38501 -7.28787,-3.09392 -10.6965,-5.10666 0.89709,-0.65066 1.77478,-1.32136 2.62258,-1.97198 20.08109,9.44366 43.3264,9.44366 63.40749,0 0.85767,0.69991 1.73536,1.37061 2.62258,1.97198 -3.41521,2.016 -7.00124,3.72815 -10.71614,5.11648 1.95001,3.83336 4.22234,7.49396 6.79235,10.94248 11.41333,-3.44136 22.14871,-8.82388 31.73398,-15.91117 2.60256,-26.99172 -4.4465,-50.3853 -18.63245,-71.12692 -8.23479,-3.77009 -16.92798,-6.44474 -25.85785,-7.95559 -1.22197,2.18445 -2.32773,4.43176 -3.31246,6.73292 -9.51204,-1.43336 -19.18492,-1.43336 -28.69696,0 -0.98524,-2.30092 -2.091,-4.5482 -3.31246,-6.73292 z m 33.46979,33.41812 a 9.2524099,17.99498 0 0 1 9.25267,17.99528 9.2524099,17.99498 0 0 1 -9.25267,17.99477 9.2524099,17.99498 0 0 1 -9.25215,-17.99477 9.2524099,17.99498 0 0 1 9.25215,-17.99528 z m -31.58773,0.63407 a 9.2524099,17.99498 0 0 1 9.25215,17.99476 9.2524099,17.99498 0 0 1 -9.25215,17.99529 9.2524099,17.99498 0 0 1 -9.25267,-17.99529 9.2524099,17.99498 0 0 1 9.25267,-17.99476 z"
       transform="translate(-183.06667,-34.968948)" /></g><g
     inkscape:groupmode="layer"
     id="layer7"
     inkscape:label="ninja"><rect
       style="opacity:1;fill:#5b2f6f;fill-opacity:1;stroke-width:0.264583;stroke-linecap:square;stroke-linejoin:round;stroke-miterlimit:60;paint-order:fill markers stroke"
       id="rect10550"
       width="166.68748"
       height="166.68748"
       x="269.53336"
       y="636.67981"
       transform="translate(-183.06667,-34.968948)" /><path
       id="path1485"
       style="fill:#432351;fill-opacity:1;stroke:none;stroke-width:1.5875;stroke-linecap:butt;stroke-linejoin:miter;stroke-miterlimit:4;stroke-dasharray:none;stroke-opacity:1;paint-order:stroke fill markers"
       d="m 392.50691,731.16435 1.47417,5.95124 -5.15961,5.65083 -1.14668,1.25585 25.11531,22.93209 c 0.0268,0.0245 0.0521,0.0496 0.0775,0.0751 0.0256,0.0254 0.0515,0.0503 0.0755,0.0774 0.0248,0.0258 0.048,0.0523 0.0721,0.0788 0.0259,0.028 0.0492,0.058 0.0746,0.0856 0.0841,0.10286 0.16042,0.21128 0.23083,0.32346 0.004,0.005 0.01,0.0131 0.0125,0.0198 0.0101,0.0177 0.0207,0.0363 0.0311,0.0545 0.0588,0.0995 0.11376,0.20185 0.16208,0.30769 0.003,0.006 0.005,0.008 0.008,0.0154 0.005,0.0132 0.0125,0.0244 0.0162,0.0365 0.0518,0.11914 0.0974,0.24168 0.13664,0.36755 0.007,0.0247 0.0138,0.0475 0.0207,0.0708 0.0292,0.10103 0.0541,0.20431 0.0752,0.30935 0.003,0.0158 0.006,0.0316 0.01,0.0483 0.003,0.0204 0.006,0.0407 0.0109,0.0595 0.0159,0.0907 0.0285,0.18226 0.0385,0.27577 0.004,0.0384 0.008,0.0769 0.0112,0.11594 0.002,0.0318 0.003,0.0631 0.006,0.0948 1.8e-4,0.005 4.4e-4,0.0135 0.003,0.0204 1.6e-4,0.003 -0.002,0.007 4.1e-4,0.009 0.002,0.0364 0.004,0.0692 0.005,0.1046 0.003,0.0779 0.003,0.15614 0.001,0.2349 l 9e-5,0.003 c -7.2e-4,0.0342 -0.002,0.0669 -0.003,0.10032 1.8e-4,0.005 -0.002,0.0113 0.002,0.0182 1.8e-4,0.005 -0.002,0.0113 -0.001,0.016 -7.3e-4,0.0341 -0.002,0.0688 -0.006,0.10368 -0.005,0.0743 -0.0108,0.15017 -0.0191,0.22537 1.9e-4,0.005 -0.002,0.0113 -0.001,0.0161 -0.14708,1.32828 -0.79865,2.76858 -1.92127,3.99807 -0.88341,0.96751 -1.92363,1.65259 -2.96488,2.033 -0.0732,0.0268 -0.14585,0.0535 -0.21872,0.077 -0.0648,0.0209 -0.12915,0.041 -0.19361,0.0595 -0.0815,0.0235 -0.16359,0.0443 -0.24503,0.0639 -0.0608,0.0147 -0.12192,0.03 -0.18278,0.0424 -0.0798,0.0164 -0.15967,0.03 -0.23894,0.0425 -0.0158,0.003 -0.0271,0.005 -0.0413,0.007 -0.0361,0.006 -0.0709,0.0109 -0.10642,0.0155 -0.0295,0.004 -0.0568,0.007 -0.0854,0.01 -7.8e-4,7e-5 -0.003,0.002 -0.003,0.002 -0.0181,0.002 -0.0364,0.002 -0.0538,0.005 -0.0181,0.002 -0.0339,0.004 -0.0501,0.004 -0.005,1.9e-4 -0.009,3.9e-4 -0.0135,4.5e-4 -0.0385,0.004 -0.0784,0.008 -0.11713,0.01 -0.0409,0.002 -0.0794,0.004 -0.11961,0.005 -0.009,4e-4 -0.0181,0.002 -0.0273,0.001 -0.003,1.5e-4 -0.005,1.8e-4 -0.009,3.9e-4 -0.0364,0.002 -0.0737,0.001 -0.11052,2.1e-4 -0.0478,-4.1e-4 -0.0959,5.8e-4 -0.14334,-6.1e-4 l -0.003,8e-5 -0.002,-8.4e-4 c -0.065,-0.002 -0.12888,-0.003 -0.19301,-0.008 -0.0251,-0.001 -0.0531,-0.005 -0.0779,-0.008 l -0.007,-0.002 c -0.009,4e-4 -0.016,-0.001 -0.0251,-0.001 -0.003,-4.4e-4 -0.003,-8.6e-4 -0.007,-0.002 l -0.003,8e-5 c -0.11338,-0.0119 -0.22532,-0.0278 -0.3348,-0.0494 -0.0229,-0.004 -0.0427,-0.008 -0.0654,-0.0123 -0.007,-0.002 -0.0137,-0.004 -0.0229,-0.004 -0.0253,-0.006 -0.0518,-0.0124 -0.0774,-0.0189 -0.003,-4.3e-4 -0.004,-3.9e-4 -0.007,-0.002 -0.0394,-0.01 -0.078,-0.0213 -0.11678,-0.0323 -0.0113,-0.002 -0.0253,-0.006 -0.0353,-0.01 -0.0231,-0.009 -0.0488,-0.0139 -0.0727,-0.0214 -0.0113,-0.002 -0.0231,-0.009 -0.0346,-0.01 -0.006,-0.003 -0.009,-0.004 -0.0161,-0.005 l -0.003,7e-5 c -0.003,-8.5e-4 -0.004,-3.8e-4 -0.007,-0.002 -0.003,-8.7e-4 -0.005,-0.003 -0.009,-0.004 -0.003,-8.7e-4 -0.007,-0.002 -0.0116,-0.006 -0.0208,-0.006 -0.0402,-0.015 -0.0615,-0.0213 -0.006,-0.003 -0.0116,-0.006 -0.0185,-0.008 -0.007,-0.002 -0.0138,-0.004 -0.0209,-0.0105 -0.0331,-0.0128 -0.0663,-0.0256 -0.0994,-0.0389 -7.8e-4,-5e-5 -0.003,-4.3e-4 -0.003,-8.7e-4 -0.0326,-0.0124 -0.0633,-0.0273 -0.0941,-0.0423 -0.0254,-0.0107 -0.0509,-0.0248 -0.0774,-0.0358 -0.005,-0.003 -0.0116,-0.006 -0.0185,-0.008 -0.009,-0.005 -0.0139,-0.008 -0.0232,-0.0127 -0.009,-0.005 -0.0185,-0.008 -0.0256,-0.0147 -0.0139,-0.008 -0.0281,-0.017 -0.0442,-0.023 -0.0281,-0.017 -0.0567,-0.0299 -0.0838,-0.046 -0.003,-0.002 -0.006,-0.003 -0.0116,-0.006 -0.0298,-0.0189 -0.0602,-0.0375 -0.0904,-0.0564 l -0.002,-8.3e-4 c -0.0256,-0.0148 -0.0504,-0.033 -0.0771,-0.0486 -0.003,-0.002 -0.005,-0.003 -0.008,-0.005 -0.002,-8.4e-4 -0.003,-0.003 -0.005,-0.004 -0.003,-0.002 -0.005,-0.003 -0.008,-0.005 -0.008,-0.005 -0.0178,-0.014 -0.0258,-0.0194 -0.10551,-0.0746 -0.20863,-0.15564 -0.30554,-0.24413 l -0.007,-0.006 -0.76526,-0.69874 -24.34269,-22.22662 -1.14646,1.25561 -4.58648,5.02313 -4.91397,-2.18397 6.87961,-7.53459 -2.54586,-2.32455 -41.09195,-37.51991 c -5.80789,-5.30303 -12.87656,-12.01614 -18.54696,-17.6836 -3.54393,-3.54221 -6.54215,-6.67581 -8.34475,-8.79992 -0.36047,-0.42489 -0.67273,-0.80923 -0.93262,-1.14834 -0.51932,-0.6787 -0.82686,-1.17753 -0.88068,-1.45643 -0.12962,-0.67056 -0.26684,-1.44467 -0.40652,-2.29588 -0.55836,-3.40534 -1.16272,-8.03369 -1.5419,-12.10308 -0.0948,-1.01736 -0.17619,-1.99856 -0.23845,-2.91833 -0.12472,-1.83926 -0.17568,-3.42886 -0.11939,-4.54366 0.78068,1.14884 2.01299,2.70656 3.61625,4.59038 10.95768,12.87458 39.66698,41.44503 66.5015,65.94687 l 7.74428,7.07108 4.81335,4.39494 3.43982,-3.7673 z"
       transform="translate(-183.06667,-34.968948)" /><path
       id="path10552"
       style="fill:#f3f3f3;fill-opacity:1;stroke-width:0.264583"
       class="cls-1"
       d="m 335.2012,672.52675 c -8.93559,1.5236 -17.63494,4.20453 -25.878,7.97522 -16.36459,24.21173 -20.80042,47.82229 -18.58233,71.09747 9.58352,7.08072 20.31023,12.46577 31.71382,15.92099 2.56775,-3.45352 4.83995,-7.11716 6.79235,-10.9523 -3.70831,-1.38501 -7.28787,-3.09392 -10.6965,-5.10666 0.89709,-0.65066 1.77478,-1.32136 2.62258,-1.97198 20.08109,9.44366 43.3264,9.44366 63.40749,0 0.85767,0.69991 1.73536,1.37061 2.62258,1.97198 -3.41521,2.016 -7.00124,3.72815 -10.71614,5.11648 1.95001,3.83336 4.22234,7.49396 6.79235,10.94248 11.41333,-3.44136 22.14871,-8.82388 31.73398,-15.91117 2.60256,-26.99172 -4.4465,-50.3853 -18.63245,-71.12692 -8.23479,-3.77009 -16.92798,-6.44474 -25.85785,-7.95559 -1.22197,2.18445 -2.32773,4.43176 -3.31246,6.73292 -9.51204,-1.43336 -19.18492,-1.43336 -28.69696,0 -0.98524,-2.30092 -2.091,-4.5482 -3.31246,-6.73292 z m 33.46979,33.41812 a 9.2524099,17.99498 0 0 1 9.25267,17.99528 9.2524099,17.99498 0 0 1 -9.25267,17.99477 9.2524099,17.99498 0 0 1 -9.25215,-17.99477 9.2524099,17.99498 0 0 1 9.25215,-17.99528 z m -31.58773,0.63407 a 9.2524099,17.99498 0 0 1 9.25215,17.99476 9.2524099,17.99498 0 0 1 -9.25215,17.99529 9.2524099,17.99498 0 0 1 -9.25267,-17.99529 9.2524099,17.99498 0 0 1 9.25267,-17.99476 z"
       transform="translate(-183.06667,-34.968948)" /></g></svg>
