<?xml version="1.0" encoding="UTF-8" standalone="no"?>
<!-- Created with Inkscape (http://www.inkscape.org/) -->

<svg
   width="630"
   height="630"
   viewBox="0 0 166.68749 166.68749"
   version="1.1"
   id="svg5"
   xml:space="preserve"
   xmlns="http://www.w3.org/2000/svg"
   xmlns:svg="http://www.w3.org/2000/svg"><defs
     id="defs2"><style
       id="style299">.cls-1{fill:#5865f2;}</style></defs><g
     id="layer4"
     transform="translate(-86.466686,-435.02339)"><rect
       style="opacity:1;fill:#5f4534;fill-opacity:1;stroke-width:0.264583;stroke-linecap:square;stroke-linejoin:round;stroke-miterlimit:60;paint-order:fill markers stroke"
       id="rect10538"
       width="166.68748"
       height="166.68748"
       x="269.53336"
       y="469.99234"
       transform="translate(-183.06667,-34.968948)" /><path
       id="path3142"
       style="fill:#463226;fill-opacity:1;stroke:none;stroke-width:1.5875;stroke-linecap:butt;stroke-linejoin:miter;stroke-miterlimit:4;stroke-dasharray:none;stroke-opacity:1;paint-order:stroke fill markers"
       d="m 392.70172,568.36978 -4.10616,4.11429 -0.009,5.13476 -0.002,0.85795 c 0.75979,-0.0451 1.67296,-0.0769 2.66914,-0.0668 0.05,5.7e-4 0.0991,0.002 0.14974,0.002 0.74204,0.01 1.51448,0.0419 2.295,0.1154 0.0247,0.002 0.0514,0.006 0.0773,0.009 0.20537,0.0178 0.41155,0.0412 0.61621,0.0678 0.0691,0.009 0.13831,0.0171 0.20799,0.0262 0.16202,0.0212 0.32296,0.0461 0.48372,0.0717 0.1556,0.0238 0.3092,0.0521 0.46271,0.0809 0.13737,0.0257 0.27522,0.0519 0.41039,0.081 0.0932,0.0181 0.18477,0.0405 0.27695,0.0617 0.13683,0.0311 0.27156,0.0665 0.40548,0.10211 0.097,0.0238 0.19394,0.0503 0.28921,0.0781 0.18551,0.0543 0.36632,0.11217 0.54411,0.17404 0.0854,0.0285 0.16753,0.0625 0.25101,0.0942 0.12044,0.046 0.23892,0.0941 0.35543,0.14411 0.0758,0.0329 0.15234,0.0645 0.22578,0.099 0.17813,0.0831 0.34923,0.17049 0.51409,0.26449 0.0461,0.0269 0.0878,0.0566 0.1336,0.0832 0.13152,0.0799 0.25911,0.16217 0.3806,0.24948 0.0599,0.0443 0.12246,0.0867 0.17965,0.13317 0.0533,0.0418 0.10694,0.0833 0.15822,0.12669 0.002,0.002 0.003,0.003 0.008,0.009 0.0794,0.0678 0.15695,0.13705 0.22967,0.21002 l 13.11428,13.08835 c 0.15029,0.14994 0.28946,0.29664 0.41828,0.44072 0.0622,0.0701 0.11707,0.13632 0.17442,0.20494 0.0702,0.082 0.1416,0.16468 0.20524,0.24461 0.0486,0.06 0.0882,0.11901 0.13247,0.17852 0.0581,0.0772 0.11675,0.15582 0.16767,0.23159 1.14705,1.69441 0.71709,2.93481 -0.51753,4.27732 0.0469,0.0817 0.089,0.16168 0.12675,0.2407 0.005,0.0112 0.01,0.0225 0.0148,0.034 0.0784,0.16889 0.13683,0.33161 0.17709,0.48947 0.002,0.006 0.002,0.0169 0.005,0.0222 0.0387,0.15934 0.0599,0.31433 0.0627,0.46555 2e-4,0.003 -0.003,0.0112 -0.002,0.0138 0.004,0.38871 -0.10614,0.7559 -0.31388,1.12621 -0.003,0.006 -0.007,0.0107 -0.0118,0.016 -0.15868,0.27875 -0.37558,0.55983 -0.63435,0.85258 -0.036,0.0398 -0.0704,0.0824 -0.10744,0.12312 -0.12543,0.13742 -0.25645,0.27636 -0.40031,0.42051 -0.26194,0.2586 -0.53726,0.51109 -0.81811,0.76141 -7e-4,8e-4 -0.003,0.003 -0.003,0.003 -0.2609,0.23033 -0.53062,0.45627 -0.8062,0.67912 -0.0354,0.0274 -0.0687,0.057 -0.10401,0.0848 -0.27156,0.2172 -0.55052,0.43067 -0.8352,0.64014 -0.0318,0.0261 -0.0627,0.0471 -0.0959,0.0687 -0.27605,0.20126 -0.55817,0.39838 -0.84524,0.59198 -0.0514,0.0358 -0.10226,0.0714 -0.15527,0.10549 -0.2854,0.18959 -0.57641,0.37421 -0.87138,0.55588 -0.0495,0.0302 -0.0971,0.0622 -0.14749,0.0912 -0.30263,0.18386 -0.60919,0.36354 -0.92064,0.53875 -0.043,0.0255 -0.0857,0.0469 -0.12756,0.0713 -0.31849,0.17707 -0.64113,0.35007 -0.96783,0.51772 -0.0376,0.0202 -0.0722,0.0373 -0.10924,0.0558 -9.15558,4.66068 -21.23841,5.52601 -24.82049,-1.6764 -0.0215,-0.012 -0.0466,-0.0269 -0.0707,-0.0397 -0.06,-0.0328 -0.12064,-0.0653 -0.18072,-0.098 -0.13136,-0.0718 -0.26184,-0.14526 -0.39155,-0.22056 -0.0811,-0.0462 -0.16032,-0.0938 -0.24,-0.1415 -0.1321,-0.079 -0.26335,-0.16016 -0.3937,-0.24238 -0.0612,-0.0381 -0.12236,-0.0769 -0.18263,-0.11627 -0.38802,-0.25174 -0.76655,-0.51827 -1.13577,-0.80061 -0.047,-0.0355 -0.092,-0.0728 -0.13906,-0.10791 -0.0238,-0.0231 -0.0528,-0.0409 -0.0779,-0.0625 -0.0324,-0.0235 -0.0646,-0.0489 -0.0952,-0.0753 -0.0848,-0.0689 -0.16952,-0.13792 -0.25425,-0.2073 -0.0371,-0.0292 -0.072,-0.0602 -0.10905,-0.0898 -0.094,-0.0784 -0.18616,-0.1585 -0.27854,-0.23923 -0.0576,-0.05 -0.11378,-0.10173 -0.17162,-0.15176 -0.0364,-0.0327 -0.0734,-0.0655 -0.11066,-0.0986 -0.013,-0.0144 -0.0275,-0.0287 -0.0413,-0.0394 -0.0308,-0.029 -0.0617,-0.0576 -0.0931,-0.0852 -0.12855,-0.12063 -0.25508,-0.24309 -0.38049,-0.3681 -0.1936,-0.19321 -0.39325,-0.40411 -0.5942,-0.62409 -0.006,-0.006 -0.013,-0.0144 -0.0183,-0.0201 -0.0563,-0.0601 -0.11143,-0.12284 -0.16875,-0.18408 -0.18933,-0.20841 -0.38111,-0.42622 -0.57656,-0.6558 -0.074,-0.0856 -0.14757,-0.17868 -0.22291,-0.26659 -0.0694,-0.0849 -0.1385,-0.16537 -0.20986,-0.2517 -0.0782,-0.0933 -0.15543,-0.19361 -0.23393,-0.28985 -0.0806,-0.0999 -0.16145,-0.19968 -0.24296,-0.30277 -0.16646,-0.21007 -0.33433,-0.42796 -0.5044,-0.64971 -1.26691,-1.6512 -2.63415,-3.63293 -4.04775,-5.80811 -0.0545,-0.0814 -0.10532,-0.15967 -0.15856,-0.24271 -0.13135,-0.2024 -0.26429,-0.41585 -0.39598,-0.62178 -0.55882,-0.87275 -1.12143,-1.76924 -1.69051,-2.69365 -0.0791,-0.12879 -0.15802,-0.2556 -0.23744,-0.38502 -2.2596,-3.68827 -4.56168,-7.69166 -6.74481,-11.62758 -0.003,-0.006 -0.008,-0.0116 -0.01,-0.0171 -0.73346,-1.32251 -1.45075,-2.62838 -2.14831,-3.9144 -0.0299,-0.0538 -0.058,-0.10717 -0.0876,-0.16135 -0.32024,-0.59128 -0.6355,-1.17402 -0.94598,-1.75213 -0.005,-0.0113 -0.01,-0.0172 -0.0124,-0.0288 -0.0387,-0.0732 -0.0766,-0.14323 -0.11586,-0.21572 -0.023,-0.0418 -0.0439,-0.0787 -0.0655,-0.12152 -0.45796,-0.85424 -0.88915,-1.66595 -1.32103,-2.48127 -1.90838,-3.59837 -3.53858,-6.75648 -4.72531,-9.08678 -0.0172,0.0131 -0.0325,0.0301 -0.048,0.0442 -6.9e-4,6.4e-4 -9.5e-4,0.002 -0.002,0.002 -7.1e-4,7.9e-4 -0.002,0.002 -0.003,0.003 -0.002,0.002 -0.003,0.003 -0.006,0.006 -0.0824,0.0748 -0.16323,0.14061 -0.24512,0.21045 -0.0539,0.0461 -0.10823,0.0929 -0.16118,0.13794 -0.006,0.006 -0.0116,0.008 -0.0172,0.0131 -0.91946,0.76263 -1.76803,1.26597 -2.61564,1.42951 -9.5e-4,1.8e-4 -0.002,7.4e-4 -0.003,7.6e-4 -0.0138,0.003 -0.0275,0.002 -0.0415,0.007 -0.0594,0.011 -0.11923,0.022 -0.17862,0.0283 -0.0734,0.008 -0.14737,0.0179 -0.22084,0.0194 -9.5e-4,2e-5 -0.003,2e-4 -0.003,2e-4 -0.13163,0.005 -0.26454,0.002 -0.39742,-0.008 -0.002,-6e-5 -0.003,1.9e-4 -0.009,1.6e-4 -0.0109,2.1e-4 -0.0221,-5.6e-4 -0.0328,-0.002 -0.003,2e-4 -0.009,1.8e-4 -0.0137,-0.002 -6.8e-4,-5e-5 -9.5e-4,9e-5 -0.002,8e-5 -0.12483,-0.0114 -0.25024,-0.0337 -0.37629,-0.061 -0.003,-9.4e-4 -0.006,-9.4e-4 -0.0112,-0.003 -0.42999,-0.0959 -0.87038,-0.28327 -1.32819,-0.57165 -0.009,-0.006 -0.0108,-0.009 -0.0187,-0.0119 -0.13375,-0.0849 -0.26929,-0.17916 -0.40658,-0.28176 -0.006,-0.006 -0.013,-0.0118 -0.0213,-0.0147 -0.0239,-0.0177 -0.0491,-0.0372 -0.0732,-0.0573 -0.14035,-0.10881 -0.28222,-0.22454 -0.42681,-0.35182 -0.0185,-0.0174 -0.0369,-0.0327 -0.0562,-0.0483 -0.15302,-0.13744 -0.30984,-0.2819 -0.46858,-0.44054 -0.24118,-0.24051 -0.47598,-0.48275 -0.70556,-0.72741 -0.68962,-0.73326 -1.33206,-1.48385 -1.94994,-2.24486 -0.41195,-0.50732 -0.81221,-1.01933 -1.20882,-1.53503 -0.79818,-1.0387 -1.57862,-2.09156 -2.39337,-3.14654 -0.39922,-0.51675 -0.80644,-1.03493 -1.22883,-1.55111 -0.64197,-0.78506 -1.31856,-1.56778 -2.05032,-2.3431 -0.24361,-0.25878 -0.49364,-0.51594 -0.75078,-0.77255 l -11.82929,-11.80612 c -0.24798,-0.24742 -0.49165,-0.48292 -0.73482,-0.71011 -0.0437,-0.0413 -0.0868,-0.0836 -0.13144,-0.1235 -0.23292,-0.21676 -0.45985,-0.42793 -0.68706,-0.62947 -0.053,-0.0491 -0.10891,-0.093 -0.16139,-0.14139 -0.20201,-0.17821 -0.40359,-0.35278 -0.60164,-0.52015 -0.0185,-0.0175 -0.0392,-0.0351 -0.0592,-0.0515 -0.21617,-0.18106 -0.4282,-0.35561 -0.63966,-0.52624 -0.0525,-0.041 -0.10202,-0.0825 -0.15428,-0.12292 -0.42018,-0.33597 -0.83046,-0.64956 -1.23629,-0.95299 -0.0815,-0.0621 -0.16629,-0.12485 -0.24787,-0.18528 -0.43707,-0.32365 -0.86862,-0.63723 -1.2934,-0.94202 -0.45796,-0.32862 -0.90921,-0.65094 -1.35773,-0.97795 -4e-4,-3.1e-4 -6.6e-4,-7.3e-4 -7.8e-4,-7e-4 -0.29401,-0.21466 -0.58694,-0.43292 -0.87874,-0.65433 -0.12616,-0.095 -0.25226,-0.19127 -0.37755,-0.28865 -0.0276,-0.0205 -0.0533,-0.0415 -0.081,-0.0616 -0.0129,-0.0118 -0.0275,-0.0232 -0.0408,-0.0332 -0.20821,-0.16309 -0.41641,-0.32785 -0.62459,-0.49917 -0.19806,-0.1629 -0.39694,-0.33214 -0.59564,-0.50408 -0.0562,-0.0486 -0.11164,-0.0995 -0.16821,-0.14859 -0.15115,-0.13129 -0.30039,-0.26882 -0.45203,-0.4069 -0.0704,-0.0665 -0.1424,-0.13063 -0.21349,-0.19771 -0.0513,-0.0483 -0.10209,-0.0982 -0.15455,-0.14659 -0.14089,-0.13274 -0.28086,-0.26846 -0.42166,-0.40918 -0.25666,-0.25634 -0.49738,-0.50417 -0.72866,-0.75049 -0.0691,-0.073 -0.13454,-0.14589 -0.20213,-0.21724 -0.0519,-0.0558 -0.10583,-0.11349 -0.15711,-0.16815 -0.0635,-0.0712 -0.12467,-0.13966 -0.18631,-0.20907 -0.10144,-0.11301 -0.19975,-0.22673 -0.29335,-0.33892 -0.002,-0.002 -0.006,-0.006 -0.005,-0.009 -0.10501,-0.1242 -0.20947,-0.24838 -0.30645,-0.3699 -5.9e-4,-7.4e-4 -0.002,-9.4e-4 -0.002,-0.002 -0.11423,-0.14498 -0.22227,-0.28645 -0.32561,-0.42704 -7.6e-4,-0.002 -7.5e-4,-0.003 -0.003,-0.006 -0.0153,-0.0228 -0.0336,-0.045 -0.0505,-0.0658 -0.002,-0.002 -0.005,-0.009 -0.005,-0.0112 -0.0968,-0.13566 -0.18879,-0.26721 -0.27541,-0.39903 -7.1e-4,-7.4e-4 -7.4e-4,-0.003 -0.003,-0.006 -0.0131,-0.0224 -0.0292,-0.0448 -0.0434,-0.0666 -0.0918,-0.14308 -0.1778,-0.28458 -0.25632,-0.4242 -7.7e-4,-0.002 -0.003,-0.006 -0.002,-0.009 -0.0825,-0.14706 -0.15929,-0.29269 -0.22625,-0.43638 -4.1e-4,-8.6e-4 -5.3e-4,-0.002 -7.5e-4,-0.003 -0.0591,-0.12614 -0.10918,-0.25036 -0.15602,-0.37409 -3.2e-4,-8.9e-4 -5.7e-4,-0.002 -7.6e-4,-0.003 -0.009,-0.0281 -0.0223,-0.0541 -0.0322,-0.0823 -0.0381,-0.10725 -0.0703,-0.21384 -0.0987,-0.31892 -0.002,-0.006 -0.002,-0.0169 -0.005,-0.0222 -0.009,-0.031 -0.0137,-0.0617 -0.0232,-0.0926 -7e-5,-3.9e-4 -8.8e-4,-6.3e-4 -7.8e-4,-7e-4 -0.0248,-0.10589 -0.0465,-0.21162 -0.0615,-0.31588 -0.003,-0.0138 -0.002,-0.0248 -0.004,-0.0386 -0.002,-0.0169 -0.005,-0.031 -0.007,-0.0471 -0.0135,-0.12542 -0.0221,-0.25011 -0.0223,-0.37316 l -9e-5,-0.002 -5e-5,-0.002 c -3.1e-4,-0.12043 0.0106,-0.23895 0.0273,-0.35717 7.2e-4,-0.004 -1.9e-4,-0.003 -1.6e-4,-0.009 0.002,-0.0138 0.002,-0.0309 0.005,-0.0455 9e-5,-6.5e-4 -1.5e-4,-9.5e-4 -5e-5,-0.002 0.0191,-0.11512 0.0439,-0.22917 0.0769,-0.34224 2.6e-4,-9.3e-4 1.5e-4,-0.002 9.5e-4,-0.003 0.003,-0.0163 0.007,-0.031 0.0131,-0.0448 0.0365,-0.11788 0.0802,-0.23434 0.13317,-0.35033 9.4e-4,-0.002 7.2e-4,-0.004 9.4e-4,-0.006 9.5e-4,-0.006 0.009,-0.0108 0.0118,-0.016 0.0559,-0.1195 0.1203,-0.23963 0.19424,-0.35754 l -6.75502,-6.74165 1.02654,-1.02858 -10.8,-10.77864 9.50361,-1.29382 6.68568,6.67247 0.5133,-0.51428 -6.68572,-6.67251 2.82299,-2.82857 4.10614,-4.11424 6.68567,6.67247 2.0531,-2.05713 6.68572,6.67249 -2.05308,2.05716 5.14285,5.13266 2.05312,-2.05715 2.05711,2.05308 3.08266,-0.003 5.14286,5.13271 -1.53978,1.54283 10.79997,10.77864 2.56635,-2.57139 3.59997,3.59287 0.003,3.08266 27.25712,27.20323 0.0817,1.54125 4.5437,-0.005 z m -4.78326,17.50326 -4.44745,-0.0259 -2.00789,-2.00395 -8e-4,-7e-4 c -0.15958,0.0634 -0.338,0.13124 -0.53667,0.20207 -0.0429,0.0173 -0.0845,0.03 -0.12974,0.0453 -0.16073,0.0557 -0.32967,0.11253 -0.50769,0.16685 -0.12189,0.0383 -0.24564,0.0735 -0.37416,0.10962 -0.1295,0.0361 -0.26009,0.0708 -0.39422,0.104 -0.13099,0.0323 -0.26098,0.0604 -0.39532,0.0886 -0.15047,0.0314 -0.30112,0.0602 -0.45348,0.0847 -0.55498,0.0894 -1.11164,0.12722 -1.62658,0.0689 -0.0435,-0.005 -0.0859,-0.0125 -0.1281,-0.0174 -0.0606,-0.009 -0.12033,-0.0194 -0.17974,-0.0303 -0.0752,-0.0146 -0.1492,-0.0317 -0.22196,-0.0509 -0.0319,-0.007 -0.0635,-0.0167 -0.0946,-0.0237 -0.10006,-0.0295 -0.1967,-0.0677 -0.29007,-0.10895 -0.0136,-0.007 -0.0275,-0.0122 -0.0411,-0.0156 -0.0993,-0.0461 -0.19223,-0.0993 -0.28208,-0.15939 -0.0129,-0.0118 -0.0239,-0.0177 -0.038,-0.0266 -0.0931,-0.0659 -0.18244,-0.13797 -0.26414,-0.21931 -0.0438,-0.0438 -0.11362,-0.12899 -0.19178,-0.23378 -0.14778,-0.19189 -0.37329,-0.51917 -0.62308,-0.88839 -0.01,-0.0172 -0.0258,-0.0361 -0.0343,-0.0539 -0.0854,-0.12687 -0.19091,-0.28641 -0.28646,-0.43019 -0.0274,-0.0422 -0.0585,-0.0895 -0.0862,-0.13211 -1.04251,-1.58027 -2.54285,-3.96777 -4.12371,-6.51954 -0.88944,-1.4328 -1.77886,-2.87822 -2.62929,-4.26215 -0.0275,-0.0417 -0.038,-0.0612 -0.0636,-0.1033 -0.96815,-1.57575 -1.76213,-2.87237 -2.45846,-4.01349 l -3.58192,-3.57482 c -1.03373,0.72752 -1.84904,1.87217 -2.072,3.23124 -0.002,0.0219 -0.005,0.0416 -0.009,0.0631 -0.003,0.0113 -0.003,0.0191 -0.004,0.0292 -0.0135,0.0992 -0.0259,0.20003 -0.0305,0.30108 -0.003,0.0383 -0.009,0.0779 -0.009,0.11755 1.9e-4,0.003 2.3e-4,0.008 2e-4,0.0109 -0.006,0.0959 -0.007,0.19432 -0.003,0.29206 8e-4,0.044 0.002,0.0879 0.002,0.13235 0.005,0.089 0.0138,0.17878 0.0224,0.26883 0.006,0.0583 0.0111,0.11598 0.0194,0.17463 0.01,0.0857 0.0297,0.17182 0.0466,0.25894 0.0109,0.0616 0.022,0.1228 0.0361,0.18452 0.0232,0.0921 0.0493,0.18595 0.0766,0.279 0.0169,0.0572 0.0294,0.11299 0.0482,0.17048 5.3e-4,0.003 0.002,0.009 0.002,0.0111 0.0485,0.14661 0.1035,0.2931 0.16719,0.44137 0,0 12.29537,22.3761 16.15072,26.22379 0.15189,0.1514 0.30922,0.28932 0.46995,0.41705 0.0213,0.0175 0.0404,0.0365 0.0635,0.0513 0.15943,0.12425 0.32289,0.23495 0.49008,0.33662 0.016,0.0118 0.0314,0.0179 0.048,0.0269 l 7.8e-4,7e-4 c 0.16506,0.0981 0.33479,0.18467 0.50595,0.26274 0.0274,0.0122 0.0514,0.0244 0.0773,0.0347 0.16681,0.0724 0.33543,0.1352 0.50684,0.18935 0.0293,0.01 0.0575,0.0165 0.0862,0.0261 0.17139,0.0507 0.34481,0.0928 0.51992,0.12592 0.0349,0.008 0.0715,0.0144 0.10748,0.0188 0.17178,0.03 0.34501,0.0507 0.51985,0.0638 0.0247,0.002 0.0499,0.003 0.0753,0.006 0.18617,0.0108 0.37446,0.0161 0.56296,0.01 0.0194,3.8e-4 0.0407,-9.4e-4 0.0611,-0.003 0.20361,-0.01 0.40726,-0.0249 0.61203,-0.0529 0.003,-4.6e-4 0.006,-0.002 0.0111,-0.002 0.202,-0.0277 0.40387,-0.0607 0.60602,-0.10484 l 0.002,-8e-5 c 0.003,-5.6e-4 0.006,-0.002 0.0111,-0.002 0.003,-3.6e-4 0.009,-0.002 0.0111,-0.002 0.18831,-0.0415 0.37739,-0.0921 0.56485,-0.14797 0.0168,-0.005 0.0349,-0.009 0.0511,-0.0145 0.4142,-0.127 0.82466,-0.28787 1.22776,-0.4789 0.0111,-0.002 0.0225,-0.01 0.0358,-0.0176 4.09528,-1.96094 7.35515,-7.01554 4.82794,-10.9105 z"
       transform="translate(-183.06667,-34.968948)" /><path
       id="path10540"
       style="fill:#f3f3f3;fill-opacity:1;stroke-width:0.264583"
       class="cls-1"
       d="m 335.2012,505.83925 c -8.93559,1.5236 -17.63494,4.20453 -25.878,7.97522 -16.36459,24.21173 -20.80042,47.82229 -18.58233,71.09747 9.58352,7.08072 20.31023,12.46577 31.71382,15.92099 2.56775,-3.45352 4.83995,-7.11716 6.79235,-10.9523 -3.70831,-1.38501 -7.28787,-3.09392 -10.6965,-5.10666 0.89709,-0.65066 1.77478,-1.32136 2.62258,-1.97198 20.08109,9.44366 43.3264,9.44366 63.40749,0 0.85767,0.69991 1.73536,1.37061 2.62258,1.97198 -3.41521,2.016 -7.00124,3.72815 -10.71614,5.11648 1.95001,3.83336 4.22234,7.49396 6.79235,10.94248 11.41333,-3.44136 22.14871,-8.82388 31.73398,-15.91117 2.60256,-26.99172 -4.4465,-50.3853 -18.63245,-71.12692 -8.23479,-3.77009 -16.92798,-6.44474 -25.85785,-7.95559 -1.22197,2.18445 -2.32773,4.43176 -3.31246,6.73292 -9.51204,-1.43336 -19.18492,-1.43336 -28.69696,0 -0.98524,-2.30092 -2.091,-4.5482 -3.31246,-6.73292 z m 33.46979,33.41812 a 9.2524099,17.99498 0 0 1 9.25267,17.99528 9.2524099,17.99498 0 0 1 -9.25267,17.99477 9.2524099,17.99498 0 0 1 -9.25215,-17.99477 9.2524099,17.99498 0 0 1 9.25215,-17.99528 z m -31.58773,0.63407 a 9.2524099,17.99498 0 0 1 9.25215,17.99476 9.2524099,17.99498 0 0 1 -9.25215,17.99529 9.2524099,17.99498 0 0 1 -9.25267,-17.99529 9.2524099,17.99498 0 0 1 9.25267,-17.99476 z"
       transform="translate(-183.06667,-34.968948)" /></g></svg>
