<?xml version="1.0" encoding="UTF-8" standalone="no"?>
<!-- Created with Inkscape (http://www.inkscape.org/) -->

<svg
   width="630"
   height="630"
   viewBox="0 0 166.68749 166.68749"
   version="1.1"
   id="svg5"
   xml:space="preserve"
   xmlns="http://www.w3.org/2000/svg"
   xmlns:svg="http://www.w3.org/2000/svg"><defs
     id="defs2"><style
       id="style299">.cls-1{fill:#5865f2;}</style></defs><g
     id="layer5"
     transform="translate(246.90826,-601.71086)"><rect
       style="opacity:1;fill:#923541;fill-opacity:1;stroke-width:0.264583;stroke-linecap:square;stroke-linejoin:round;stroke-miterlimit:60;paint-order:fill markers stroke"
       id="rect10542"
       width="166.68748"
       height="166.68748"
       x="-63.841591"
       y="636.67981"
       transform="translate(-183.06667,-34.968948)" /><path
       id="path1606"
       style="fill:#772a34;fill-opacity:1;stroke:none;stroke-width:1.5875;stroke-linecap:butt;stroke-linejoin:miter;stroke-miterlimit:4;stroke-dasharray:none;stroke-opacity:1;paint-order:stroke fill markers"
       d="m -11.252163,663.24803 0.451531,5.5598 -0.510819,0.60114 6.0113099,5.10825 -1.53248,1.80338 15.0282911,12.77066 1.532477,-1.80339 4.207939,3.5758 2.043298,-2.40453 8.415831,7.15156 0.180624,2.22389 18.635083,15.83563 0.180625,2.22393 3.005671,2.55414 -4.597438,5.41018 -0.0013,0.17044 c 1.783789,-0.8084 4.037914,-1.38478 6.36952,-0.83103 0.0171,0.002 0.0349,0.0105 0.0529,0.0127 0.402875,0.0987 0.807923,0.23094 1.213167,0.40208 0.02194,0.011 0.04554,0.019 0.0676,0.03 0.194878,0.0842 0.389943,0.17558 0.584422,0.27832 0.01348,0.008 0.02653,0.0138 0.03878,0.0222 0.208291,0.11142 0.416957,0.23296 0.624493,0.36673 0.0027,0.002 0.0074,0.006 0.01004,0.006 0.209858,0.13583 0.418892,0.28203 0.627342,0.44196 l 29.87599,23.31739 c 0.216735,0.18417 0.423957,0.37199 0.624439,0.56194 0.02302,0.023 0.04684,0.0434 0.06885,0.0664 0.196419,0.18651 0.382473,0.37665 0.562215,0.56853 0.02362,0.023 0.04511,0.0501 0.06861,0.0739 0.17467,0.18948 0.341585,0.38105 0.500382,0.57467 0.01986,0.026 0.03909,0.0488 0.05884,0.0734 0.163195,0.20218 0.320799,0.4064 0.466185,0.61251 9.17e-4,9.6e-4 0.0015,0.003 0.0035,0.006 1.869782,2.6531 2.246925,5.6069 0.670825,8.31399 l 0.405052,0.34418 c 1.202271,1.02166 1.337708,2.68961 0.316059,3.89186 L 72.747894,777.5893 c -1.795861,2.11333 -4.245947,2.98962 -6.682497,3.03376 -0.16239,0.004 -0.324579,10e-4 -0.486697,-0.004 -0.648424,-0.0172 -1.292775,-0.0908 -1.920529,-0.21455 l -0.0011,-9.5e-4 c -1.254659,-0.24804 -2.442769,-0.69269 -3.462382,-1.27429 l -0.0011,-9.6e-4 c -0.235555,-0.13447 -0.460888,-0.27771 -0.677238,-0.42603 -0.03169,-0.0226 -0.06533,-0.0439 -0.09701,-0.0668 -0.215832,-0.15198 -0.422357,-0.31038 -0.615681,-0.47466 -2.002537,-1.70172 -3.375136,-4.1448 -4.290183,-6.50073 -0.02836,-0.0731 -0.05584,-0.14573 -0.08332,-0.2183 -0.682917,-1.80967 -1.097943,-3.5529 -1.323001,-4.85074 -0.04091,-0.23555 -0.07682,-0.46594 -0.108898,-0.69508 -7.05e-4,-0.009 -0.0036,-0.0178 -0.0044,-0.0266 -0.03017,-0.21899 -0.05635,-0.43602 -0.07898,-0.64943 -0.002,-0.0238 -0.0046,-0.0481 -0.0072,-0.0725 -0.02007,-0.19822 -0.03734,-0.39378 -0.05094,-0.5872 -0.002,-0.0238 -0.0013,-0.0528 -0.0033,-0.0795 -0.01023,-0.15415 -0.0192,-0.30705 -0.0251,-0.45816 -0.002,-0.0557 -0.0042,-0.11143 -0.0059,-0.16657 -0.01162,-0.40048 -0.0091,-0.78961 0.0077,-1.17017 -9.94e-4,-0.0119 0.0022,-0.0269 0.0033,-0.0363 0.01816,-0.38742 0.05049,-0.76461 0.0971,-1.13263 2.11e-4,-0.003 0.0017,-0.006 0.0031,-0.012 0.193313,-1.51523 0.621396,-2.87157 1.243713,-4.10706 l -3.73143,-13.25417 c -0.111969,-0.37492 -0.226145,-0.72279 -0.34177,-1.05874 -0.01714,-0.0539 -0.03701,-0.10412 -0.05541,-0.15618 -0.01244,-0.0341 -0.02466,-0.07 -0.0368,-0.10412 -0.231471,-0.64673 -0.470976,-1.21954 -0.719481,-1.72544 -0.03418,-0.0693 -0.06849,-0.13774 -0.102936,-0.20495 -0.330461,-0.64234 -0.675908,-1.17669 -1.042171,-1.60742 -0.01944,-0.0231 -0.04146,-0.0469 -0.06078,-0.0712 -3.28e-4,-3.7e-4 -0.002,-0.002 -0.0023,-0.002 -0.137044,-0.15611 -0.276953,-0.29913 -0.419627,-0.42938 -0.0087,-0.009 -0.0195,-0.0171 -0.0294,-0.0256 l -0.0011,-9.5e-4 c -0.01109,-0.009 -0.02201,-0.02 -0.03193,-0.0291 -0.0023,-0.002 -0.0068,-0.006 -0.009,-0.009 -0.153025,-0.13397 -0.30911,-0.25499 -0.468229,-0.36269 -0.0025,-0.002 -0.0052,-0.003 -0.008,-0.006 l -0.0011,-9.5e-4 c -0.0017,-9.3e-4 -0.003,-8.8e-4 -0.0055,-0.003 -0.08247,-0.0545 -0.16358,-0.10757 -0.248611,-0.15452 l -0.0011,-9.5e-4 c -0.07622,-0.0452 -0.156388,-0.0843 -0.235061,-0.12315 -0.02653,-0.0138 -0.05367,-0.0246 -0.07916,-0.04 -0.0055,-0.003 -0.01097,-0.006 -0.01765,-0.008 -0.01097,-0.006 -0.01973,-0.008 -0.03055,-0.0137 -0.06065,-0.0279 -0.122359,-0.0534 -0.18462,-0.0778 l -0.0011,-9.6e-4 c -0.186385,-0.0735 -0.377552,-0.13371 -0.573256,-0.18209 l -0.0022,1.8e-4 c -0.0064,-0.002 -0.01711,-0.002 -0.02378,-0.005 -0.171056,-0.041 -0.347572,-0.0711 -0.525796,-0.0951 -0.03737,-0.004 -0.07416,-0.009 -0.111524,-0.0133 -0.18747,-0.0221 -0.376977,-0.0371 -0.572881,-0.0419 l -0.0022,1.8e-4 c -0.0033,-8e-5 -0.0064,-0.002 -0.0108,-0.002 -0.0083,7e-4 -0.0191,-2.2e-4 -0.02745,1.3e-4 -0.182863,-0.004 -0.369491,2.5e-4 -0.560008,0.008 -0.02112,0.002 -0.04291,0.003 -0.06414,0.005 -0.0022,1.5e-4 -0.0042,3.5e-4 -0.0083,7e-4 -0.02328,-4e-5 -0.04566,0.003 -0.06837,0.005 -0.175341,0.0102 -0.354465,0.0236 -0.536475,0.0429 l -0.0011,-9.5e-4 c -0.02945,0.002 -0.05648,0.005 -0.08579,0.01 -0.03365,0.002 -0.06884,0.009 -0.102765,0.0132 -0.0083,6.7e-4 -0.01249,10e-4 -0.02112,0.002 -0.0015,1.8e-4 -0.0029,1.8e-4 -0.0042,3.5e-4 -0.184952,0.0225 -0.373443,0.0482 -0.565355,0.0775 l -0.0022,1.8e-4 c -0.01249,10e-4 -0.02282,0.004 -0.03557,0.004 -0.0083,6.7e-4 -0.01447,0.004 -0.02282,0.004 -0.0025,4e-4 -0.0042,3.5e-4 -0.0083,6.7e-4 -0.0062,0.002 -0.01249,10e-4 -0.01864,0.004 -0.234542,0.0364 -0.472972,0.0767 -0.718105,0.12163 l -0.105784,9.12795 -0.01129,0.92459 -7.227716,0.58711 -7.093824,-6.02814 -7.212079,2.15322 -21.5612334,-26.60404 -8.6166286,-7.32218 1.0216585,-1.20228 1.5324764,-1.80338 -15.0282869,-12.77066 -1.5235,1.79285 -1.030636,1.21284 -13.224894,-11.23817 1.532478,-1.80342 -10.820374,-9.19486 25.273096,-12.6858 2.404542,2.04331 1.53248,-1.80338 1.803395,1.53247 3.064957,-3.6068 z"
       transform="translate(-183.06667,-34.968948)" /><path
       id="path10544"
       style="fill:#f3f3f3;fill-opacity:1;stroke-width:0.264583"
       class="cls-1"
       d="m 1.8262353,672.52675 c -8.9355898,1.5236 -17.6349403,4.20453 -25.8780003,7.97522 -16.36459,24.21173 -20.80042,47.82229 -18.58233,71.09747 9.58352,7.08072 20.31023,12.46577 31.71382,15.92099 2.5677505,-3.45352 4.8399505,-7.11716 6.7923505,-10.9523 -3.70831,-1.38501 -7.2878705,-3.09392 -10.6965005,-5.10666 0.89709,-0.65066 1.77478,-1.32136 2.62258,-1.97198 20.0810903,9.44366 43.3264,9.44366 63.40749,0 0.85767,0.69991 1.73536,1.37061 2.62258,1.97198 -3.41521,2.016 -7.00124,3.72815 -10.71614,5.11648 1.95001,3.83336 4.22234,7.49396 6.79235,10.94248 11.41333,-3.44136 22.14871,-8.82388 31.73398,-15.91117 2.60256,-26.99172 -4.4465,-50.3853 -18.63245,-71.12692 -8.23479,-3.77009 -16.92798,-6.44474 -25.85785,-7.95559 -1.22197,2.18445 -2.32773,4.43176 -3.31246,6.73292 -9.51204,-1.43336 -19.18492,-1.43336 -28.6969597,0 -0.98524,-2.30092 -2.091,-4.5482 -3.31246,-6.73292 z m 33.4697897,33.41812 a 9.2524099,17.99498 0 0 1 9.25267,17.99528 9.2524099,17.99498 0 0 1 -9.25267,17.99477 9.2524099,17.99498 0 0 1 -9.25215,-17.99477 9.2524099,17.99498 0 0 1 9.25215,-17.99528 z M 3.7082953,706.57894 A 9.2524099,17.99498 0 0 1 12.960445,724.5737 9.2524099,17.99498 0 0 1 3.7082953,742.56899 9.2524099,17.99498 0 0 1 -5.5443745,724.5737 9.2524099,17.99498 0 0 1 3.7082953,706.57894 Z"
       transform="translate(-183.06667,-34.968948)" /></g></svg>
