<?xml version="1.0" encoding="UTF-8" standalone="no"?>
<!-- Created with Inkscape (http://www.inkscape.org/) -->

<svg
   width="630"
   height="630"
   viewBox="0 0 166.68749 166.68749"
   version="1.1"
   id="svg5"
   xml:space="preserve"
   xmlns="http://www.w3.org/2000/svg"
   xmlns:svg="http://www.w3.org/2000/svg"><defs
     id="defs2"><style
       id="style299">.cls-1{fill:#5865f2;}</style></defs><g
     id="layer6"
     transform="translate(80.220784,-601.71086)"><rect
       style="opacity:1;fill:#566fc3;fill-opacity:1;stroke-width:0.264583;stroke-linecap:square;stroke-linejoin:round;stroke-miterlimit:60;paint-order:fill markers stroke"
       id="rect10546"
       width="166.68748"
       height="166.68748"
       x="102.84589"
       y="636.67981"
       transform="translate(-183.06667,-34.968948)" /><path
       id="path1583"
       style="fill:#3b54a6;fill-opacity:1;stroke:none;stroke-width:1.5875;stroke-linecap:butt;stroke-linejoin:miter;stroke-miterlimit:4;stroke-dasharray:none;stroke-opacity:1;paint-order:stroke fill markers"
       d="m 218.3947,707.23869 -2.00439,8.61217 4.5997,4.30458 -8.24838,8.81389 -1.81903,1.94376 c 1e-4,0.004 0.003,0.0102 0.003,0.0144 0.004,0.0118 0.007,0.0264 0.009,0.0405 0.0645,0.25936 0.12623,0.54389 0.18569,0.84568 0.0111,0.056 0.0223,0.10881 0.0329,0.16601 2.8e-4,0.009 0.004,0.0164 0.004,0.0244 0.0522,0.27758 0.0998,0.57659 0.14685,0.88502 0.0157,0.10352 0.0331,0.20263 0.0485,0.30943 0.0476,0.33549 0.0913,0.68838 0.13211,1.05397 0.0113,0.10013 0.0215,0.20017 0.0324,0.3026 0.0375,0.35936 0.0714,0.73121 0.1016,1.11502 0.011,0.14073 0.0208,0.28272 0.0309,0.42657 0.0268,0.38428 0.0502,0.77834 0.0689,1.18276 0.006,0.11738 0.0101,0.23535 0.0149,0.35397 0.0177,0.45024 0.0303,0.90833 0.0372,1.37863 9.5e-4,0.0946 0.002,0.19037 0.003,0.28555 0.005,0.48213 0.006,0.97005 -0.002,1.46896 2.9e-4,0.009 6.9e-4,0.0205 0.001,0.0287 -0.001,0.0797 -0.004,0.16047 -0.005,0.24041 -0.0101,0.50154 -0.0264,1.01035 -0.0501,1.52446 -8.1e-4,0.0437 -0.001,0.0841 -0.004,0.12689 1.1e-4,0.004 -0.002,0.0108 -0.001,0.0145 -10e-4,0.0308 -0.003,0.0602 -0.004,0.0902 -0.0259,0.51314 -0.0612,1.03158 -0.10173,1.5534 -0.007,0.0961 -0.0132,0.1913 -0.0215,0.2876 -0.0451,0.54526 -0.0999,1.09447 -0.16249,1.64447 -0.009,0.0814 -0.0185,0.16254 -0.028,0.24418 -0.0625,0.52779 -0.13451,1.05581 -0.21416,1.58378 -0.0198,0.13131 -0.04,0.2622 -0.0611,0.39354 -0.0918,0.57642 -0.19187,1.15193 -0.30575,1.72322 -5.8e-4,0.002 1e-4,0.004 2.7e-4,0.009 -0.062,0.31063 -0.12789,0.62002 -0.19674,0.92818 -0.0686,0.30758 -0.1414,0.6129 -0.21726,0.91731 -0.002,0.006 -0.003,0.01 -0.004,0.0166 -0.0701,0.28121 -0.14357,0.56132 -0.2199,0.83911 -0.0114,0.0376 -0.0212,0.0769 -0.032,0.11509 -0.0758,0.27199 -0.15385,0.54181 -0.23573,0.81005 -0.007,0.029 -0.0183,0.0577 -0.0266,0.0877 -0.086,0.27907 -0.17592,0.55563 -0.26869,0.82993 -0.004,0.0127 -0.01,0.0269 -0.014,0.0404 -0.0951,0.28 -0.19368,0.55684 -0.29632,0.83104 -0.005,0.012 -0.009,0.0229 -0.0139,0.0361 -0.0972,0.25939 -0.19824,0.51808 -0.30237,0.77184 -0.005,0.012 -0.009,0.0229 -0.013,0.035 -0.009,0.0229 -0.0208,0.0476 -0.0309,0.0713 -0.10888,0.2616 -0.22093,0.51944 -0.33719,0.77414 l 10.07085,9.42468 c 0.12155,-0.16374 0.24487,-0.32898 0.37112,-0.49266 5.3e-4,-6.9e-4 9.5e-4,-8.3e-4 0.002,-0.002 0.12976,-0.16834 0.2618,-0.33611 0.39592,-0.50392 5.8e-4,-6.9e-4 9.5e-4,-8.3e-4 0.002,-0.002 0.13407,-0.16866 0.26958,-0.33598 0.40757,-0.50335 l 0.001,-0.002 c 0.13714,-0.16777 0.278,-0.33522 0.41958,-0.50082 5.6e-4,-6.8e-4 0.001,-0.002 0.002,-0.002 0.14007,-0.1666 0.28262,-0.33168 0.42544,-0.49692 5.9e-4,-6.8e-4 0.001,-0.002 0.002,-0.002 0.14283,-0.16563 0.28784,-0.32881 0.43293,-0.4923 5.8e-4,-6.5e-4 0.001,-0.002 0.002,-0.002 0.14497,-0.16401 0.28999,-0.32678 0.43716,-0.48834 l 10e-4,-0.002 c 0.13333,-0.14637 0.26541,-0.29271 0.39814,-0.43845 -0.007,-0.009 -0.0178,-0.0192 -0.0254,-0.0275 -0.0605,-0.0688 -0.11844,-0.1386 -0.17751,-0.20889 -0.0513,-0.0601 -0.10049,-0.12181 -0.14982,-0.18345 -0.18004,-0.22357 -0.35354,-0.4522 -0.51486,-0.68438 -0.0504,-0.0749 -0.10114,-0.14778 -0.15007,-0.22257 -0.28299,-0.43131 -0.52418,-0.87584 -0.70847,-1.3246 -0.006,-0.0144 -0.0135,-0.0325 -0.021,-0.0474 -6.8e-4,-0.002 -7e-4,-0.003 -0.004,-0.006 -0.0574,-0.14327 -0.10844,-0.2878 -0.15307,-0.43184 -0.004,-0.006 -0.004,-0.0125 -0.007,-0.0184 -0.004,-0.006 -0.004,-0.0125 -0.005,-0.0202 -0.0927,-0.30756 -0.15551,-0.61643 -0.18111,-0.92502 2e-5,-7.8e-4 -6e-5,-8.9e-4 -5e-5,-0.003 -0.013,-0.15642 -0.0159,-0.31339 -0.009,-0.46936 -6e-5,-9e-4 -5e-5,-0.003 -1.1e-4,-0.004 -1.1e-4,-0.004 -2.8e-4,-0.009 0.001,-0.0145 0.007,-0.15302 0.0246,-0.30452 0.0524,-0.45674 5.8e-4,-0.004 0.002,-0.006 0.002,-0.0108 0.0281,-0.15244 0.0673,-0.30489 0.11713,-0.45561 0.051,-0.15361 0.11292,-0.30578 0.18798,-0.45713 7.8e-4,-0.002 0.001,-0.003 0.003,-0.006 8.3e-4,-0.002 0.001,-0.003 0.002,-0.005 0.0726,-0.1449 0.15792,-0.28904 0.25435,-0.43148 0.005,-0.007 0.008,-0.0124 0.0114,-0.0211 0.002,-0.003 0.003,-0.004 0.005,-0.008 0.1,-0.14503 0.2114,-0.28814 0.33711,-0.43015 5.8e-4,-6.6e-4 0.001,-0.002 0.002,-0.002 5.9e-4,-6.6e-4 0.001,-0.002 0.002,-0.002 0.12874,-0.14669 0.27349,-0.2911 0.43269,-0.43267 0.92311,-0.82756 1.81284,-1.63046 2.67301,-2.39444 0.43002,-0.38204 0.85287,-0.75336 1.26765,-1.11398 0.41522,-0.36062 0.82378,-0.71041 1.22466,-1.046 0.40065,-0.33542 0.79381,-0.65721 1.1807,-0.96388 0.38689,-0.30666 0.7669,-0.59836 1.1403,-0.87284 0.37363,-0.27427 0.74065,-0.53135 1.10133,-0.76978 0.36089,-0.23823 0.71547,-0.457 1.06395,-0.65533 0.17424,-0.0994 0.3474,-0.19417 0.51872,-0.28277 0.17136,-0.0886 0.3408,-0.17102 0.50922,-0.24847 0.16859,-0.0777 0.33537,-0.14954 0.50067,-0.21564 0.1657,-0.0661 0.32979,-0.12662 0.49242,-0.18054 0.16267,-0.0539 0.32407,-0.10145 0.48426,-0.14301 0.16003,-0.0413 0.31937,-0.0761 0.47692,-0.10468 0.15735,-0.0283 0.31262,-0.0511 0.46759,-0.0663 0.15492,-0.0152 0.30902,-0.0236 0.46153,-0.0248 0.1523,-10e-4 0.3024,0.005 0.45259,0.0176 0.14988,0.0136 0.29983,0.0325 0.44742,0.0604 0.1475,0.0279 0.29311,0.0642 0.43849,0.10711 0.14517,0.0431 0.28939,0.094 0.43245,0.15298 0.14322,0.0588 0.28593,0.12568 0.4269,0.20051 0.14068,0.075 0.28001,0.15702 0.41865,0.2487 0.13937,0.0909 0.27655,0.19178 0.41314,0.30061 0.13691,0.10829 0.27413,0.22486 0.40893,0.35101 l 1.06584,0.99744 c 0.25704,0.0697 0.5165,0.16308 0.77962,0.27891 0.13136,0.0578 0.26387,0.12128 0.39685,0.19101 0.13086,0.069 0.2629,0.14223 0.39571,0.22287 0.003,0.002 0.005,0.004 0.008,0.005 0.005,0.004 0.01,0.007 0.0145,0.01 0.2633,0.16124 0.53127,0.34654 0.80256,0.55643 0.002,0.001 0.002,0.002 0.004,0.004 6.5e-4,6.1e-4 0.002,10e-4 0.002,0.002 0.13929,0.10654 0.27799,0.22005 0.41865,0.34061 0.14176,0.12047 0.28447,0.24635 0.42817,0.38084 l 5.01687,4.69498 c 0.18533,0.17344 0.35632,0.34199 0.51953,0.50203 6.6e-4,6.1e-4 0.002,10e-4 0.002,0.002 0.002,0.002 0.005,0.004 0.007,0.005 0.15896,0.16095 0.31004,0.31391 0.44623,0.46439 0.13696,0.14804 0.26038,0.29205 0.37504,0.43103 0.006,0.006 0.0115,0.0132 0.0172,0.0197 0.1091,0.13377 0.20889,0.2625 0.29859,0.38798 0.004,0.004 0.007,0.01 0.009,0.0119 0.004,0.004 0.005,0.007 0.009,0.0119 0.0902,0.12767 0.17069,0.25245 0.24094,0.37295 0.0729,0.12494 0.13575,0.24632 0.18781,0.36405 0.0521,0.11805 0.0937,0.23319 0.12564,0.34512 0.0321,0.11195 0.0534,0.22081 0.0659,0.32809 0.0124,0.1071 0.0151,0.21186 0.008,0.31507 -0.007,0.1032 -0.0212,0.20488 -0.0458,0.3052 -0.025,0.10033 -0.0587,0.19833 -0.1014,0.29637 -0.0381,0.088 -0.0845,0.17666 -0.13622,0.26378 -0.0152,0.0254 -0.0303,0.0494 -0.0456,0.0742 -0.0533,0.0824 -0.10896,0.16601 -0.17378,0.24922 -0.0756,0.0977 -0.15899,0.19529 -0.25095,0.29355 -0.0917,0.0985 -0.19002,0.19914 -0.29873,0.29799 -0.10658,0.10086 -0.22118,0.20249 -0.34353,0.30563 -0.24273,0.20729 -0.5139,0.42245 -0.81132,0.64795 -0.28445,0.21581 -0.59454,0.44173 -0.92447,0.68119 -0.0138,0.0108 -0.0281,0.0208 -0.0442,0.0303 -4.6e-4,3.6e-4 -5.3e-4,7.3e-4 -0.001,0.002 -0.34672,0.2515 -0.71588,0.51846 -1.10675,0.80395 -4.6e-4,3.6e-4 -5e-4,7.2e-4 -0.001,0.002 -0.33708,0.24626 -0.69807,0.51253 -1.06484,0.78966 -0.0971,0.0741 -0.19495,0.14856 -0.29421,0.22454 -0.39444,0.30157 -0.79866,0.61581 -1.22099,0.95906 -0.43306,0.35183 -0.88345,0.73266 -1.34233,1.13449 -0.0757,0.0679 -0.15284,0.13363 -0.2302,0.20236 -0.20593,0.18189 -0.41069,0.36684 -0.62055,0.5601 -0.25436,0.23368 -0.51109,0.47623 -0.77056,0.72732 -0.25869,0.25103 -0.52223,0.51103 -0.78692,0.77942 -4e-4,4.1e-4 -5.7e-4,6.4e-4 -10e-4,0.002 -0.26439,0.26948 -0.53111,0.54629 -0.80067,0.83433 -0.16532,0.17666 -0.3267,0.35821 -0.48813,0.53853 -0.0825,0.0921 -0.1626,0.18677 -0.2451,0.27882 -0.15844,0.18233 -0.3172,0.36434 -0.47181,0.54986 -0.24031,0.28646 -0.46622,0.58124 -0.69696,0.87389 3.7e-4,3.4e-4 8.4e-4,4.1e-4 0.002,10e-4 -3.51009,4.45642 -6.01445,9.42632 -8.75981,11.00424 -0.0707,0.0418 -0.14276,0.0788 -0.21426,0.11503 -0.003,0.002 -0.004,0.003 -0.009,0.006 -0.21531,0.10848 -0.4325,0.1966 -0.65161,0.26069 -0.003,7e-4 -0.008,0.004 -0.0125,0.004 -0.0164,0.004 -0.0325,0.009 -0.0474,0.0126 -0.0485,0.0137 -0.0979,0.0258 -0.14703,0.0368 -0.0244,0.004 -0.0509,0.0111 -0.0766,0.0163 -0.0543,0.0106 -0.10849,0.0199 -0.1631,0.0277 -0.006,0.004 -0.0107,0.002 -0.0183,0.003 -0.009,2.8e-4 -0.0184,0.003 -0.0265,0.002 -0.0509,0.007 -0.10247,0.0117 -0.15388,0.0157 -0.0306,0.003 -0.0617,0.004 -0.0928,0.005 -0.0408,0.001 -0.081,0.003 -0.12176,0.003 -0.0205,6.9e-4 -0.0421,0.002 -0.0633,0.002 -0.0101,-0.003 -0.0226,-10e-4 -0.0329,-0.003 -0.0391,-5.1e-4 -0.0784,-0.003 -0.11772,-0.006 -0.0405,-0.002 -0.0812,-0.005 -0.12198,-0.01 -0.0247,-0.004 -0.0509,-0.007 -0.0765,-0.01 -0.0399,-0.006 -0.0798,-0.009 -0.12016,-0.0157 -0.006,-0.002 -0.01,-0.003 -0.0166,-0.004 -0.0166,-0.004 -0.0354,-0.009 -0.0546,-0.0115 -0.12553,-0.0243 -0.25225,-0.0549 -0.38003,-0.0951 -0.002,-8.1e-4 -0.003,-10e-4 -0.006,-0.003 -0.009,-0.005 -0.0166,-0.004 -0.0227,-0.005 -4.9e-4,-7e-5 -4.5e-4,-8.2e-4 -0.002,-10e-4 -0.006,-0.002 -0.0103,-0.006 -0.0148,-0.005 -0.15609,-0.0517 -0.31405,-0.11475 -0.47394,-0.19182 -0.0331,-0.0151 -0.0656,-0.0337 -0.0981,-0.0506 -0.034,-0.0161 -0.0667,-0.0346 -0.10004,-0.0528 -0.0379,-0.0197 -0.0747,-0.0422 -0.11206,-0.064 -0.0371,-0.0225 -0.076,-0.0434 -0.11359,-0.0667 -0.0259,-0.0159 -0.0522,-0.0289 -0.0782,-0.0455 -0.10752,-0.0689 -0.21635,-0.14496 -0.32588,-0.22528 -0.01,-0.007 -0.0188,-0.0138 -0.0297,-0.0207 -0.0522,-0.0366 -0.10206,-0.0756 -0.15355,-0.11592 -0.003,-0.002 -0.004,-0.004 -0.007,-0.005 -3.5e-4,-3.4e-4 -6.4e-4,-6.2e-4 -0.002,-10e-4 -0.17467,-0.13569 -0.34906,-0.28706 -0.52756,-0.45412 l -5.62074,-5.26011 c -0.13589,-0.12716 -0.26151,-0.25691 -0.37953,-0.38684 -0.002,-0.002 -0.004,-0.005 -0.005,-0.007 -0.009,-0.0112 -0.0192,-0.0218 -0.0264,-0.0333 -0.10965,-0.12639 -0.21156,-0.25393 -0.30476,-0.38353 -0.006,-0.009 -0.0126,-0.0204 -0.019,-0.03 -0.19537,-0.27642 -0.35342,-0.56067 -0.47696,-0.85188 -0.20258,-0.47817 -0.31342,-0.9763 -0.34233,-1.48817 -0.004,-0.0762 -0.008,-0.15227 -0.009,-0.22926 l 0.001,-0.002 c -8.1e-4,-0.0498 4.3e-4,-0.10034 0.002,-0.15012 L 202.0481,760.11184 c -0.61376,0.22873 -1.20605,0.16955 -1.76661,-0.0494 -0.003,-0.001 -0.006,-0.002 -0.0108,-0.002 -0.29785,-0.11742 -0.58757,-0.27992 -0.86523,-0.46762 l -0.002,-10e-4 c -0.15692,-0.10638 -0.31014,-0.22129 -0.45985,-0.34043 -0.0493,-0.0388 -0.0969,-0.0785 -0.14641,-0.11716 -0.007,-0.005 -0.0154,-0.0132 -0.023,-0.019 -0.002,-0.002 -0.005,-0.004 -0.008,-0.005 -0.002,-10e-4 -0.002,-0.002 -0.004,-0.004 -0.0448,-0.0381 -0.0894,-0.0752 -0.13394,-0.11315 -0.0586,-0.0513 -0.1171,-0.10101 -0.17534,-0.15192 -0.0108,-0.01 -0.0196,-0.0171 -0.0308,-0.0264 -0.04,-0.0361 -0.0789,-0.0715 -0.11868,-0.10743 -0.0171,-0.0156 -0.0331,-0.0313 -0.0503,-0.0471 -0.007,-0.005 -0.0106,-0.01 -0.0169,-0.0158 -0.12441,-0.114 -0.24644,-0.22698 -0.36329,-0.33633 l -3.91387,-3.66276 c -0.24463,-0.22893 -0.48096,-0.44891 -0.70767,-0.66226 -0.22688,-0.21312 -0.44425,-0.4194 -0.65206,-0.61874 -0.41618,-0.398 -0.79517,-0.76792 -1.13214,-1.11703 -0.16899,-0.17396 -0.32824,-0.34287 -0.47608,-0.50693 -0.14876,-0.16296 -0.28417,-0.32346 -0.41051,-0.47848 -0.12694,-0.1545 -0.24228,-0.30556 -0.34635,-0.45296 -0.10379,-0.14746 -0.19591,-0.2919 -0.27663,-0.43329 -0.0808,-0.14108 -0.15054,-0.27882 -0.20744,-0.41533 -0.0571,-0.13631 -0.10174,-0.27121 -0.13417,-0.40383 -0.0322,-0.13287 -0.0525,-0.26324 -0.0596,-0.39385 -0.007,-0.13063 -0.001,-0.26125 0.0181,-0.39104 0.0191,-0.12961 0.0503,-0.25927 0.0962,-0.3896 0.0456,-0.13012 0.10605,-0.2611 0.17965,-0.39316 0.0732,-0.13204 0.15997,-0.26494 0.26175,-0.4 0.10245,-0.13484 0.21908,-0.27224 0.35,-0.41214 l 1.56967,-1.67728 c 0.11469,-0.12256 0.21954,-0.24762 0.3257,-0.37343 l -4.13879,-8.43936 c 0.14241,-0.23696 0.27605,-0.475 0.40467,-0.71496 0.0266,-0.0496 0.0526,-0.0998 0.0787,-0.14961 0.005,-0.009 0.009,-0.0191 0.0133,-0.0272 0.0784,-0.15026 0.15281,-0.30097 0.22623,-0.45186 1e-4,-3.1e-4 7e-4,-5.3e-4 0.001,-0.002 0.0726,-0.15047 0.14362,-0.30045 0.21152,-0.45135 1.22638,-2.72395 1.68914,-5.49775 1.86422,-7.13157 0.0113,-0.11411 0.0241,-0.2201 0.0337,-0.32281 0.001,-0.0226 0.003,-0.0455 0.005,-0.0667 0.0191,-0.23549 0.0319,-0.43426 0.0379,-0.57709 l -6.94213,-6.49672 -1.56987,1.6775 -2.61623,2.7956 -5.59129,-5.23254 -1.56985,1.67748 -1.04638,1.11812 -12.85992,-12.03482 -3.81707,4.07877 -4.03182,4.30826 -13.93182,-19.85521 4.14615,-4.43039 0.56323,-0.60187 -5.59127,-5.23251 -0.78492,0.83874 -0.002,0.002 -4.4712,-4.18799 3.72806,-3.98367 -0.32864,-1.32985 -3.84784,-8.21624 1.61854,-0.81018 -1.27464,-5.16085 17.29271,-9.51263 5.31172,4.9709 1.56967,-1.67727 0.52327,-0.55917 4.47304,4.18604 -0.52329,0.55917 -3.92544,4.19455 -13.34181,14.25655 -2.87787,3.07517 0.55912,0.52325 1.30802,-1.3977 3.13951,-3.35476 2.09315,-2.23665 6.00394,-6.41557 8.12378,-8.68076 1.67738,1.56975 1.56988,-1.67748 1.67738,1.56975 -1.56988,1.6775 2.23654,2.09302 1.56985,-1.67749 1.67456,1.5671 -1.56986,1.6775 12.30079,11.51156 7.5767,-0.25117 22.92423,21.45338 3.24704,-0.10752 z"
       transform="translate(-183.06667,-34.968948)" /><path
       id="path10548"
       style="fill:#f3f3f3;fill-opacity:1;stroke-width:0.264583"
       class="cls-1"
       d="m 168.51372,672.52675 c -8.93559,1.5236 -17.63494,4.20453 -25.878,7.97522 -16.36459,24.21173 -20.80042,47.82229 -18.58233,71.09747 9.58352,7.08072 20.31023,12.46577 31.71382,15.92099 2.56775,-3.45352 4.83995,-7.11716 6.79235,-10.9523 -3.70831,-1.38501 -7.28787,-3.09392 -10.6965,-5.10666 0.89709,-0.65066 1.77478,-1.32136 2.62258,-1.97198 20.08109,9.44366 43.3264,9.44366 63.40749,0 0.85767,0.69991 1.73536,1.37061 2.62258,1.97198 -3.41521,2.016 -7.00124,3.72815 -10.71614,5.11648 1.95001,3.83336 4.22234,7.49396 6.79235,10.94248 11.41333,-3.44136 22.14871,-8.82388 31.73398,-15.91117 2.60256,-26.99172 -4.4465,-50.3853 -18.63245,-71.12692 -8.23479,-3.77009 -16.92798,-6.44474 -25.85785,-7.95559 -1.22197,2.18445 -2.32773,4.43176 -3.31246,6.73292 -9.51204,-1.43336 -19.18492,-1.43336 -28.69696,0 -0.98524,-2.30092 -2.091,-4.5482 -3.31246,-6.73292 z m 33.46979,33.41812 a 9.2524099,17.99498 0 0 1 9.25267,17.99528 9.2524099,17.99498 0 0 1 -9.25267,17.99477 9.2524099,17.99498 0 0 1 -9.25215,-17.99477 9.2524099,17.99498 0 0 1 9.25215,-17.99528 z m -31.58773,0.63407 a 9.2524099,17.99498 0 0 1 9.25215,17.99476 9.2524099,17.99498 0 0 1 -9.25215,17.99529 9.2524099,17.99498 0 0 1 -9.25267,-17.99529 9.2524099,17.99498 0 0 1 9.25267,-17.99476 z"
       transform="translate(-183.06667,-34.968948)" /></g></svg>
