<?xml version="1.0" encoding="UTF-8" standalone="no"?>
<!-- Created with Inkscape (http://www.inkscape.org/) -->

<svg
   width="630"
   height="630"
   viewBox="0 0 166.68749 166.68749"
   version="1.1"
   id="svg5"
   xml:space="preserve"
   xmlns="http://www.w3.org/2000/svg"
   xmlns:svg="http://www.w3.org/2000/svg"><defs
     id="defs2"><style
       id="style299">.cls-1{fill:#5865f2;}</style></defs><g
     id="layer7"
     transform="translate(-86.466686,-601.71086)"><rect
       style="opacity:1;fill:#5b2f6f;fill-opacity:1;stroke-width:0.264583;stroke-linecap:square;stroke-linejoin:round;stroke-miterlimit:60;paint-order:fill markers stroke"
       id="rect10550"
       width="166.68748"
       height="166.68748"
       x="269.53336"
       y="636.67981"
       transform="translate(-183.06667,-34.968948)" /><path
       id="path1485"
       style="fill:#432351;fill-opacity:1;stroke:none;stroke-width:1.5875;stroke-linecap:butt;stroke-linejoin:miter;stroke-miterlimit:4;stroke-dasharray:none;stroke-opacity:1;paint-order:stroke fill markers"
       d="m 392.50691,731.16435 1.47417,5.95124 -5.15961,5.65083 -1.14668,1.25585 25.11531,22.93209 c 0.0268,0.0245 0.0521,0.0496 0.0775,0.0751 0.0256,0.0254 0.0515,0.0503 0.0755,0.0774 0.0248,0.0258 0.048,0.0523 0.0721,0.0788 0.0259,0.028 0.0492,0.058 0.0746,0.0856 0.0841,0.10286 0.16042,0.21128 0.23083,0.32346 0.004,0.005 0.01,0.0131 0.0125,0.0198 0.0101,0.0177 0.0207,0.0363 0.0311,0.0545 0.0588,0.0995 0.11376,0.20185 0.16208,0.30769 0.003,0.006 0.005,0.008 0.008,0.0154 0.005,0.0132 0.0125,0.0244 0.0162,0.0365 0.0518,0.11914 0.0974,0.24168 0.13664,0.36755 0.007,0.0247 0.0138,0.0475 0.0207,0.0708 0.0292,0.10103 0.0541,0.20431 0.0752,0.30935 0.003,0.0158 0.006,0.0316 0.01,0.0483 0.003,0.0204 0.006,0.0407 0.0109,0.0595 0.0159,0.0907 0.0285,0.18226 0.0385,0.27577 0.004,0.0384 0.008,0.0769 0.0112,0.11594 0.002,0.0318 0.003,0.0631 0.006,0.0948 1.8e-4,0.005 4.4e-4,0.0135 0.003,0.0204 1.6e-4,0.003 -0.002,0.007 4.1e-4,0.009 0.002,0.0364 0.004,0.0692 0.005,0.1046 0.003,0.0779 0.003,0.15614 10e-4,0.2349 l 9e-5,0.003 c -7.2e-4,0.0342 -0.002,0.0669 -0.003,0.10032 1.8e-4,0.005 -0.002,0.0113 0.002,0.0182 1.8e-4,0.005 -0.002,0.0113 -0.001,0.016 -7.3e-4,0.0341 -0.002,0.0688 -0.006,0.10368 -0.005,0.0743 -0.0108,0.15017 -0.0191,0.22537 1.9e-4,0.005 -0.002,0.0113 -10e-4,0.0161 -0.14708,1.32828 -0.79865,2.76858 -1.92127,3.99807 -0.88341,0.96751 -1.92363,1.65259 -2.96488,2.033 -0.0732,0.0268 -0.14585,0.0535 -0.21872,0.077 -0.0648,0.0209 -0.12915,0.041 -0.19361,0.0595 -0.0815,0.0235 -0.16359,0.0443 -0.24503,0.0639 -0.0608,0.0147 -0.12192,0.03 -0.18278,0.0424 -0.0798,0.0164 -0.15967,0.03 -0.23894,0.0425 -0.0158,0.003 -0.0271,0.005 -0.0413,0.007 -0.0361,0.006 -0.0709,0.0109 -0.10642,0.0155 -0.0295,0.004 -0.0568,0.007 -0.0854,0.01 -7.8e-4,7e-5 -0.003,0.002 -0.003,0.002 -0.0181,0.002 -0.0364,0.002 -0.0538,0.005 -0.0181,0.002 -0.0339,0.004 -0.0501,0.004 -0.005,1.9e-4 -0.009,3.9e-4 -0.0135,4.5e-4 -0.0385,0.004 -0.0784,0.008 -0.11713,0.01 -0.0409,0.002 -0.0794,0.004 -0.11961,0.005 -0.009,4e-4 -0.0181,0.002 -0.0273,10e-4 -0.003,1.5e-4 -0.005,1.8e-4 -0.009,3.9e-4 -0.0364,0.002 -0.0737,0.001 -0.11052,2.1e-4 -0.0478,-4.1e-4 -0.0959,5.8e-4 -0.14334,-6.1e-4 l -0.003,8e-5 -0.002,-8.4e-4 c -0.065,-0.002 -0.12888,-0.003 -0.19301,-0.008 -0.0251,-10e-4 -0.0531,-0.005 -0.0779,-0.008 l -0.007,-0.002 c -0.009,4e-4 -0.016,-10e-4 -0.0251,-10e-4 -0.003,-4.4e-4 -0.003,-8.6e-4 -0.007,-0.002 l -0.003,8e-5 c -0.11338,-0.0119 -0.22532,-0.0278 -0.3348,-0.0494 -0.0229,-0.004 -0.0427,-0.008 -0.0654,-0.0123 -0.007,-0.002 -0.0137,-0.004 -0.0229,-0.004 -0.0253,-0.006 -0.0518,-0.0124 -0.0774,-0.0189 -0.003,-4.3e-4 -0.004,-3.9e-4 -0.007,-0.002 -0.0394,-0.01 -0.078,-0.0213 -0.11678,-0.0323 -0.0113,-0.002 -0.0253,-0.006 -0.0353,-0.01 -0.0231,-0.009 -0.0488,-0.0139 -0.0727,-0.0214 -0.0113,-0.002 -0.0231,-0.009 -0.0346,-0.01 -0.006,-0.003 -0.009,-0.004 -0.0161,-0.005 l -0.003,7e-5 c -0.003,-8.5e-4 -0.004,-3.8e-4 -0.007,-0.002 -0.003,-8.7e-4 -0.005,-0.003 -0.009,-0.004 -0.003,-8.7e-4 -0.007,-0.002 -0.0116,-0.006 -0.0208,-0.006 -0.0402,-0.015 -0.0615,-0.0213 -0.006,-0.003 -0.0116,-0.006 -0.0185,-0.008 -0.007,-0.002 -0.0138,-0.004 -0.0209,-0.0105 -0.0331,-0.0128 -0.0663,-0.0256 -0.0994,-0.0389 -7.8e-4,-5e-5 -0.003,-4.3e-4 -0.003,-8.7e-4 -0.0326,-0.0124 -0.0633,-0.0273 -0.0941,-0.0423 -0.0254,-0.0107 -0.0509,-0.0248 -0.0774,-0.0358 -0.005,-0.003 -0.0116,-0.006 -0.0185,-0.008 -0.009,-0.005 -0.0139,-0.008 -0.0232,-0.0127 -0.009,-0.005 -0.0185,-0.008 -0.0256,-0.0147 -0.0139,-0.008 -0.0281,-0.017 -0.0442,-0.023 -0.0281,-0.017 -0.0567,-0.0299 -0.0838,-0.046 -0.003,-0.002 -0.006,-0.003 -0.0116,-0.006 -0.0298,-0.0189 -0.0602,-0.0375 -0.0904,-0.0564 l -0.002,-8.3e-4 c -0.0256,-0.0148 -0.0504,-0.033 -0.0771,-0.0486 -0.003,-0.002 -0.005,-0.003 -0.008,-0.005 -0.002,-8.4e-4 -0.003,-0.003 -0.005,-0.004 -0.003,-0.002 -0.005,-0.003 -0.008,-0.005 -0.008,-0.005 -0.0178,-0.014 -0.0258,-0.0194 -0.10551,-0.0746 -0.20863,-0.15564 -0.30554,-0.24413 l -0.007,-0.006 -0.76526,-0.69874 -24.34269,-22.22662 -1.14646,1.25561 -4.58648,5.02313 -4.91397,-2.18397 6.87961,-7.53459 -2.54586,-2.32455 -41.09195,-37.51991 c -5.80789,-5.30303 -12.87656,-12.01614 -18.54696,-17.6836 -3.54393,-3.54221 -6.54215,-6.67581 -8.34475,-8.79992 -0.36047,-0.42489 -0.67273,-0.80923 -0.93262,-1.14834 -0.51932,-0.6787 -0.82686,-1.17753 -0.88068,-1.45643 -0.12962,-0.67056 -0.26684,-1.44467 -0.40652,-2.29588 -0.55836,-3.40534 -1.16272,-8.03369 -1.5419,-12.10308 -0.0948,-1.01736 -0.17619,-1.99856 -0.23845,-2.91833 -0.12472,-1.83926 -0.17568,-3.42886 -0.11939,-4.54366 0.78068,1.14884 2.01299,2.70656 3.61625,4.59038 10.95768,12.87458 39.66698,41.44503 66.5015,65.94687 l 7.74428,7.07108 4.81335,4.39494 3.43982,-3.7673 z"
       transform="translate(-183.06667,-34.968948)" /><path
       id="path10552"
       style="fill:#f3f3f3;fill-opacity:1;stroke-width:0.264583"
       class="cls-1"
       d="m 335.2012,672.52675 c -8.93559,1.5236 -17.63494,4.20453 -25.878,7.97522 -16.36459,24.21173 -20.80042,47.82229 -18.58233,71.09747 9.58352,7.08072 20.31023,12.46577 31.71382,15.92099 2.56775,-3.45352 4.83995,-7.11716 6.79235,-10.9523 -3.70831,-1.38501 -7.28787,-3.09392 -10.6965,-5.10666 0.89709,-0.65066 1.77478,-1.32136 2.62258,-1.97198 20.08109,9.44366 43.3264,9.44366 63.40749,0 0.85767,0.69991 1.73536,1.37061 2.62258,1.97198 -3.41521,2.016 -7.00124,3.72815 -10.71614,5.11648 1.95001,3.83336 4.22234,7.49396 6.79235,10.94248 11.41333,-3.44136 22.14871,-8.82388 31.73398,-15.91117 2.60256,-26.99172 -4.4465,-50.3853 -18.63245,-71.12692 -8.23479,-3.77009 -16.92798,-6.44474 -25.85785,-7.95559 -1.22197,2.18445 -2.32773,4.43176 -3.31246,6.73292 -9.51204,-1.43336 -19.18492,-1.43336 -28.69696,0 -0.98524,-2.30092 -2.091,-4.5482 -3.31246,-6.73292 z m 33.46979,33.41812 a 9.2524099,17.99498 0 0 1 9.25267,17.99528 9.2524099,17.99498 0 0 1 -9.25267,17.99477 9.2524099,17.99498 0 0 1 -9.25215,-17.99477 9.2524099,17.99498 0 0 1 9.25215,-17.99528 z m -31.58773,0.63407 a 9.2524099,17.99498 0 0 1 9.25215,17.99476 9.2524099,17.99498 0 0 1 -9.25215,17.99529 9.2524099,17.99498 0 0 1 -9.25267,-17.99529 9.2524099,17.99498 0 0 1 9.25267,-17.99476 z"
       transform="translate(-183.06667,-34.968948)" /></g></svg>
