<?xml version="1.0" encoding="UTF-8" standalone="no"?>
<svg
   width="512"
   height="512"
   viewBox="0 0 512 512"
   version="1.1"
   id="svg143"
   sodipodi:docname="bell_on.svg"
   inkscape:version="1.2.2 (b0a8486541, 2022-12-01)"
   xmlns:inkscape="http://www.inkscape.org/namespaces/inkscape"
   xmlns:sodipodi="http://sodipodi.sourceforge.net/DTD/sodipodi-0.dtd"
   xmlns="http://www.w3.org/2000/svg"
   xmlns:svg="http://www.w3.org/2000/svg">
  <defs
     id="defs147" />
  <sodipodi:namedview
     id="namedview145"
     pagecolor="#bdbdbd"
     bordercolor="#000000"
     borderopacity="0.25"
     inkscape:showpageshadow="2"
     inkscape:pageopacity="0"
     inkscape:pagecheckerboard="true"
     inkscape:deskcolor="#d1d1d1"
     showgrid="false"
     inkscape:zoom="1.953125"
     inkscape:cx="169.728"
     inkscape:cy="256.256"
     inkscape:window-width="3840"
     inkscape:window-height="2092"
     inkscape:window-x="1920"
     inkscape:window-y="32"
     inkscape:window-maximized="1"
     inkscape:current-layer="svg143" />
  <path
     d="M427.68,351.43C402,320,383.87,304,383.87,217.35,383.87,138,343.35,109.73,310,96c-4.43-1.82-8.6-6-9.95-10.55C294.2,65.54,277.8,48,256,48S217.79,65.55,212,85.47c-1.35,4.6-5.52,8.71-9.95,10.53-33.39,13.75-73.87,41.92-73.87,121.35C128.13,304,110,320,84.32,351.43,73.68,364.45,83,384,101.61,384H410.49C429,384,438.26,364.39,427.68,351.43Z"
     style="fill:none;stroke:#ffffff;stroke-linecap:round;stroke-linejoin:round;stroke-width:32px;fill-opacity:1;stroke-opacity:1"
     id="path139" />
  <path
     d="M320,384v16a64,64,0,0,1-128,0V384"
     style="fill:none;stroke:#ffffff;stroke-linecap:round;stroke-linejoin:round;stroke-width:32px;fill-opacity:1;stroke-opacity:1"
     id="path141" />
</svg>
