<?xml version="1.0" encoding="UTF-8" standalone="no"?>
<svg
   width="512"
   height="512"
   viewBox="0 0 512 512"
   version="1.1"
   id="svg10"
   sodipodi:docname="bell_off.svg"
   inkscape:version="1.2.2 (b0a8486541, 2022-12-01)"
   xmlns:inkscape="http://www.inkscape.org/namespaces/inkscape"
   xmlns:sodipodi="http://sodipodi.sourceforge.net/DTD/sodipodi-0.dtd"
   xmlns="http://www.w3.org/2000/svg"
   xmlns:svg="http://www.w3.org/2000/svg">
  <defs
     id="defs14" />
  <sodipodi:namedview
     id="namedview12"
     pagecolor="#b7b7b7"
     bordercolor="#000000"
     borderopacity="0.25"
     inkscape:showpageshadow="2"
     inkscape:pageopacity="0"
     inkscape:pagecheckerboard="true"
     inkscape:deskcolor="#d1d1d1"
     showgrid="false"
     inkscape:zoom="1.953125"
     inkscape:cx="169.472"
     inkscape:cy="256"
     inkscape:window-width="1499"
     inkscape:window-height="1209"
     inkscape:window-x="1970"
     inkscape:window-y="82"
     inkscape:window-maximized="0"
     inkscape:current-layer="svg10" />
  <path
     d="M128.51,204.59q-.37,6.15-.37,12.76C128.14,304,110,320,84.33,351.43,73.69,364.45,83,384,101.62,384H320"
     style="fill:none;stroke:#ffffff;stroke-linecap:round;stroke-linejoin:round;stroke-width:32px;stroke-opacity:1"
     id="path2" />
  <path
     d="M414.5,335.3c-18.48-23.45-30.62-47.05-30.62-118C383.88,138,343.36,109.73,310,96c-4.43-1.82-8.6-6-9.95-10.55C294.21,65.54,277.82,48,256,48S217.8,65.55,212,85.47c-1.35,4.6-5.52,8.71-10,10.53a149.57,149.57,0,0,0-18,8.79"
     style="fill:none;stroke:#ffffff;stroke-linecap:round;stroke-linejoin:round;stroke-width:32px;stroke-opacity:1"
     id="path4" />
  <path
     d="M320,384v16a64,64,0,0,1-128,0V384"
     style="fill:none;stroke:#ffffff;stroke-linecap:round;stroke-linejoin:round;stroke-width:32px;stroke-opacity:1"
     id="path6" />
  <line
     x1="448"
     y1="448"
     x2="64"
     y2="64"
     style="fill:none;stroke:#ffffff;stroke-linecap:round;stroke-miterlimit:10;stroke-width:32px;stroke-opacity:1"
     id="line8" />
</svg>
