<?xml version="1.0" encoding="UTF-8" standalone="no"?>
<!-- Created with Inkscape (http://www.inkscape.org/) -->

<svg
   width="64"
   height="64"
   viewBox="0 0 16.933334 16.933333"
   version="1.1"
   id="svg5"
   xml:space="preserve"
   inkscape:version="1.2.2 (b0a8486541, 2022-12-01)"
   sodipodi:docname="users.svg"
   xmlns:inkscape="http://www.inkscape.org/namespaces/inkscape"
   xmlns:sodipodi="http://sodipodi.sourceforge.net/DTD/sodipodi-0.dtd"
   xmlns="http://www.w3.org/2000/svg"
   xmlns:svg="http://www.w3.org/2000/svg"><sodipodi:namedview
     id="namedview7"
     pagecolor="#969696"
     bordercolor="#000000"
     borderopacity="0.25"
     inkscape:showpageshadow="2"
     inkscape:pageopacity="0"
     inkscape:pagecheckerboard="true"
     inkscape:deskcolor="#8c8c8c"
     inkscape:document-units="mm"
     showgrid="false"
     inkscape:zoom="14.253648"
     inkscape:cx="8.7346063"
     inkscape:cy="33.079252"
     inkscape:window-width="3840"
     inkscape:window-height="2092"
     inkscape:window-x="1920"
     inkscape:window-y="32"
     inkscape:window-maximized="1"
     inkscape:current-layer="layer1" /><defs
     id="defs2"><inkscape:perspective
       sodipodi:type="inkscape:persp3d"
       inkscape:vp_x="0 : -131.56667 : 1"
       inkscape:vp_y="0 : 999.99995 : 0"
       inkscape:vp_z="210.00002 : -131.56667 : 1"
       inkscape:persp3d-origin="105.00001 : -181.06666 : 1"
       id="perspective279" /></defs><g
     inkscape:label="Layer 1"
     inkscape:groupmode="layer"
     id="layer1"
     transform="translate(-63.712986,-116.50538)"><path
       id="rect333"
       style="fill:#ffffff;fill-opacity:1;stroke-width:0.348195"
       d="m 68.998314,125.39221 c -2.740602,0 -4.946712,1.97243 -4.946712,4.42253 v 0.28335 H 75.88813 v -0.28335 c 0,-2.4501 -2.206543,-4.42253 -4.947147,-4.42253 z" /><circle
       style="fill:#ffffff;fill-opacity:1;stroke-width:0.367644"
       id="path1844"
       cx="69.859619"
       cy="121.26462"
       r="2.9265025" /><path
       id="circle1846"
       style="fill:#ffffff;fill-opacity:1;stroke-width:0.367644"
       d="m 74.265828,118.43458 a 2.9265025,2.9265025 0 0 0 -1.267367,0.28866 2.9265025,2.9265025 0 0 1 1.452627,2.52826 2.9265025,2.9265025 0 0 1 -1.659427,2.63815 2.9265025,2.9265025 0 0 0 1.474167,0.39852 2.9265025,2.9265025 0 0 0 2.926076,-2.9268 2.9265025,2.9265025 0 0 0 -2.926076,-2.92679 z" /><path
       id="path1851"
       style="fill:#ffffff;fill-opacity:1;stroke-width:0.348195"
       d="m 73.455144,124.66514 c -0.357602,0 -0.70621,0.0338 -1.041899,0.0977 2.651019,0.0383 4.78366,2.06535 4.867698,4.60776 h 3.063942 v -0.28292 c 0,-2.4501 -2.2068,-4.4225 -4.947401,-4.4225 z" /></g></svg>
