<?xml version="1.0" encoding="UTF-8" standalone="no"?>
<svg
   xmlns:dc="http://purl.org/dc/elements/1.1/"
   xmlns:cc="http://creativecommons.org/ns#"
   xmlns:rdf="http://www.w3.org/1999/02/22-rdf-syntax-ns#"
   xmlns:svg="http://www.w3.org/2000/svg"
   xmlns="http://www.w3.org/2000/svg"
   xmlns:sodipodi="http://sodipodi.sourceforge.net/DTD/sodipodi-0.dtd"
   xmlns:inkscape="http://www.inkscape.org/namespaces/inkscape"
   id="emoji"
   viewBox="0 0 72 72"
   version="1.1"
   sodipodi:docname="rofl_grey.svg"
   inkscape:version="1.0.2 (e86c870879, 2021-01-15)">
  <metadata
     id="metadata38">
    <rdf:RDF>
      <cc:Work
         rdf:about="">
        <dc:format>image/svg+xml</dc:format>
        <dc:type
           rdf:resource="http://purl.org/dc/dcmitype/StillImage" />
        <dc:title></dc:title>
      </cc:Work>
    </rdf:RDF>
  </metadata>
  <defs
     id="defs36" />
  <sodipodi:namedview
     pagecolor="#ffffff"
     bordercolor="#666666"
     borderopacity="1"
     objecttolerance="10"
     gridtolerance="10"
     guidetolerance="10"
     inkscape:pageopacity="0"
     inkscape:pageshadow="2"
     inkscape:window-width="1920"
     inkscape:window-height="1016"
     id="namedview34"
     showgrid="false"
     inkscape:zoom="4.6925848"
     inkscape:cx="-8.0508878"
     inkscape:cy="38.429152"
     inkscape:window-x="0"
     inkscape:window-y="27"
     inkscape:window-maximized="1"
     inkscape:current-layer="color" />
  <g
     id="color">
    <circle
       cx="35.9997"
       cy="35.9989"
       r="24"
       fill="#fcea2b"
       id="circle2"
       style="fill:#a4a4a4;fill-opacity:1" />
    <path
       fill="#fff"
       d="M51.58,34.554a11.5549,11.5549,0,0,1,1.2192,4.408C42.9625,47.2342,30.1775,50.5842,28.1236,51.08a11.4345,11.4345,0,0,1-2.6837-3.535l.0985-.0489S40.39,44.1243,51.4407,34.7013Z"
       id="path4"
       style="fill:#d3d3d3;fill-opacity:1" />
    <path
       fill="#ea5a47"
       d="M52.799,38.962c.2974,4.6205-2.4688,9.3006-9.0418,12.5673C37.1215,54.8271,31.6358,54.17,28.1237,51.08,30.1775,50.5841,42.9626,47.234,52.799,38.962Z"
       id="path6"
       style="fill:#848484;fill-opacity:1" />
    <path
       fill="#92d3f5"
       d="M67.6926,32.9089a4.2419,4.2419,0,0,1-5.3735,2.6717c-3.9838-1.3386-6.68-6.6869-6.7069-6.74.213-.0912,5.4464-2.637,9.41-1.3052a4.241,4.241,0,0,1,2.6706,5.3737Z"
       id="path8"
       style="fill:#b3b3b3;fill-opacity:1" />
    <path
       fill="#92d3f5"
       d="M14.395,59.3977a4.2421,4.2421,0,0,1-2.6718-5.3736c1.3387-3.9837,6.6869-6.68,6.74-6.7068.0912.213,2.6369,5.4464,1.3052,9.41a4.2411,4.2411,0,0,1-5.3737,2.6707Z"
       id="path10"
       style="fill:#b3b3b3;fill-opacity:1" />
  </g>
  <g
     id="hair" />
  <g
     id="skin" />
  <g
     id="skin-shadow" />
  <g
     id="line">
    <path
       fill="none"
       stroke="#000"
       stroke-linecap="round"
       stroke-linejoin="round"
       stroke-width="2"
       d="M55.2766,23.4489q-.0459-.0708-.0924-.1411A23.0031,23.0031,0,0,0,14.2153,43.3865c.0343.1023.1046.2972.14.3993"
       id="path16" />
    <path
       fill="none"
       stroke="#000"
       stroke-linecap="round"
       stroke-linejoin="round"
       stroke-width="2"
       d="M25.0368,56.22a23.5311,23.5311,0,0,0,21.1991.3755A23.3425,23.3425,0,0,0,58.7218,39.5728"
       id="path18" />
    <path
       fill="none"
       stroke="#000"
       stroke-linecap="round"
       stroke-linejoin="round"
       stroke-width="2"
       d="M51.58,34.554a11.5549,11.5549,0,0,1,1.2192,4.408C42.9625,47.2342,30.1775,50.5842,28.1236,51.08a11.4345,11.4345,0,0,1-2.6837-3.535l.0985-.0489S40.39,44.1243,51.4407,34.7013Z"
       id="path20" />
    <path
       fill="none"
       stroke="#000"
       stroke-linecap="round"
       stroke-linejoin="round"
       stroke-width="2"
       d="M52.799,38.962c.2974,4.6205-2.4688,9.3006-9.0418,12.5673C37.1215,54.8271,31.6358,54.17,28.1237,51.08,30.1775,50.584,42.9625,47.2341,52.799,38.962Z"
       id="path22" />
    <path
       fill="none"
       stroke="#000"
       stroke-linejoin="round"
       stroke-width="2"
       d="M67.6926,32.9089a4.2419,4.2419,0,0,1-5.3735,2.6717c-3.9838-1.3386-6.68-6.6869-6.7069-6.74.213-.0912,5.4464-2.637,9.41-1.3052a4.241,4.241,0,0,1,2.6706,5.3737Z"
       id="path24" />
    <path
       fill="none"
       stroke="#000"
       stroke-linejoin="round"
       stroke-width="2"
       d="M14.395,59.3977a4.2421,4.2421,0,0,1-2.6718-5.3736c1.3387-3.9837,6.6869-6.68,6.74-6.7068.0912.213,2.6369,5.4464,1.3052,9.41a4.2411,4.2411,0,0,1-5.3737,2.6707Z"
       id="path26" />
    <polyline
       fill="none"
       stroke="#000"
       stroke-linecap="round"
       stroke-linejoin="round"
       stroke-width="2"
       points="22.478 33.13 30.163 33.793 25.928 40.072"
       id="polyline28" />
    <polyline
       fill="none"
       stroke="#000"
       stroke-linecap="round"
       stroke-linejoin="round"
       stroke-width="2"
       points="41.878 23.488 37.766 30.014 45.328 30.43"
       id="polyline30" />
  </g>
</svg>
